<svg width="758" height="295" viewBox="0 0 758 295" fill="none" xmlns="http://www.w3.org/2000/svg">
<path d="M99.0181 173.355H120.692C120.335 180.045 118.507 185.954 115.207 191.083C111.951 196.167 107.424 200.158 101.627 203.057C95.8294 205.911 88.9393 207.338 80.9565 207.338C74.5793 207.338 68.8709 206.245 63.8315 204.06C58.7922 201.875 54.5109 198.753 50.9878 194.695C47.5093 190.592 44.8335 185.664 42.9604 179.911C41.132 174.114 40.2178 167.58 40.2178 160.311V154.357C40.2178 147.088 41.1766 140.555 43.0942 134.757C45.0119 128.96 47.7546 124.01 51.3223 119.907C54.89 115.804 59.1712 112.66 64.166 110.475C69.1608 108.289 74.7354 107.197 80.8896 107.197C89.1846 107.197 96.1862 108.691 101.895 111.679C107.603 114.667 112.018 118.77 115.14 123.987C118.306 129.205 120.201 135.159 120.826 141.848H99.085C98.9066 138.057 98.193 134.869 96.9443 132.282C95.6956 129.651 93.778 127.667 91.1914 126.329C88.6048 124.991 85.1709 124.322 80.8896 124.322C77.7679 124.322 75.0252 124.902 72.6616 126.061C70.3426 127.221 68.4027 129.027 66.8418 131.479C65.3255 133.932 64.1883 137.054 63.4302 140.845C62.672 144.591 62.293 149.05 62.293 154.224V160.311C62.293 165.44 62.6274 169.877 63.2964 173.623C63.9653 177.369 65.0356 180.469 66.5073 182.921C68.0236 185.374 69.9635 187.203 72.3271 188.407C74.6908 189.611 77.5672 190.213 80.9565 190.213C84.8364 190.213 88.0697 189.611 90.6562 188.407C93.2428 187.158 95.2274 185.285 96.6099 182.788C97.9924 180.29 98.7951 177.146 99.0181 173.355ZM214.01 155.16V159.508C214.01 166.911 212.984 173.556 210.933 179.443C208.926 185.33 206.049 190.347 202.303 194.494C198.602 198.642 194.187 201.83 189.058 204.06C183.974 206.245 178.333 207.338 172.134 207.338C165.935 207.338 160.271 206.245 155.143 204.06C150.014 201.83 145.554 198.642 141.764 194.494C138.018 190.347 135.119 185.33 133.067 179.443C131.016 173.556 129.99 166.911 129.99 159.508V155.16C129.99 147.757 131.016 141.112 133.067 135.226C135.119 129.294 137.995 124.255 141.697 120.107C145.443 115.96 149.88 112.794 155.009 110.608C160.137 108.379 165.801 107.264 172 107.264C178.199 107.264 183.863 108.379 188.991 110.608C194.12 112.794 198.535 115.96 202.236 120.107C205.982 124.255 208.881 129.294 210.933 135.226C212.984 141.112 214.01 147.757 214.01 155.16ZM192.001 159.508V155.026C192.001 150.076 191.556 145.706 190.664 141.915C189.772 138.08 188.478 134.869 186.784 132.282C185.089 129.696 182.993 127.756 180.496 126.462C177.998 125.125 175.166 124.456 172 124.456C168.7 124.456 165.823 125.125 163.371 126.462C160.918 127.756 158.844 129.696 157.149 132.282C155.499 134.869 154.228 138.08 153.336 141.915C152.489 145.706 152.065 150.076 152.065 155.026V159.508C152.065 164.414 152.489 168.784 153.336 172.62C154.228 176.41 155.522 179.621 157.216 182.252C158.911 184.884 160.985 186.868 163.438 188.206C165.935 189.544 168.834 190.213 172.134 190.213C175.3 190.213 178.11 189.544 180.562 188.206C183.06 186.868 185.156 184.884 186.851 182.252C188.545 179.621 189.816 176.41 190.664 172.62C191.556 168.784 192.001 164.414 192.001 159.508ZM307.729 108.602V206H285.988L249.196 143.052V206H227.389V108.602H249.196L286.055 171.549V108.602H307.729ZM367.198 108.602V206H345.458V108.602H367.198ZM396.833 108.602V125.526H316.425V108.602H396.833ZM440.448 127.131L415.295 206H392.016L428.072 108.602H442.789L440.448 127.131ZM461.319 206L436.1 127.131L433.491 108.602H448.408L484.598 206H461.319ZM460.249 169.743V186.601H409.476V169.743H460.249ZM547.345 173.355H569.019C568.662 180.045 566.834 185.954 563.534 191.083C560.278 196.167 555.752 200.158 549.954 203.057C544.157 205.911 537.266 207.338 529.284 207.338C522.906 207.338 517.198 206.245 512.159 204.06C507.119 201.875 502.838 198.753 499.315 194.695C495.836 190.592 493.161 185.664 491.288 179.911C489.459 174.114 488.545 167.58 488.545 160.311V154.357C488.545 147.088 489.504 140.555 491.421 134.757C493.339 128.96 496.082 124.01 499.649 119.907C503.217 115.804 507.498 112.66 512.493 110.475C517.488 108.289 523.062 107.197 529.217 107.197C537.512 107.197 544.513 108.691 550.222 111.679C555.93 114.667 560.345 118.77 563.467 123.987C566.633 129.205 568.528 135.159 569.153 141.848H547.412C547.234 138.057 546.52 134.869 545.271 132.282C544.023 129.651 542.105 127.667 539.519 126.329C536.932 124.991 533.498 124.322 529.217 124.322C526.095 124.322 523.352 124.902 520.989 126.061C518.67 127.221 516.73 129.027 515.169 131.479C513.653 133.932 512.515 137.054 511.757 140.845C510.999 144.591 510.62 149.05 510.62 154.224V160.311C510.62 165.44 510.955 169.877 511.624 173.623C512.292 177.369 513.363 180.469 514.834 182.921C516.351 185.374 518.291 187.203 520.654 188.407C523.018 189.611 525.894 190.213 529.284 190.213C533.164 190.213 536.397 189.611 538.983 188.407C541.57 187.158 543.555 185.285 544.937 182.788C546.319 180.29 547.122 177.146 547.345 173.355ZM624.475 108.602V206H602.734V108.602H624.475ZM654.109 108.602V125.526H573.702V108.602H654.109Z" fill="black" fill-opacity="0.12"/>
<path d="M7.2665 227.706C7.69394 219.196 14.818 212.745 23.3668 211.51C34.0528 210.137 44.7389 214.118 54.855 216.314C64.2587 218.373 74.5173 219.608 83.921 216.588C88.1954 215.216 92.1849 213.02 95.3194 210C98.3115 207.118 100.591 203.686 103.156 200.53C105.151 197.922 107.573 195.177 110.707 193.941C112.845 192.981 115.267 192.981 117.546 192.843C120.396 192.706 123.246 192.432 126.095 191.883C135.356 190.236 146.185 185.981 151.172 177.745C153.594 173.902 154.734 168.412 152.169 164.295C149.462 159.902 143.62 159.216 138.918 160.726C134.074 162.236 130.227 165.804 129.657 170.746C129.087 175.687 132.222 180.353 136.354 183.098C141.056 186.255 147.182 187.628 152.597 188.589C158.723 189.687 164.992 190.236 171.262 190.373C183.8 190.51 196.338 188.863 208.734 187.216C210.586 186.941 211.726 184.608 211.156 182.961C210.586 181.04 208.734 180.353 206.739 180.628C187.077 183.236 166.275 185.981 146.897 180.216C143.335 179.118 138.918 177.608 137.351 174.04C135.926 170.883 137.779 168.275 140.913 167.314C142.195 166.902 144.475 166.353 145.615 167.314C146.755 168.138 146.612 169.922 146.327 171.02C145.615 174.451 142.908 177.334 140.058 179.255C136.354 181.726 132.222 183.373 127.947 184.471C123.246 185.706 118.544 185.706 113.842 186.255C109.425 186.804 105.72 188.314 102.301 191.196C99.4513 193.667 97.3141 196.687 95.0345 199.706C93.0397 202.451 90.76 205.196 87.9104 207.255C84.6334 209.451 80.7864 210.824 76.797 211.373C67.8207 212.745 58.9869 210.412 50.2956 208.353C39.6096 205.745 27.3562 202.451 16.5277 206.157C6.98154 209.451 0.569922 217.961 0 227.706C0 232.098 7.12402 232.098 7.2665 227.706Z" fill="#58852F"/>
<mask id="path-3-inside-1_47_2" fill="white">
<path d="M606.31 79.4229C606.919 86.0333 607.735 92.8264 611.898 98.9786C613.678 101.594 616.087 104.102 619.109 105.981C622.717 108.26 626.913 109.436 631.231 110.307C640.509 112.179 649.814 113.916 659.101 115.742C661.377 116.202 663.72 116.627 665.996 117.087C667.98 117.487 669.964 117.887 671.749 118.67C675.252 120.27 677.196 123.577 678.957 126.283C683.509 133.219 686.951 140.542 689.327 148.026C689.599 148.786 690.846 149.226 691.677 149.017C692.693 148.799 692.974 148.01 692.702 147.25C690.638 140.628 687.634 134.145 683.857 127.883C682.905 126.281 681.877 124.757 680.799 123.176C679.811 121.754 678.822 120.333 677.496 119.078C676.072 117.709 674.409 116.622 672.44 115.848C670.412 115.063 668.253 114.627 666.152 114.204C656.865 112.377 647.628 110.607 638.341 108.78C634.014 107.954 629.34 107.34 625.226 105.758C621.844 104.464 619.025 102.485 616.849 100.025C611.356 93.8392 610.628 86.3116 609.966 79.3614C609.72 77.5723 606.131 77.6004 606.31 79.4229Z"/>
</mask>
<path d="M606.31 79.4229C606.919 86.0333 607.735 92.8264 611.898 98.9786C613.678 101.594 616.087 104.102 619.109 105.981C622.717 108.26 626.913 109.436 631.231 110.307C640.509 112.179 649.814 113.916 659.101 115.742C661.377 116.202 663.72 116.627 665.996 117.087C667.98 117.487 669.964 117.887 671.749 118.67C675.252 120.27 677.196 123.577 678.957 126.283C683.509 133.219 686.951 140.542 689.327 148.026C689.599 148.786 690.846 149.226 691.677 149.017C692.693 148.799 692.974 148.01 692.702 147.25C690.638 140.628 687.634 134.145 683.857 127.883C682.905 126.281 681.877 124.757 680.799 123.176C679.811 121.754 678.822 120.333 677.496 119.078C676.072 117.709 674.409 116.622 672.44 115.848C670.412 115.063 668.253 114.627 666.152 114.204C656.865 112.377 647.628 110.607 638.341 108.78C634.014 107.954 629.34 107.34 625.226 105.758C621.844 104.464 619.025 102.485 616.849 100.025C611.356 93.8392 610.628 86.3116 609.966 79.3614C609.72 77.5723 606.131 77.6004 606.31 79.4229Z" fill="#433015"/>
<path d="M606.31 79.4229L616.268 78.5048L616.265 78.4756L616.262 78.4464L606.31 79.4229ZM611.898 98.9786L603.616 104.583L603.624 104.594L603.631 104.604L611.898 98.9786ZM619.109 105.981L624.449 97.5261L624.419 97.5073L624.389 97.4887L619.109 105.981ZM659.101 115.742L661.079 105.94L661.055 105.935L661.031 105.93L659.101 115.742ZM671.749 118.67L675.904 109.574L675.835 109.543L675.767 109.513L671.749 118.67ZM678.957 126.283L670.577 131.739L670.587 131.755L670.597 131.77L678.957 126.283ZM689.327 148.026L679.796 151.052L679.85 151.224L679.911 151.393L689.327 148.026ZM691.677 149.017L689.577 139.24L689.412 139.276L689.247 139.317L691.677 149.017ZM692.702 147.25L683.155 150.226L683.217 150.423L683.286 150.617L692.702 147.25ZM683.857 127.883L675.26 132.991L675.277 133.019L675.294 133.048L683.857 127.883ZM680.799 123.176L689.061 117.543L689.036 117.505L689.01 117.468L680.799 123.176ZM677.496 119.078L670.567 126.288L670.595 126.315L670.623 126.341L677.496 119.078ZM672.44 115.848L676.095 106.54L676.073 106.532L676.051 106.523L672.44 115.848ZM666.152 114.204L668.13 104.401L668.106 104.396L668.082 104.392L666.152 114.204ZM638.341 108.78L640.271 98.968L640.243 98.9626L640.216 98.9574L638.341 108.78ZM625.226 105.758L628.816 96.4243L628.807 96.4209L628.798 96.4175L625.226 105.758ZM616.849 100.025L624.34 93.4005L624.333 93.3926L624.326 93.3846L616.849 100.025ZM609.966 79.3614L619.921 78.4127L619.901 78.2047L619.873 77.9977L609.966 79.3614ZM596.352 80.341C596.957 86.899 597.865 96.0843 603.616 104.583L620.18 93.3741C617.605 89.5685 616.882 85.1677 616.268 78.5048L596.352 80.341ZM603.631 104.604C606.078 108.2 609.456 111.754 613.828 114.473L624.389 97.4887C622.718 96.4495 621.279 94.9884 620.166 93.3529L603.631 104.604ZM613.768 114.435C618.951 117.709 624.599 119.171 629.253 120.11L633.209 100.505C629.227 99.7012 626.484 98.8116 624.449 97.5261L613.768 114.435ZM629.253 120.11C638.527 121.981 648.047 123.76 657.171 125.554L661.031 105.93C651.581 104.072 642.491 102.377 633.209 100.505L629.253 120.11ZM657.123 125.545C658.317 125.786 659.521 126.016 660.667 126.236C661.83 126.459 662.936 126.671 664.018 126.889L667.974 107.284C666.78 107.043 665.576 106.813 664.43 106.593C663.267 106.37 662.161 106.158 661.079 105.94L657.123 125.545ZM664.018 126.889C666.213 127.332 667.105 127.553 667.731 127.828L675.767 109.513C672.823 108.221 669.747 107.642 667.974 107.284L664.018 126.889ZM667.594 127.767C667.597 127.768 667.609 127.773 667.631 127.788C667.655 127.803 667.696 127.831 667.756 127.88C667.879 127.981 668.073 128.164 668.342 128.486C668.993 129.263 669.503 130.09 670.577 131.739L687.338 120.827C686.106 118.936 682.6 112.633 675.904 109.574L667.594 127.767ZM670.597 131.77C674.644 137.937 677.693 144.431 679.796 151.052L698.858 145C696.208 136.653 692.374 128.501 687.318 120.797L670.597 131.77ZM679.911 151.393C681.42 155.613 684.852 157.483 686.596 158.177C688.542 158.951 691.231 159.438 694.108 158.718L689.247 139.317C691.292 138.805 692.942 139.177 693.988 139.593C694.833 139.929 697.506 141.199 698.743 144.659L679.911 151.393ZM693.778 158.794C696.626 158.182 699.793 156.383 701.579 152.883C703.264 149.584 702.963 146.245 702.118 143.883L683.286 150.617C682.713 149.014 682.408 146.451 683.766 143.79C685.226 140.93 687.744 139.634 689.577 139.24L693.778 158.794ZM702.249 144.273C699.917 136.794 696.559 129.581 692.42 122.719L675.294 133.048C678.709 138.71 681.358 144.462 683.155 150.226L702.249 144.273ZM692.454 122.776C691.325 120.875 690.135 119.118 689.061 117.543L672.537 128.809C673.618 130.396 674.485 131.687 675.26 132.991L692.454 122.776ZM689.01 117.468C688.099 116.158 686.559 113.887 684.37 111.815L670.623 126.341C671.085 126.779 671.522 127.351 672.588 128.884L689.01 117.468ZM684.425 111.868C682.07 109.604 679.298 107.798 676.095 106.54L668.784 125.156C669.52 125.445 670.075 125.815 670.567 126.288L684.425 111.868ZM676.051 106.523C673.093 105.378 670.086 104.796 668.13 104.401L664.175 124.006C666.42 124.459 667.731 124.748 668.829 125.173L676.051 106.523ZM668.082 104.392C663.425 103.475 658.782 102.574 654.153 101.675C649.519 100.775 644.9 99.8787 640.271 98.968L636.411 118.592C641.068 119.508 645.711 120.41 650.341 121.308C654.974 122.208 659.593 123.105 664.222 124.015L668.082 104.392ZM640.216 98.9574C635.045 97.9702 631.828 97.5827 628.816 96.4243L621.637 115.091C626.852 117.097 632.982 117.938 636.466 118.603L640.216 98.9574ZM628.798 96.4175C626.886 95.6859 625.422 94.6236 624.34 93.4005L609.358 106.649C612.627 110.346 616.802 113.242 621.654 115.098L628.798 96.4175ZM624.326 93.3846C621.298 89.9745 620.621 85.755 619.921 78.4127L600.011 80.3101C600.636 86.8682 601.415 97.7038 609.372 106.664L624.326 93.3846ZM619.873 77.9977C619.312 73.9234 616.78 71.2039 614.402 69.7801C612.18 68.4494 609.822 68.0143 607.855 68.0386C605.952 68.0621 603.303 68.5363 600.86 70.3272C597.984 72.4349 595.934 76.0848 596.358 80.3994L616.262 78.4464C616.596 81.8498 614.928 84.8128 612.683 86.4585C610.869 87.7875 609.099 88.0247 608.102 88.0371C607.041 88.0502 605.615 87.8296 604.129 86.9398C602.487 85.9571 600.497 83.9049 600.059 80.7251L619.873 77.9977Z" fill="#433015" mask="url(#path-3-inside-1_47_2)"/>
<path opacity="0.31" d="M649.101 35.7629C649.101 35.7629 635.949 47.6915 648.544 61.3291C648.544 61.3291 661.823 79.1295 687.894 75.251C713.966 71.3724 713.966 71.3725 713.966 71.3725" fill="#96C11E"/>
<path d="M692.868 76.0639C692.763 74.5545 691.474 74.8414 690.45 75.0056C687.995 75.2885 685.591 75.704 683.127 75.7574C672.258 76.3649 661.82 75.4471 652.499 69.8824C644.371 65.0101 639.285 57.7124 637.687 47.9379C637.668 47.4789 637.518 47.0813 637.409 46.5867C637.281 45.6332 636.726 45.1901 635.792 45.3899C634.768 45.5541 634.622 46.4008 634.608 47.1862C634.658 49.5779 635.236 51.7243 635.997 53.9419C640.609 67.3801 650.532 74.5353 663.696 77.5361C666.096 78.1355 668.66 78.3472 671.101 78.8496C661.97 82.6223 653.209 81.0042 644.999 76.3257C644.22 75.9083 643.391 75.3584 642.654 74.844C640.951 74.8559 640.946 75.8708 641.356 77.1606C643.364 79.1883 646.046 80.1239 648.432 81.5087C649.534 82.1655 648.195 82.3198 648.163 82.6462C647.977 83.5898 648.054 84.4108 648.446 85.2417C648.496 85.3742 648.678 85.4454 648.769 85.481C649.712 85.5107 650.563 85.5047 651.456 85.4018C653.737 85.2772 655.777 84.7193 657.845 84.8498C665.686 83.6232 673.277 81.7339 680.75 79.1205C683.268 78.1847 686.105 78.5032 688.783 78.1946C689.32 78.1787 689.858 78.1629 690.304 78.1115C691.684 77.8602 693.073 77.8384 692.868 76.0639Z" fill="#433015"/>
<path d="M627.952 23.64C632.592 21.7166 637.985 21.788 641.78 24.6344C644.878 26.8674 646.639 30.5037 648.655 33.7867C654.795 43.6714 663.892 51.0869 673.061 58.0777C678.385 62.0892 683.75 66.0033 689.115 69.9175C691.706 71.8389 694.339 73.663 696.839 75.5486C697.395 75.9933 697.993 76.3406 698.663 76.2632C700.675 76.031 699.394 74.2823 698.737 73.5717C697.665 72.5852 696.643 71.7317 695.571 70.7452C693.385 68.8695 691.209 67.224 688.942 65.5428C684.407 62.1805 679.699 58.9768 675.165 55.6144C666.702 49.4673 658.445 42.8338 652.615 33.9772C649.942 29.9836 647.789 25.5137 644.034 22.5701C640.047 19.422 634.435 18.3582 629.38 20.0056C624.367 21.5558 619.982 25.3926 614.859 26.4466C612.409 26.9607 609.932 26.7841 607.399 27.4927C606.688 27.6673 605.944 28.1695 605.971 28.8603C605.99 29.3208 606.314 29.5609 606.729 29.8368C611.336 32.7745 618.307 31.8773 621.364 36.4743C623.563 39.8287 622.618 44.3324 622.061 48.4213C621.619 51.9882 620.478 54.9417 621.376 58.3537C621.527 58.7527 621.919 61.8531 622.111 62.1548C623.16 63.699 624.725 63.5184 624.894 62.1111C625.282 59.4295 625.245 53.975 625.319 51.2835C625.383 48.3618 625.355 45.4043 625.46 42.3853C625.461 40.1185 625.543 37.6573 624.567 35.6882C623.089 32.3894 619.48 30.863 616.195 29.5768C619.854 28.9694 622.884 26.0754 626.182 24.3069C626.803 24.0965 627.332 23.8504 627.952 23.64Z" fill="#433015"/>
<path d="M699.726 78.8215C698.96 78.8636 698.571 79.2828 698.373 80.0068C698.052 81.0257 698.612 81.475 699.262 81.9604C702.599 84.1909 705.895 86.5196 709.232 88.75C716.424 93.7585 723.565 98.6326 730.757 103.641C730.991 103.848 731.174 103.92 731.408 104.126C732.334 104.72 733.319 105.681 734.346 104.253C735.414 102.727 734.039 102.185 733.205 101.627C729.818 99.2626 726.481 97.0322 723.093 94.6673C715.952 89.7932 708.944 84.857 701.802 79.9829C701.101 79.3631 700.583 78.8156 699.726 78.8215Z" fill="#433015"/>
<path d="M710.538 103.907C712.507 103.773 714.704 102.596 716.791 100.924C717.616 100.229 717.944 99.4522 717.461 98.5845C716.887 97.6813 716.044 97.917 715.219 98.6123C714.567 99.1491 713.783 99.7473 712.99 100.116C709.827 101.819 707.335 101.184 705.776 98.0855C704.026 94.6863 702.409 91.2257 700.353 88.0464C698.681 85.4692 696.744 83.0149 694.206 81.2302C693.053 80.4398 691.777 79.9406 690.469 79.7683C689.79 79.6158 689.088 80.0199 688.76 80.7964C688.391 81.67 688.733 82.3693 689.412 82.5218C696.22 84.5066 698.444 90.8058 701.625 96.3483C702.399 97.7824 703.001 99.375 703.908 100.748C705.156 102.82 707.129 103.931 710.538 103.907Z" fill="#433015"/>
<path d="M641.138 76.2574C641.232 75.291 641.417 74.3597 642.423 73.9712C636.443 68.7431 632.677 62.2596 631.418 54.0775C631.283 52.91 630.724 52.2463 629.628 52.5997C628.311 52.9785 628.487 54.0503 628.703 55.0265C630.25 63.7669 634.093 71.0606 641.138 76.2574Z" fill="#433015"/>
<path d="M642.36 80.6518C634.033 78.526 628.718 73.2905 626.671 64.5935C625.192 64.5797 624.55 65.3443 624.473 66.7807C626.743 75.452 631.894 81.0747 640.567 82.8843C643.21 82.9021 643.21 82.9021 642.36 80.6518Z" fill="#433015"/>
<path d="M623.968 66.799C624.46 65.8859 625.178 65.1721 626.125 64.6575C625.826 62.6631 625.486 60.7636 625.187 58.7692C624.973 60.0111 624.089 59.8873 623.652 59.9376C621.794 59.6553 625.919 57.2874 622.598 57.7595C622.415 60.8914 622.928 63.8529 623.968 66.799Z" fill="#433015"/>
<path d="M632.435 30.6632C632.493 28.7987 631.518 27.6419 629.789 27.5234C627.93 27.4652 626.605 28.6143 626.416 30.5391C626.268 32.3686 627.332 33.5604 629.061 33.6789C630.881 33.8324 632.026 32.6133 632.435 30.6632Z" fill="#433015"/>
<path d="M642.243 80.4244C644.883 80.4352 647.409 80.9664 650.041 80.7479C650.8 80.7043 651.502 81.5429 651.486 82.328C651.388 83.3071 650.736 83.8447 649.845 83.9499C647.213 84.1684 644.688 83.6372 642.047 83.6264C641.197 83.6346 640.545 82.9284 640.602 82.0463C640.659 81.1642 641.393 80.4326 642.243 80.4244Z" fill="#433015"/>
<path d="M643.094 84.3427C646.112 84.2697 649.057 84.6255 652.025 84.4184C652.249 84.3921 652.341 84.4281 652.474 84.3659C654.059 83.3868 652.718 82.5166 651.212 82.0393C650.979 81.8332 650.663 81.8234 650.388 81.7155C648.067 81.1468 645.713 80.9086 643.369 80.9028C643.277 80.8669 643.094 80.7949 643.002 80.7589C641.721 80.2553 640.572 79.6895 639.249 79.2841C638.566 79.1305 637.884 78.9769 637.22 79.288C636.555 79.5991 636.042 80.3128 636.201 80.9477C636.311 81.4484 636.819 81.7624 637.235 82.0404C639.125 83.1264 641.048 83.8818 643.094 84.3427Z" fill="#433015"/>
<path d="M637.276 81.8629C635.29 81.8714 635.575 78.7553 637.471 78.712C639.546 78.7381 639.261 81.8543 637.276 81.8629Z" fill="#433015"/>
<path d="M652.911 85.7573C653.566 86.8937 654.31 88.0646 654.837 89.2609C655.12 89.8117 655.452 90.4917 655.696 91.137C655.882 91.4298 655.939 91.7824 656.125 92.0751C656.28 92.6858 656.368 92.7205 656.351 92.2734C656.511 91.8956 656.671 91.5178 656.831 91.14C656.294 91.9208 655.007 92.5192 654.244 93.1018C653.352 93.7442 652.331 94.4465 651.439 95.0889C649.486 96.528 647.484 97.838 645.532 99.2771C641.617 101.932 637.703 104.586 633.789 107.241C632.768 107.943 632.571 109.628 633.258 110.446C634.042 111.523 635.306 111.466 636.327 110.764C642.371 106.739 648.327 102.68 654.234 98.4915C655.681 97.5153 657.039 96.5045 658.526 95.4338C659.884 94.423 661.105 93.2485 660.729 91.4509C660.5 90.0405 659.659 88.6114 658.955 87.346C658.153 85.8224 657.352 84.2988 656.422 82.835C655.062 80.4332 651.423 83.4153 652.911 85.7573Z" fill="#433015"/>
<path d="M661.541 84.8898C662.424 86.4394 663.218 87.9546 663.925 89.4353C664.583 90.7877 665.777 92.5692 665.751 94.09C665.821 93.6801 665.891 93.2702 665.961 92.8604C665.505 94.4309 663.799 96.0567 662.767 97.2919C661.618 98.8086 660.469 100.325 659.28 101.936C656.981 104.969 654.642 108.097 652.256 111.096C650.409 113.541 653.796 116.185 655.644 113.74C659.711 108.448 663.69 103.122 667.796 97.7372C668.7 96.5613 669.858 95.2668 670.099 93.7211C670.301 92.2693 669.643 90.9169 669.12 89.7274C667.931 86.9633 666.575 84.3525 665.13 81.7071C664.529 80.7053 662.928 80.6226 662.094 81.3886C661.015 82.4955 660.98 83.7941 661.541 84.8898Z" fill="#433015"/>
<path d="M68.9844 272.48V278H43.3906V272.48H68.9844ZM44.7266 226.812V278H37.9414V226.812H44.7266ZM91.5547 278.703C88.9062 278.703 86.5039 278.258 84.3477 277.367C82.2148 276.453 80.375 275.176 78.8281 273.535C77.3047 271.895 76.1328 269.949 75.3125 267.699C74.4922 265.449 74.082 262.988 74.082 260.316V258.84C74.082 255.746 74.5391 252.992 75.4531 250.578C76.3672 248.141 77.6094 246.078 79.1797 244.391C80.75 242.703 82.5312 241.426 84.5234 240.559C86.5156 239.691 88.5781 239.258 90.7109 239.258C93.4297 239.258 95.7734 239.727 97.7422 240.664C99.7344 241.602 101.363 242.914 102.629 244.602C103.895 246.266 104.832 248.234 105.441 250.508C106.051 252.758 106.355 255.219 106.355 257.891V260.809H77.9492V255.5H99.8516V255.008C99.7578 253.32 99.4062 251.68 98.7969 250.086C98.2109 248.492 97.2734 247.18 95.9844 246.148C94.6953 245.117 92.9375 244.602 90.7109 244.602C89.2344 244.602 87.875 244.918 86.6328 245.551C85.3906 246.16 84.3242 247.074 83.4336 248.293C82.543 249.512 81.8516 251 81.3594 252.758C80.8672 254.516 80.6211 256.543 80.6211 258.84V260.316C80.6211 262.121 80.8672 263.82 81.3594 265.414C81.875 266.984 82.6133 268.367 83.5742 269.562C84.5586 270.758 85.7422 271.695 87.125 272.375C88.5312 273.055 90.125 273.395 91.9062 273.395C94.2031 273.395 96.1484 272.926 97.7422 271.988C99.3359 271.051 100.73 269.797 101.926 268.227L105.863 271.355C105.043 272.598 104 273.781 102.734 274.906C101.469 276.031 99.9102 276.945 98.0586 277.648C96.2305 278.352 94.0625 278.703 91.5547 278.703ZM129.875 239.961V244.953H109.309V239.961H129.875ZM116.27 230.715H122.773V268.578C122.773 269.867 122.973 270.84 123.371 271.496C123.77 272.152 124.285 272.586 124.918 272.797C125.551 273.008 126.23 273.113 126.957 273.113C127.496 273.113 128.059 273.066 128.645 272.973C129.254 272.855 129.711 272.762 130.016 272.691L130.051 278C129.535 278.164 128.855 278.316 128.012 278.457C127.191 278.621 126.195 278.703 125.023 278.703C123.43 278.703 121.965 278.387 120.629 277.754C119.293 277.121 118.227 276.066 117.43 274.59C116.656 273.09 116.27 271.074 116.27 268.543V230.715ZM144.078 224V228.5C144.078 229.906 143.832 231.395 143.34 232.965C142.871 234.512 142.18 236.012 141.266 237.465C140.352 238.895 139.25 240.148 137.961 241.227L134.234 238.66C135.336 237.113 136.168 235.531 136.73 233.914C137.316 232.273 137.609 230.504 137.609 228.605V224H144.078ZM170.129 267.91C170.129 266.973 169.918 266.105 169.496 265.309C169.098 264.488 168.266 263.75 167 263.094C165.758 262.414 163.883 261.828 161.375 261.336C159.266 260.891 157.355 260.363 155.645 259.754C153.957 259.145 152.516 258.406 151.32 257.539C150.148 256.672 149.246 255.652 148.613 254.48C147.98 253.309 147.664 251.938 147.664 250.367C147.664 248.867 147.992 247.449 148.648 246.113C149.328 244.777 150.277 243.594 151.496 242.562C152.738 241.531 154.227 240.723 155.961 240.137C157.695 239.551 159.629 239.258 161.762 239.258C164.809 239.258 167.41 239.797 169.566 240.875C171.723 241.953 173.375 243.395 174.523 245.199C175.672 246.98 176.246 248.961 176.246 251.141H169.742C169.742 250.086 169.426 249.066 168.793 248.082C168.184 247.074 167.281 246.242 166.086 245.586C164.914 244.93 163.473 244.602 161.762 244.602C159.957 244.602 158.492 244.883 157.367 245.445C156.266 245.984 155.457 246.676 154.941 247.52C154.449 248.363 154.203 249.254 154.203 250.191C154.203 250.895 154.32 251.527 154.555 252.09C154.812 252.629 155.258 253.133 155.891 253.602C156.523 254.047 157.414 254.469 158.562 254.867C159.711 255.266 161.176 255.664 162.957 256.062C166.074 256.766 168.641 257.609 170.656 258.594C172.672 259.578 174.172 260.785 175.156 262.215C176.141 263.645 176.633 265.379 176.633 267.418C176.633 269.082 176.281 270.605 175.578 271.988C174.898 273.371 173.902 274.566 172.59 275.574C171.301 276.559 169.754 277.332 167.949 277.895C166.168 278.434 164.164 278.703 161.938 278.703C158.586 278.703 155.75 278.105 153.43 276.91C151.109 275.715 149.352 274.168 148.156 272.27C146.961 270.371 146.363 268.367 146.363 266.258H152.902C152.996 268.039 153.512 269.457 154.449 270.512C155.387 271.543 156.535 272.281 157.895 272.727C159.254 273.148 160.602 273.359 161.938 273.359C163.719 273.359 165.207 273.125 166.402 272.656C167.621 272.188 168.547 271.543 169.18 270.723C169.812 269.902 170.129 268.965 170.129 267.91ZM212.668 271.25L222.441 239.961H226.73L225.887 246.184L215.938 278H211.754L212.668 271.25ZM206.094 239.961L214.426 271.602L215.023 278H210.629L199.59 239.961H206.094ZM236.082 271.355L244.027 239.961H250.496L239.457 278H235.098L236.082 271.355ZM227.68 239.961L237.242 270.723L238.332 278H234.184L223.953 246.113L223.109 239.961H227.68ZM255.453 259.402V258.594C255.453 255.852 255.852 253.309 256.648 250.965C257.445 248.598 258.594 246.547 260.094 244.812C261.594 243.055 263.41 241.695 265.543 240.734C267.676 239.75 270.066 239.258 272.715 239.258C275.387 239.258 277.789 239.75 279.922 240.734C282.078 241.695 283.906 243.055 285.406 244.812C286.93 246.547 288.09 248.598 288.887 250.965C289.684 253.309 290.082 255.852 290.082 258.594V259.402C290.082 262.145 289.684 264.688 288.887 267.031C288.09 269.375 286.93 271.426 285.406 273.184C283.906 274.918 282.09 276.277 279.957 277.262C277.848 278.223 275.457 278.703 272.785 278.703C270.113 278.703 267.711 278.223 265.578 277.262C263.445 276.277 261.617 274.918 260.094 273.184C258.594 271.426 257.445 269.375 256.648 267.031C255.852 264.688 255.453 262.145 255.453 259.402ZM261.957 258.594V259.402C261.957 261.301 262.18 263.094 262.625 264.781C263.07 266.445 263.738 267.922 264.629 269.211C265.543 270.5 266.68 271.52 268.039 272.27C269.398 272.996 270.98 273.359 272.785 273.359C274.566 273.359 276.125 272.996 277.461 272.27C278.82 271.52 279.945 270.5 280.836 269.211C281.727 267.922 282.395 266.445 282.84 264.781C283.309 263.094 283.543 261.301 283.543 259.402V258.594C283.543 256.719 283.309 254.949 282.84 253.285C282.395 251.598 281.715 250.109 280.801 248.82C279.91 247.508 278.785 246.477 277.426 245.727C276.09 244.977 274.52 244.602 272.715 244.602C270.934 244.602 269.363 244.977 268.004 245.727C266.668 246.477 265.543 247.508 264.629 248.82C263.738 250.109 263.07 251.598 262.625 253.285C262.18 254.949 261.957 256.719 261.957 258.594ZM304.742 245.938V278H298.238V239.961H304.566L304.742 245.938ZM316.625 239.75L316.59 245.797C316.051 245.68 315.535 245.609 315.043 245.586C314.574 245.539 314.035 245.516 313.426 245.516C311.926 245.516 310.602 245.75 309.453 246.219C308.305 246.688 307.332 247.344 306.535 248.188C305.738 249.031 305.105 250.039 304.637 251.211C304.191 252.359 303.898 253.625 303.758 255.008L301.93 256.062C301.93 253.766 302.152 251.609 302.598 249.594C303.066 247.578 303.781 245.797 304.742 244.25C305.703 242.68 306.922 241.461 308.398 240.594C309.898 239.703 311.68 239.258 313.742 239.258C314.211 239.258 314.75 239.316 315.359 239.434C315.969 239.527 316.391 239.633 316.625 239.75ZM329.176 224V278H322.637V224H329.176ZM352.414 239.961L335.82 257.715L326.539 267.348L326.012 260.422L332.656 252.477L344.469 239.961H352.414ZM346.473 278L332.902 259.859L336.277 254.059L354.137 278H346.473ZM392.914 239.961V244.953H372.348V239.961H392.914ZM379.309 230.715H385.812V268.578C385.812 269.867 386.012 270.84 386.41 271.496C386.809 272.152 387.324 272.586 387.957 272.797C388.59 273.008 389.27 273.113 389.996 273.113C390.535 273.113 391.098 273.066 391.684 272.973C392.293 272.855 392.75 272.762 393.055 272.691L393.09 278C392.574 278.164 391.895 278.316 391.051 278.457C390.23 278.621 389.234 278.703 388.062 278.703C386.469 278.703 385.004 278.387 383.668 277.754C382.332 277.121 381.266 276.066 380.469 274.59C379.695 273.09 379.309 271.074 379.309 268.543V230.715ZM398.117 259.402V258.594C398.117 255.852 398.516 253.309 399.312 250.965C400.109 248.598 401.258 246.547 402.758 244.812C404.258 243.055 406.074 241.695 408.207 240.734C410.34 239.75 412.73 239.258 415.379 239.258C418.051 239.258 420.453 239.75 422.586 240.734C424.742 241.695 426.57 243.055 428.07 244.812C429.594 246.547 430.754 248.598 431.551 250.965C432.348 253.309 432.746 255.852 432.746 258.594V259.402C432.746 262.145 432.348 264.688 431.551 267.031C430.754 269.375 429.594 271.426 428.07 273.184C426.57 274.918 424.754 276.277 422.621 277.262C420.512 278.223 418.121 278.703 415.449 278.703C412.777 278.703 410.375 278.223 408.242 277.262C406.109 276.277 404.281 274.918 402.758 273.184C401.258 271.426 400.109 269.375 399.312 267.031C398.516 264.688 398.117 262.145 398.117 259.402ZM404.621 258.594V259.402C404.621 261.301 404.844 263.094 405.289 264.781C405.734 266.445 406.402 267.922 407.293 269.211C408.207 270.5 409.344 271.52 410.703 272.27C412.062 272.996 413.645 273.359 415.449 273.359C417.23 273.359 418.789 272.996 420.125 272.27C421.484 271.52 422.609 270.5 423.5 269.211C424.391 267.922 425.059 266.445 425.504 264.781C425.973 263.094 426.207 261.301 426.207 259.402V258.594C426.207 256.719 425.973 254.949 425.504 253.285C425.059 251.598 424.379 250.109 423.465 248.82C422.574 247.508 421.449 246.477 420.09 245.727C418.754 244.977 417.184 244.602 415.379 244.602C413.598 244.602 412.027 244.977 410.668 245.727C409.332 246.477 408.207 247.508 407.293 248.82C406.402 250.109 405.734 251.598 405.289 253.285C404.844 254.949 404.621 256.719 404.621 258.594ZM465.547 239.961H471.453V277.191C471.453 280.543 470.773 283.402 469.414 285.77C468.055 288.137 466.156 289.93 463.719 291.148C461.305 292.391 458.516 293.012 455.352 293.012C454.039 293.012 452.492 292.801 450.711 292.379C448.953 291.98 447.219 291.289 445.508 290.305C443.82 289.344 442.402 288.043 441.254 286.402L444.664 282.535C446.258 284.457 447.922 285.793 449.656 286.543C451.414 287.293 453.148 287.668 454.859 287.668C456.922 287.668 458.703 287.281 460.203 286.508C461.703 285.734 462.863 284.586 463.684 283.062C464.527 281.562 464.949 279.711 464.949 277.508V248.328L465.547 239.961ZM439.355 259.402V258.664C439.355 255.758 439.695 253.121 440.375 250.754C441.078 248.363 442.074 246.312 443.363 244.602C444.676 242.891 446.258 241.578 448.109 240.664C449.961 239.727 452.047 239.258 454.367 239.258C456.758 239.258 458.844 239.68 460.625 240.523C462.43 241.344 463.953 242.551 465.195 244.145C466.461 245.715 467.457 247.613 468.184 249.84C468.91 252.066 469.414 254.586 469.695 257.398V260.633C469.438 263.422 468.934 265.93 468.184 268.156C467.457 270.383 466.461 272.281 465.195 273.852C463.953 275.422 462.43 276.629 460.625 277.473C458.82 278.293 456.711 278.703 454.297 278.703C452.023 278.703 449.961 278.223 448.109 277.262C446.281 276.301 444.711 274.953 443.398 273.219C442.086 271.484 441.078 269.445 440.375 267.102C439.695 264.734 439.355 262.168 439.355 259.402ZM445.859 258.664V259.402C445.859 261.301 446.047 263.082 446.422 264.746C446.82 266.41 447.418 267.875 448.215 269.141C449.035 270.406 450.078 271.402 451.344 272.129C452.609 272.832 454.121 273.184 455.879 273.184C458.035 273.184 459.816 272.727 461.223 271.812C462.629 270.898 463.742 269.691 464.562 268.191C465.406 266.691 466.062 265.062 466.531 263.305V254.832C466.273 253.543 465.875 252.301 465.336 251.105C464.82 249.887 464.141 248.809 463.297 247.871C462.477 246.91 461.457 246.148 460.238 245.586C459.02 245.023 457.59 244.742 455.949 244.742C454.168 244.742 452.633 245.117 451.344 245.867C450.078 246.594 449.035 247.602 448.215 248.891C447.418 250.156 446.82 251.633 446.422 253.32C446.047 254.984 445.859 256.766 445.859 258.664ZM497.117 278.703C494.469 278.703 492.066 278.258 489.91 277.367C487.777 276.453 485.938 275.176 484.391 273.535C482.867 271.895 481.695 269.949 480.875 267.699C480.055 265.449 479.645 262.988 479.645 260.316V258.84C479.645 255.746 480.102 252.992 481.016 250.578C481.93 248.141 483.172 246.078 484.742 244.391C486.312 242.703 488.094 241.426 490.086 240.559C492.078 239.691 494.141 239.258 496.273 239.258C498.992 239.258 501.336 239.727 503.305 240.664C505.297 241.602 506.926 242.914 508.191 244.602C509.457 246.266 510.395 248.234 511.004 250.508C511.613 252.758 511.918 255.219 511.918 257.891V260.809H483.512V255.5H505.414V255.008C505.32 253.32 504.969 251.68 504.359 250.086C503.773 248.492 502.836 247.18 501.547 246.148C500.258 245.117 498.5 244.602 496.273 244.602C494.797 244.602 493.438 244.918 492.195 245.551C490.953 246.16 489.887 247.074 488.996 248.293C488.105 249.512 487.414 251 486.922 252.758C486.43 254.516 486.184 256.543 486.184 258.84V260.316C486.184 262.121 486.43 263.82 486.922 265.414C487.438 266.984 488.176 268.367 489.137 269.562C490.121 270.758 491.305 271.695 492.688 272.375C494.094 273.055 495.688 273.395 497.469 273.395C499.766 273.395 501.711 272.926 503.305 271.988C504.898 271.051 506.293 269.797 507.488 268.227L511.426 271.355C510.605 272.598 509.562 273.781 508.297 274.906C507.031 276.031 505.473 276.945 503.621 277.648C501.793 278.352 499.625 278.703 497.117 278.703ZM535.438 239.961V244.953H514.871V239.961H535.438ZM521.832 230.715H528.336V268.578C528.336 269.867 528.535 270.84 528.934 271.496C529.332 272.152 529.848 272.586 530.48 272.797C531.113 273.008 531.793 273.113 532.52 273.113C533.059 273.113 533.621 273.066 534.207 272.973C534.816 272.855 535.273 272.762 535.578 272.691L535.613 278C535.098 278.164 534.418 278.316 533.574 278.457C532.754 278.621 531.758 278.703 530.586 278.703C528.992 278.703 527.527 278.387 526.191 277.754C524.855 277.121 523.789 276.066 522.992 274.59C522.219 273.09 521.832 271.074 521.832 268.543V230.715ZM549.57 224V278H543.066V224H549.57ZM548.023 257.539L545.316 257.434C545.34 254.832 545.727 252.43 546.477 250.227C547.227 248 548.281 246.066 549.641 244.426C551 242.785 552.617 241.52 554.492 240.629C556.391 239.715 558.488 239.258 560.785 239.258C562.66 239.258 564.348 239.516 565.848 240.031C567.348 240.523 568.625 241.32 569.68 242.422C570.758 243.523 571.578 244.953 572.141 246.711C572.703 248.445 572.984 250.566 572.984 253.074V278H566.445V253.004C566.445 251.012 566.152 249.418 565.566 248.223C564.98 247.004 564.125 246.125 563 245.586C561.875 245.023 560.492 244.742 558.852 244.742C557.234 244.742 555.758 245.082 554.422 245.762C553.109 246.441 551.973 247.379 551.012 248.574C550.074 249.77 549.336 251.141 548.797 252.688C548.281 254.211 548.023 255.828 548.023 257.539ZM598.508 278.703C595.859 278.703 593.457 278.258 591.301 277.367C589.168 276.453 587.328 275.176 585.781 273.535C584.258 271.895 583.086 269.949 582.266 267.699C581.445 265.449 581.035 262.988 581.035 260.316V258.84C581.035 255.746 581.492 252.992 582.406 250.578C583.32 248.141 584.562 246.078 586.133 244.391C587.703 242.703 589.484 241.426 591.477 240.559C593.469 239.691 595.531 239.258 597.664 239.258C600.383 239.258 602.727 239.727 604.695 240.664C606.688 241.602 608.316 242.914 609.582 244.602C610.848 246.266 611.785 248.234 612.395 250.508C613.004 252.758 613.309 255.219 613.309 257.891V260.809H584.902V255.5H606.805V255.008C606.711 253.32 606.359 251.68 605.75 250.086C605.164 248.492 604.227 247.18 602.938 246.148C601.648 245.117 599.891 244.602 597.664 244.602C596.188 244.602 594.828 244.918 593.586 245.551C592.344 246.16 591.277 247.074 590.387 248.293C589.496 249.512 588.805 251 588.312 252.758C587.82 254.516 587.574 256.543 587.574 258.84V260.316C587.574 262.121 587.82 263.82 588.312 265.414C588.828 266.984 589.566 268.367 590.527 269.562C591.512 270.758 592.695 271.695 594.078 272.375C595.484 273.055 597.078 273.395 598.859 273.395C601.156 273.395 603.102 272.926 604.695 271.988C606.289 271.051 607.684 269.797 608.879 268.227L612.816 271.355C611.996 272.598 610.953 273.781 609.688 274.906C608.422 276.031 606.863 276.945 605.012 277.648C603.184 278.352 601.016 278.703 598.508 278.703ZM627.406 245.938V278H620.902V239.961H627.23L627.406 245.938ZM639.289 239.75L639.254 245.797C638.715 245.68 638.199 245.609 637.707 245.586C637.238 245.539 636.699 245.516 636.09 245.516C634.59 245.516 633.266 245.75 632.117 246.219C630.969 246.688 629.996 247.344 629.199 248.188C628.402 249.031 627.77 250.039 627.301 251.211C626.855 252.359 626.562 253.625 626.422 255.008L624.594 256.062C624.594 253.766 624.816 251.609 625.262 249.594C625.73 247.578 626.445 245.797 627.406 244.25C628.367 242.68 629.586 241.461 631.062 240.594C632.562 239.703 634.344 239.258 636.406 239.258C636.875 239.258 637.414 239.316 638.023 239.434C638.633 239.527 639.055 239.633 639.289 239.75ZM653.035 226.812L652.578 263.551H646.707L646.215 226.812H653.035ZM646.004 274.73C646.004 273.676 646.32 272.785 646.953 272.059C647.609 271.332 648.57 270.969 649.836 270.969C651.078 270.969 652.027 271.332 652.684 272.059C653.363 272.785 653.703 273.676 653.703 274.73C653.703 275.738 653.363 276.605 652.684 277.332C652.027 278.059 651.078 278.422 649.836 278.422C648.57 278.422 647.609 278.059 646.953 277.332C646.32 276.605 646.004 275.738 646.004 274.73Z" fill="black"/>
</svg>
