<svg width="217" height="34" viewBox="0 0 217 34" fill="none" xmlns="http://www.w3.org/2000/svg">
<path d="M215.743 33.9049H213.392C212.715 33.9049 212.135 33.3573 212.135 32.6485V1.49663C212.135 0.820112 212.683 0.240234 213.392 0.240234H215.743C216.42 0.240234 217 0.787897 217 1.49663V32.6485C217 33.3573 216.42 33.9049 215.743 33.9049Z" fill="#E8481D"/>
<path d="M3.83367 33.9045H1.48197C0.805456 33.9045 0.225586 33.3569 0.225586 32.6482V10.7098C0.225586 10.0332 0.773241 9.45337 1.48197 9.45337H3.83367C4.51018 9.45337 5.09005 10.001 5.09005 10.7098V32.6482C5.09005 33.3569 4.51018 33.9045 3.83367 33.9045Z" fill="#F3901C"/>
<path d="M2.64163 6.90875C4.10056 6.90875 5.28326 5.72604 5.28326 4.26711C5.28326 2.80818 4.10056 1.62549 2.64163 1.62549C1.1827 1.62549 0 2.80818 0 4.26711C0 5.72604 1.1827 6.90875 2.64163 6.90875Z" fill="#F3901C"/>
<path d="M21.2943 9.03491C15.1413 9.03491 10.1157 14.7047 10.1157 21.6954V33.9049H14.9158V21.6954C14.9158 17.3464 17.7829 13.8349 21.2943 13.8349C24.8058 13.8349 27.6407 17.3464 27.6407 21.6954V33.9049H32.4729V21.6954C32.4729 14.7047 27.4474 9.03491 21.2943 9.03491Z" fill="#F3901C"/>
<path d="M138.363 9.03491C134.723 9.03491 131.501 11.0322 129.44 14.0927C127.41 11.0322 124.156 9.03491 120.516 9.03491C114.363 9.03491 109.337 14.7047 109.337 21.6954V33.9049H114.137V21.6954C114.137 17.3464 117.005 13.8349 120.516 13.8349C124.027 13.8349 126.895 17.3464 126.895 21.6954V33.9049H127.152H131.695H131.952V21.6954C131.952 17.3464 134.819 13.8349 138.331 13.8349C141.842 13.8349 144.709 17.3464 144.709 21.6954V33.9049H149.509V21.6954C149.542 14.7047 144.516 9.03491 138.363 9.03491Z" fill="#E8481D"/>
<path d="M55.4416 23.1129C54.7973 22.1786 53.8309 21.3733 52.5423 20.729C51.2859 20.1169 49.6752 19.5692 47.6778 19.1182C45.8094 18.6994 44.5208 18.2806 43.8443 17.8296C43.2644 17.4752 43.0067 16.9598 43.0067 16.2189C43.0067 15.4135 43.3288 14.8014 43.9731 14.286C44.6496 13.7705 45.6483 13.4806 46.9047 13.4806C48.1288 13.4806 49.1275 13.8027 49.9329 14.4793C50.706 15.1236 51.0604 15.8967 51.0604 16.7665V16.8309C51.0604 16.8632 51.0604 16.8954 51.0604 16.9276V17.3786H51.1248C51.3826 18.5383 52.4134 19.4081 53.6376 19.4081C54.8618 19.4081 55.8927 18.5383 56.1504 17.3786H56.2148V16.7665C56.2148 14.5115 55.345 12.643 53.5732 11.1933C51.8658 9.77586 49.6107 9.06714 46.9047 9.06714C44.3275 9.06714 42.1691 9.77587 40.4617 11.1289C38.7543 12.5464 37.8845 14.286 37.8845 16.3477C37.8845 17.6041 38.2066 18.6672 38.8187 19.6014C39.4308 20.5035 40.365 21.2766 41.6214 21.8887C42.8134 22.5008 44.4563 23.0162 46.4537 23.4672C48.3221 23.8538 49.6429 24.337 50.3517 24.8525C50.996 25.3035 51.2859 25.9478 51.2859 26.8176C51.2859 27.5908 50.9316 28.2028 50.2228 28.6861C49.4497 29.2015 48.3543 29.4914 47.0335 29.4914C45.5839 29.4914 44.4241 29.1371 43.5543 28.4606C42.7489 27.8163 42.2979 26.9787 42.2335 25.9156C42.2335 25.8511 42.2335 25.8189 42.2335 25.7545C42.2335 24.337 41.0738 23.2095 39.6563 23.2095C38.4321 23.2095 37.369 24.0793 37.1435 25.2391H37.0791V25.8511C37.0791 27.3008 37.5301 28.6861 38.3677 29.9424C39.2053 31.1988 40.3972 32.1653 41.9114 32.8418C43.3932 33.5183 45.1006 33.8727 47.0013 33.8727C49.7074 33.8727 51.9624 33.2284 53.702 31.9076C55.4739 30.5545 56.3759 28.7505 56.3759 26.5277C56.4081 25.2391 56.0859 24.0793 55.4416 23.1129Z" fill="#F3901C"/>
<path d="M74.5134 10.4525H70.8731V2.84972C70.8731 1.5289 69.7778 0.433594 68.457 0.433594C67.1362 0.433594 66.0409 1.5289 66.0409 2.84972V10.4525H62.4006C61.2409 10.4525 60.2744 11.4189 60.2744 12.5787C60.2744 13.7384 61.2409 14.7048 62.4006 14.7048H66.0409V31.4888C66.0409 32.8097 67.1362 33.905 68.457 33.905C69.7778 33.905 70.8731 32.8097 70.8731 31.4888V14.7048H74.5134C75.6732 14.7048 76.6396 13.7384 76.6396 12.5787C76.6396 11.3867 75.6732 10.4525 74.5134 10.4525Z" fill="#F3901C"/>
<path d="M101.509 9.67937C100.156 9.67937 99.0606 10.7747 99.0606 12.1277V12.4499C96.9022 10.5814 94.0995 9.45386 91.0391 9.45386C84.2739 9.45386 78.7974 14.9304 78.7974 21.6956C78.7974 28.4607 84.2739 33.9373 91.0391 33.9373C94.0995 33.9373 96.9022 32.8097 99.0606 30.9413V31.0701C99.0606 32.4232 100.156 33.5185 101.509 33.5185C102.862 33.5185 103.957 32.4232 103.957 31.0701V12.1599C103.925 10.7747 102.83 9.67937 101.509 9.67937ZM91.0391 29.2017C86.8833 29.2017 83.5008 25.8191 83.5008 21.6633C83.5008 17.5076 86.8833 14.125 91.0391 14.125C95.1948 14.125 98.5774 17.5076 98.5774 21.6633C98.5774 25.8191 95.1948 29.2017 91.0391 29.2017Z" fill="#F3901C"/>
<path d="M205.339 9.67937C203.986 9.67937 202.891 10.7747 202.891 12.1277V12.4499C200.732 10.5814 197.93 9.45386 194.869 9.45386C188.104 9.45386 182.627 14.9304 182.627 21.6956C182.627 28.4607 188.104 33.9373 194.869 33.9373C197.93 33.9373 200.732 32.8097 202.891 30.9413V31.0701C202.891 32.4232 203.986 33.5185 205.339 33.5185C206.692 33.5185 207.787 32.4232 207.787 31.0701V12.1599C207.787 10.7747 206.692 9.67937 205.339 9.67937ZM194.901 29.2017C190.746 29.2017 187.363 25.8191 187.363 21.6633C187.363 17.5076 190.746 14.125 194.901 14.125C199.057 14.125 202.44 17.5076 202.44 21.6633C202.44 25.8191 199.057 29.2017 194.901 29.2017Z" fill="#E8481D"/>
<path d="M176.023 12.8363C173.832 10.4202 170.771 9.22827 166.809 9.22827C163.169 9.22827 160.173 10.388 157.885 12.6753C155.598 14.9625 154.438 17.8941 154.438 21.5022C154.438 25.2713 155.598 28.2996 157.885 30.5546C160.205 32.8097 163.265 33.9372 167.099 33.9372C169 33.9372 170.868 33.5828 172.704 32.8741C174.541 32.1653 176.023 31.1989 177.214 29.9103L177.182 29.8781C177.569 29.4915 177.827 28.9438 177.827 28.3318C177.827 27.1076 176.86 26.1411 175.636 26.1411C174.992 26.1411 174.444 26.3989 174.025 26.8499L173.993 26.8176C173.284 27.5908 172.286 28.2029 170.997 28.6539C169.708 29.1049 168.42 29.3304 167.163 29.3304C165.037 29.3304 163.265 28.7828 161.88 27.7197C160.495 26.6244 159.69 25.2069 159.464 23.4351H178.535C179.083 18.7639 178.213 15.2525 176.023 12.8363ZM159.657 19.2793C160.044 17.4753 160.881 16.0578 162.202 15.0914C163.523 14.0927 165.102 13.6095 166.938 13.6095C168.935 13.6095 170.578 14.0927 171.835 15.0914C173.091 16.0901 173.767 17.4753 173.896 19.2793H159.657Z" fill="#E8481D"/>
</svg>
