<svg width="521" height="603" viewBox="0 0 521 603" fill="none" xmlns="http://www.w3.org/2000/svg">
<path d="M316.461 121.738C366.603 154.987 410.357 193.943 436.359 249.047C459.657 298.232 457.543 345.722 433.767 391.297C429.945 398.668 424.866 404.846 419.217 410.654C402.153 427.625 377.935 425.947 357.019 405.576C332.047 381.44 316.304 351.544 302.431 320.587C283.433 277.975 274.542 233.96 271.724 188.576C271.237 182.958 270.401 175.978 278.471 175.904C286.54 175.829 286.805 182.44 287.123 188.328C291.413 252.467 308.64 313.247 345.954 368.863C352.028 377.723 358.388 386.768 366.501 394.297C386.265 412.028 402.34 410.702 415.516 389.697C437.985 353.881 443.216 314.849 429.277 272.486C415.687 231.486 388.506 198.722 356.235 170.236C330.301 146.993 301.665 128.059 270.717 112.171C265.245 109.384 260.513 106.696 257.663 115.076C238.863 166.146 226.262 218.204 230.677 274.47C234.425 323.487 251.554 367.159 292.55 400.92C313.56 417.943 337.548 428.941 362.939 437.062C365.559 438.002 368.062 438.487 370.681 439.427C375.804 440.853 379.174 443.794 378.182 449.211C376.905 454.444 372.818 455.204 367.41 453.594C300.53 434.877 249.912 397.911 226.453 330.441C208.023 277.972 211.815 225.887 223.17 174.537C228.815 148.273 237.365 123.134 247.51 98.6492C251.321 89.377 256.602 88.6324 265.094 92.9989C282.987 101.563 300.205 111.204 316.461 121.738Z" fill="#96C11E" fill-opacity="0.42"/>
<path d="M175.927 462.395C143.684 440.774 119.349 410.367 98.9477 376.869C79.7428 345.272 65.1013 312.12 51.9809 278.448C49.4618 272.308 47.9604 266.451 56.3004 263.957C97.1506 250.937 138.578 240.17 182.956 241.835C184.142 241.851 185.159 242.134 186.345 242.149C191.821 242.312 196.627 243.543 196.89 250.102C197.154 256.661 191.908 257.4 186.883 257.154C149.051 255.216 113.593 263.458 78.3127 273.319C69.5216 275.897 68.1269 278.752 71.7899 287.512C89.9899 330.859 110.214 372.887 140.289 410.016C188.665 468.76 248.384 487.871 318.829 467.699C324.745 465.892 333.231 459.359 337.189 470.188C340.863 480.833 329.794 480.058 323.71 482.133C273.155 496.012 224.088 493.567 175.927 462.395Z" fill="#96C11E" fill-opacity="0.42"/>
<path d="M177.81 324.589C186.212 329.995 194.615 335.4 203.017 340.806C207.499 343.689 209.698 347.689 206.598 351.972C204.109 355.911 199.867 355.767 195.832 352.802C171.962 336.338 147.315 320.481 119.91 310.237C115.211 308.322 113.291 304.502 115.054 300.465C117.034 295.461 121.442 295.343 126.141 297.258C144.542 304.295 161.451 313.696 177.81 324.589Z" fill="#96C11E" fill-opacity="0.42"/>
</svg>
