<svg width="376" height="133" viewBox="0 0 376 133" fill="none" xmlns="http://www.w3.org/2000/svg">
<path d="M39.3066 92.75C39.3066 91.6419 39.1419 90.6536 38.8125 89.7852C38.4831 88.8867 37.8841 88.0632 37.0156 87.3145C36.1471 86.5658 34.9193 85.8171 33.332 85.0684C31.7448 84.2897 29.6634 83.4961 27.0879 82.6875C24.153 81.7292 21.3529 80.651 18.6875 79.4531C16.0521 78.2253 13.7012 76.8027 11.6348 75.1855C9.56836 73.5684 7.9362 71.6816 6.73828 69.5254C5.57031 67.3691 4.98633 64.8535 4.98633 61.9785C4.98633 59.1934 5.60026 56.6777 6.82812 54.4316C8.05599 52.1855 9.77799 50.2689 11.9941 48.6816C14.2103 47.0645 16.8158 45.8366 19.8105 44.998C22.8053 44.1296 26.0996 43.6953 29.6934 43.6953C34.485 43.6953 38.6927 44.5488 42.3164 46.2559C45.9701 47.9329 48.8151 50.2988 50.8516 53.3535C52.888 56.3783 53.9062 59.8971 53.9062 63.9102H39.3516C39.3516 62.1432 38.9772 60.5859 38.2285 59.2383C37.5098 57.8607 36.4017 56.7826 34.9043 56.0039C33.4368 55.2253 31.5951 54.8359 29.3789 54.8359C27.2227 54.8359 25.4108 55.1654 23.9434 55.8242C22.5059 56.4531 21.4128 57.3216 20.6641 58.4297C19.9453 59.5378 19.5859 60.7507 19.5859 62.0684C19.5859 63.1165 19.8555 64.0749 20.3945 64.9434C20.9635 65.7819 21.7721 66.5755 22.8203 67.3242C23.8984 68.043 25.2161 68.7318 26.7734 69.3906C28.3307 70.0495 30.1126 70.6784 32.1191 71.2773C35.623 72.3854 38.7227 73.6133 41.418 74.9609C44.1432 76.3086 46.4342 77.8359 48.291 79.543C50.1478 81.25 51.5404 83.1816 52.4688 85.3379C53.4271 87.4941 53.9062 89.9349 53.9062 92.6602C53.9062 95.5651 53.3372 98.1406 52.1992 100.387C51.0911 102.633 49.474 104.549 47.3477 106.137C45.2513 107.694 42.7357 108.877 39.8008 109.686C36.8659 110.494 33.5866 110.898 29.9629 110.898C26.6686 110.898 23.4193 110.479 20.2148 109.641C17.0104 108.772 14.1055 107.454 11.5 105.688C8.92448 103.921 6.85807 101.674 5.30078 98.9492C3.77344 96.194 3.00977 92.9297 3.00977 89.1562H17.6543C17.6543 91.1328 17.9388 92.8099 18.5078 94.1875C19.0768 95.5352 19.8854 96.6283 20.9336 97.4668C22.0117 98.3053 23.3145 98.9043 24.8418 99.2637C26.3691 99.623 28.0762 99.8027 29.9629 99.8027C32.1491 99.8027 33.916 99.5033 35.2637 98.9043C36.6413 98.2754 37.6595 97.4219 38.3184 96.3438C38.9772 95.2656 39.3066 94.0677 39.3066 92.75ZM77.1758 44.5938V110H62.5312V44.5938H77.1758ZM116.258 44.5938L90.6523 77.2969L75.7383 93.4688L73.0879 79.8574L82.9258 65.752L98.2891 44.5938H116.258ZM99.2773 110L81.2188 80.127L92.3594 71.457L116.617 110H99.2773ZM136.787 44.5938V110H122.188V44.5938H136.787ZM191.277 98.6797V110H158.26V98.6797H191.277ZM163.246 44.5938V110H148.602V44.5938H163.246ZM241.141 98.6797V110H208.123V98.6797H241.141ZM213.109 44.5938V110H198.465V44.5938H213.109ZM282.244 92.75C282.244 91.6419 282.079 90.6536 281.75 89.7852C281.421 88.8867 280.822 88.0632 279.953 87.3145C279.085 86.5658 277.857 85.8171 276.27 85.0684C274.682 84.2897 272.601 83.4961 270.025 82.6875C267.09 81.7292 264.29 80.651 261.625 79.4531C258.99 78.2253 256.639 76.8027 254.572 75.1855C252.506 73.5684 250.874 71.6816 249.676 69.5254C248.508 67.3691 247.924 64.8535 247.924 61.9785C247.924 59.1934 248.538 56.6777 249.766 54.4316C250.993 52.1855 252.715 50.2689 254.932 48.6816C257.148 47.0645 259.753 45.8366 262.748 44.998C265.743 44.1296 269.037 43.6953 272.631 43.6953C277.423 43.6953 281.63 44.5488 285.254 46.2559C288.908 47.9329 291.753 50.2988 293.789 53.3535C295.826 56.3783 296.844 59.8971 296.844 63.9102H282.289C282.289 62.1432 281.915 60.5859 281.166 59.2383C280.447 57.8607 279.339 56.7826 277.842 56.0039C276.374 55.2253 274.533 54.8359 272.316 54.8359C270.16 54.8359 268.348 55.1654 266.881 55.8242C265.443 56.4531 264.35 57.3216 263.602 58.4297C262.883 59.5378 262.523 60.7507 262.523 62.0684C262.523 63.1165 262.793 64.0749 263.332 64.9434C263.901 65.7819 264.71 66.5755 265.758 67.3242C266.836 68.043 268.154 68.7318 269.711 69.3906C271.268 70.0495 273.05 70.6784 275.057 71.2773C278.561 72.3854 281.66 73.6133 284.355 74.9609C287.081 76.3086 289.372 77.8359 291.229 79.543C293.085 81.25 294.478 83.1816 295.406 85.3379C296.365 87.4941 296.844 89.9349 296.844 92.6602C296.844 95.5651 296.275 98.1406 295.137 100.387C294.029 102.633 292.411 104.549 290.285 106.137C288.189 107.694 285.673 108.877 282.738 109.686C279.803 110.494 276.524 110.898 272.9 110.898C269.606 110.898 266.357 110.479 263.152 109.641C259.948 108.772 257.043 107.454 254.438 105.688C251.862 103.921 249.796 101.674 248.238 98.9492C246.711 96.194 245.947 92.9297 245.947 89.1562H260.592C260.592 91.1328 260.876 92.8099 261.445 94.1875C262.014 95.5352 262.823 96.6283 263.871 97.4668C264.949 98.3053 266.252 98.9043 267.779 99.2637C269.307 99.623 271.014 99.8027 272.9 99.8027C275.087 99.8027 276.854 99.5033 278.201 98.9043C279.579 98.2754 280.597 97.4219 281.256 96.3438C281.915 95.2656 282.244 94.0677 282.244 92.75ZM305.469 103.352C305.469 101.315 306.188 99.6081 307.625 98.2305C309.092 96.8529 310.994 96.1641 313.33 96.1641C315.696 96.1641 317.583 96.8529 318.99 98.2305C320.428 99.6081 321.146 101.315 321.146 103.352C321.146 105.358 320.428 107.05 318.99 108.428C317.583 109.805 315.696 110.494 313.33 110.494C310.994 110.494 309.092 109.805 307.625 108.428C306.188 107.05 305.469 105.358 305.469 103.352ZM305.469 66.875C305.469 64.8385 306.188 63.1315 307.625 61.7539C309.092 60.3763 310.994 59.6875 313.33 59.6875C315.696 59.6875 317.583 60.3763 318.99 61.7539C320.428 63.1315 321.146 64.8385 321.146 66.875C321.146 68.8815 320.428 70.5736 318.99 71.9512C317.583 73.3288 315.696 74.0176 313.33 74.0176C310.994 74.0176 309.092 73.3288 307.625 71.9512C306.188 70.5736 305.469 68.8815 305.469 66.875Z" fill="#628D3C"/>
<rect x="97" y="120" width="279" height="6" fill="#DEE7D5"/>
<path d="M148.541 89.5035C146.141 83.2035 152.541 78.6035 157.441 76.2035C163.941 73.1035 170.741 70.6035 177.541 68.2035C191.441 63.1035 205.641 58.5035 219.341 53.1035C231.041 48.5035 243.941 43.6035 252.741 34.1035C254.741 31.9035 256.541 29.5035 257.941 26.9035C258.241 26.2035 258.641 25.6035 258.841 24.9035C259.041 24.5035 259.241 23.6035 259.541 23.3035C259.741 23.1035 259.341 23.3035 259.441 23.3035C259.641 23.2035 260.241 23.5035 260.441 23.6035C261.541 23.9035 262.641 24.2035 263.741 24.4035C271.141 26.2035 278.741 27.6035 286.441 27.7035C293.241 27.8035 301.141 27.3035 306.341 22.4035C312.141 17.0035 311.141 8.8035 309.741 1.8035C309.441 0.5035 307.941 -0.296497 306.641 0.103503C305.241 0.503503 304.641 1.80351 304.941 3.20351C306.041 8.50351 307.241 15.5035 302.341 19.4035C297.641 23.0035 290.641 22.9035 285.041 22.7035C277.541 22.4035 270.041 20.9035 262.741 19.0035C260.941 18.5035 259.141 17.9035 257.341 18.8035C255.641 19.6035 255.041 21.2035 254.341 22.8035C253.241 25.3035 251.741 27.7035 250.041 29.7035C246.241 34.1035 241.341 37.4035 236.241 40.2035C230.341 43.4035 224.041 46.0035 217.841 48.4035C203.941 53.9035 189.741 58.5035 175.741 63.6035C171.941 65.0035 168.041 66.5035 164.241 68.0035C160.441 69.5035 156.541 71.0035 153.041 72.9035C149.841 74.6035 146.841 77.0035 144.941 80.2035C143.141 83.4035 142.341 87.3035 143.641 90.8035C144.141 92.1035 145.341 92.9035 146.741 92.5035C148.041 92.2035 149.041 90.8035 148.541 89.5035Z" fill="#163F22"/>
</svg>
