<svg width="129" height="58" viewBox="0 0 129 58" fill="none" xmlns="http://www.w3.org/2000/svg">
<path d="M14.5275 21.243C11.204 20.1466 8.6 18.639 6.68127 16.7203C4.76255 14.8016 3.80318 12.4717 3.80318 9.76494C3.80318 7.09243 4.76255 4.79681 6.68127 2.87809C8.6 0.95936 10.9299 0 13.6366 0C16.3434 0 18.6733 0.95936 20.592 2.87809C21.6542 3.90597 22.408 5.07092 22.7849 6.33864L20.4207 7.26374C20.0781 6.30438 19.4956 5.44781 18.7076 4.65976C17.3028 3.25498 15.5896 2.56972 13.6024 2.56972C11.6151 2.56972 9.90199 3.25498 8.49721 4.65976C7.09243 6.06454 6.3729 7.77769 6.3729 9.7992C6.3729 11.7865 7.09243 13.4996 8.49721 14.9044C9.7992 16.2064 11.6494 17.4056 13.945 18.4677C17.6454 19.6669 20.7976 21.5514 23.3331 24.0868C26.0398 26.7594 27.3761 29.9801 27.3761 33.7833C27.3761 37.5865 26.0398 40.8414 23.3331 43.5482C20.6263 46.255 17.4056 47.5912 13.6024 47.5912C9.7992 47.5912 6.57848 46.2207 3.87171 43.5139C1.71314 41.3554 0.445418 38.8542 0 36.0104L2.46693 35.1195C2.74103 37.6207 3.80318 39.8478 5.68765 41.698C7.88047 43.8908 10.5187 44.9872 13.5681 44.9872C16.6518 44.9872 19.3243 43.8908 21.4829 41.698C23.6757 39.5052 24.7721 36.8669 24.7721 33.7833C24.7721 30.6996 23.6757 28.0614 21.4829 25.9028C19.6669 23.9155 17.337 22.408 14.5275 21.243Z" fill="#181818"/>
<path d="M37.3124 18.4677V6.33862H39.9164V18.4677H45.7068V21.0717H39.9164V46.9745H37.3124V21.0717H31.522V18.4677H37.3124Z" fill="#181818"/>
<path d="M62.9409 44.4051L56.4994 57.8361H53.9297L61.6389 41.6983L50.5034 18.468H53.45L62.9066 38.923L72.3632 18.468H75.3098L62.9409 44.4051Z" fill="#181818"/>
<path d="M84.4924 0.513794V46.9744H81.8884V0.513794H84.4924Z" fill="#181818"/>
<path d="M98.6088 41.6291C101.076 43.8905 103.988 44.9869 107.38 44.9869C111.012 44.9869 114.13 43.6849 116.7 41.1152C117.042 40.7725 117.351 40.4642 117.625 40.0873L120.366 41.0809C119.852 41.7662 119.304 42.4514 118.653 43.0681C115.535 46.1861 111.766 47.7279 107.346 47.7279C102.96 47.7279 99.1913 46.1861 96.0733 43.0681C92.9554 39.9502 91.4136 36.1813 91.4136 31.7614C91.4136 27.3757 92.9554 23.6068 96.0733 20.4889C99.1913 17.3709 102.96 15.8291 107.346 15.8291C111.115 15.8291 114.404 16.9598 117.248 19.2211C117.728 19.598 118.173 20.0434 118.653 20.4889C118.824 20.6602 118.995 20.8315 119.132 21.0028L117.145 22.9901L98.6088 41.6291ZM115.295 21.2769C113.033 19.5295 110.395 18.6729 107.414 18.6729C103.782 18.6729 100.699 19.9407 98.1291 22.5104C95.5594 25.0801 94.2574 28.1638 94.2574 31.8299C94.2574 34.845 95.114 37.449 96.8614 39.7104L115.295 21.2769Z" fill="#181818"/>
<path d="M128.246 42.9316C128.76 43.4456 129 44.0281 129 44.7476C129 45.4671 128.76 46.1181 128.246 46.5978C127.732 47.1117 127.115 47.3516 126.396 47.3516C125.676 47.3516 125.06 47.1117 124.546 46.5978C124.032 46.0838 123.792 45.4671 123.792 44.7476C123.792 44.0281 124.032 43.4113 124.546 42.9316C125.06 42.4177 125.676 42.1779 126.396 42.1779C127.115 42.1779 127.732 42.452 128.246 42.9316Z" fill="#181818"/>
</svg>
