<svg width="1440" height="488" viewBox="0 0 1440 488" fill="none" xmlns="http://www.w3.org/2000/svg">
<path d="M470.395 381.419C470.37 382.231 470.327 383.622 470.28 385.13C470.226 386.87 469.382 388.008 467.65 387.962C465.803 387.913 465.146 386.734 465.084 384.992C465.098 380.813 465.109 376.751 464.43 372.555C459.877 344.228 437.637 323.555 409.046 321.4C399.247 320.674 389.303 320.873 379.665 318.643C377.601 318.124 377.8 319.174 377.988 320.571C380.79 342.003 385.573 362.907 397.129 381.555C404.285 393.004 413.353 402.416 427 405.798C432.964 407.233 438.863 407.042 444.806 405.46C446.787 404.932 449.124 404.066 449.85 406.755C450.796 409.798 448.01 410.188 446.03 410.716C429.144 414.908 414.971 409.888 403.095 397.848C390.992 385.686 384.297 370.534 379.366 354.385C375.587 342.097 373.32 329.501 372.099 316.7C371.564 311.579 372.621 311.027 377.427 312.548C384.066 314.582 390.98 315.23 397.907 315.415C408.991 315.711 419.939 316.699 430.316 321.154C454.618 331.204 470.634 355.077 470.395 381.419Z" fill="#96C11E" fill-opacity="0.42"/>
<path d="M414.348 296.592C413.663 300.054 413.108 303.056 412.553 306.058C412.265 307.906 411.634 309.63 409.333 309.336C407.033 309.043 406.74 307.295 407.144 305.449C407.976 300.947 408.805 296.56 409.868 292.064C410.413 289.41 412.298 288.184 414.552 289.984C422.555 296.347 432.046 299.384 441.288 302.995C458.973 309.964 472.472 321.578 480.122 339.3C486.914 354.912 487.111 370.927 481.761 387.027C481.509 387.716 481.26 388.29 481.011 388.863C480.262 390.7 479.295 392.066 477.128 391.196C475.076 390.329 475.357 388.713 475.995 386.757C479.139 378.488 480.674 369.944 479.905 361.222C477.558 336.331 464.578 319.163 442.021 309.164C433.132 305.33 423.399 302.634 414.348 296.592Z" fill="#96C11E" fill-opacity="0.42"/>
<path d="M494.725 409.645C456.818 405.148 426.951 387.503 405.741 355.449C403.643 352.256 401.902 348.724 400.038 345.421C399.164 343.771 398.756 342.017 400.872 340.912C403.103 339.809 403.981 341.343 404.855 342.993C410.958 355.007 418.954 365.678 428.968 374.66C447.865 391.779 469.874 401.778 495.244 404.081C497.32 404.253 499.046 404.531 499.083 407.088C499.029 408.83 497.498 409.718 494.725 409.645Z" fill="#96C11E" fill-opacity="0.42"/>
<rect width="1478" height="488" fill="#58852F" fill-opacity="0.2"/>
</svg>
