<svg width="182" height="53" viewBox="0 0 182 53" fill="none" xmlns="http://www.w3.org/2000/svg">
<path d="M0 33.4199H6.08289V20.6053H18.2487V15.2253H6.08289V7.52036H20.2222V2.14038H0V33.4199Z" fill="#E53212"/>
<path d="M33.7399 9.19653C31.6311 9.19653 29.7387 9.7102 28.0895 10.7375C26.4404 11.7649 25.1157 13.2248 24.1965 15.0902C23.3043 16.9286 22.8447 19.0103 22.8447 21.2812V21.5516C22.8447 25.1743 23.845 28.1481 25.8456 30.365C27.8732 32.6359 30.5497 33.7984 33.7939 33.7984C35.9297 33.7984 37.8762 33.2848 39.5254 32.2304C41.2015 31.2031 42.4992 29.7161 43.3914 27.8778C44.2565 26.0664 44.7161 24.0117 44.7161 21.7408V21.4705C44.7161 17.8207 43.7158 14.8469 41.7152 12.6029C39.6876 10.359 37.0111 9.19653 33.7399 9.19653ZM38.3899 24.5795C37.9303 24.1199 37.3085 23.8225 36.6326 23.8225C35.2809 23.8225 34.1724 24.9309 34.1724 26.2827C34.1724 27.1208 34.605 27.8778 35.2538 28.3103C34.7942 28.4455 34.3346 28.5536 33.7939 28.5536C32.28 28.5536 31.1175 27.9859 30.2253 26.8234C29.2791 25.5798 28.7924 23.8766 28.7924 21.7408C28.7924 19.3076 29.2791 17.4422 30.2253 16.1986C31.1175 15.0361 32.28 14.4684 33.7399 14.4684C35.2538 14.4684 36.4163 15.0361 37.3355 16.2256C38.3088 17.4963 38.7954 19.1995 38.7954 21.2812C38.7954 22.5519 38.6602 23.6333 38.3899 24.5795Z" fill="#E53212"/>
<path d="M59.2609 9.19653C57.1521 9.19653 55.2597 9.7102 53.6105 10.7375C51.9614 11.7649 50.6367 13.2248 49.7175 15.0902C48.8253 16.9286 48.3657 19.0103 48.3657 21.2812V21.5516C48.3657 25.1743 49.366 28.1481 51.3666 30.365C53.3942 32.6359 56.0707 33.7984 59.3149 33.7984C61.4507 33.7984 63.3972 33.2848 65.0464 32.2304C66.7225 31.2031 68.0202 29.7161 68.9124 27.8778C69.7775 26.0664 70.2371 24.0117 70.2371 21.7408V21.4705C70.2371 17.8207 69.2368 14.8469 67.2362 12.6029C65.2086 10.359 62.5321 9.19653 59.2609 9.19653ZM63.8027 24.8769C63.3702 24.228 62.6132 23.8225 61.7751 23.8225C60.4234 23.8225 59.3149 24.9309 59.3149 26.2827C59.3149 27.1748 59.8015 27.9589 60.5315 28.3914C60.153 28.4996 59.7475 28.5536 59.3149 28.5536C57.801 28.5536 56.6385 27.9859 55.7463 26.8234C54.8001 25.5798 54.3134 23.8766 54.3134 21.7408C54.3134 19.3076 54.8001 17.4422 55.7463 16.1986C56.6385 15.0361 57.801 14.4684 59.2609 14.4684C60.7748 14.4684 61.9373 15.0361 62.8565 16.2256C63.8298 17.4963 64.3164 19.1995 64.3164 21.2812C64.3164 22.687 64.1272 23.8766 63.8027 24.8769Z" fill="#E53212"/>
<path d="M88.4858 10.4943C87.1071 9.65623 85.485 9.22366 83.6195 9.22366C80.7268 9.22366 78.3747 10.3862 76.5634 12.6841C74.8331 14.901 73.968 17.8208 73.968 21.3624V21.6328C73.968 25.1743 74.8331 28.0941 76.5634 30.338C78.3477 32.6631 80.6997 33.8526 83.5655 33.8526C85.5931 33.8526 87.3504 33.366 88.7832 32.3927L88.8643 33.4471H94.4065V0.54541H88.4858V10.4943ZM88.4858 26.1206C87.5937 27.6886 86.323 28.4186 84.4847 28.4186C83.0788 28.4186 81.9974 27.8779 81.2134 26.7964C80.3483 25.6069 79.9157 23.9037 79.9157 21.7139C79.9157 19.2266 80.3483 17.3612 81.2134 16.1717C81.9974 15.0632 83.0788 14.5496 84.5387 14.5496C86.323 14.5496 87.5937 15.2525 88.4858 16.7664V26.1206Z" fill="#E53212"/>
<path d="M100.3 33.366H103.058V18.0101H118.359V15.685H103.058V2.89746H120.603V0.54541H100.3V33.366Z" fill="#E53212"/>
<path d="M134.067 8.52051C132.174 8.52051 130.417 9.06121 128.795 10.1426C127.173 11.224 125.902 12.6839 125.01 14.5764C124.091 16.4418 123.658 18.5505 123.658 20.9026V21.8758C123.658 24.1468 124.118 26.2014 125.064 28.0128C125.983 29.8241 127.308 31.257 128.984 32.2843C130.661 33.3117 132.526 33.8253 134.608 33.8253C138.366 33.8253 141.258 32.3925 143.232 29.5267L141.556 28.2561C140.664 29.4186 139.663 30.2567 138.555 30.7704C137.446 31.284 136.176 31.5544 134.743 31.5544C132.337 31.5544 130.336 30.6352 128.768 28.7968C127.173 26.9584 126.389 24.6604 126.389 21.9029V21.3892H143.718V19.8752C143.718 16.3877 142.853 13.6301 141.123 11.6025C139.393 9.54784 137.041 8.52051 134.067 8.52051ZM141.042 19.0642H126.416C126.713 16.5499 127.552 14.5493 128.957 13.0624C130.336 11.5755 132.066 10.8455 134.094 10.8455C136.122 10.8455 137.798 11.5755 139.041 13.0624C140.285 14.5493 140.961 16.4418 141.042 18.7938V19.0642Z" fill="#E53212"/>
<path d="M162.778 21.5245C161.589 20.9027 159.831 20.3079 157.452 19.7402C155.1 19.1724 153.451 18.5777 152.559 17.9018C151.667 17.2259 151.207 16.2797 151.207 15.0631C151.207 13.7925 151.748 12.7651 152.829 11.9811C153.911 11.1971 155.317 10.7916 157.101 10.7916C158.912 10.7916 160.426 11.2512 161.616 12.1974C162.805 13.1436 163.4 14.3332 163.4 15.766H166.104C166.104 13.6032 165.293 11.8459 163.643 10.4942C161.994 9.14243 159.804 8.46655 157.101 8.46655C154.587 8.46655 152.532 9.08836 150.937 10.359C149.342 11.6026 148.531 13.1977 148.531 15.1172C148.531 16.3338 148.828 17.3611 149.396 18.2262C149.964 19.0913 150.856 19.7942 152.045 20.389C153.235 20.9838 154.911 21.4974 157.074 21.957C159.237 22.4166 160.859 23.0384 161.94 23.8495C163.022 24.6605 163.562 25.7419 163.562 27.0667C163.562 28.3373 162.995 29.3646 161.832 30.2027C160.67 31.0408 159.156 31.4463 157.29 31.4463C155.29 31.4463 153.667 31.0138 152.424 30.1216C151.207 29.2565 150.531 28.0129 150.423 26.4449H147.72C147.72 28.5536 148.612 30.2838 150.369 31.6626C152.126 33.0414 154.424 33.7173 157.263 33.7173C159.94 33.7173 162.102 33.0955 163.752 31.8789C165.401 30.6353 166.239 29.0132 166.239 26.9585C166.239 25.6879 165.941 24.6335 165.374 23.7414C164.833 22.9303 163.968 22.1463 162.778 21.5245Z" fill="#E53212"/>
<path d="M181.865 31.2302C180.865 31.3924 180.135 31.4465 179.675 31.4465C178.54 31.4465 177.728 31.1221 177.242 30.4462C176.755 29.7974 176.512 28.7701 176.512 27.4183V11.1702H181.567V8.95335H176.512V2.70825H173.808V8.95335H169.321V11.1702H173.808V27.4453C173.808 29.527 174.241 31.1221 175.079 32.1765C175.917 33.2579 177.269 33.7986 179.107 33.7986C180.324 33.7986 181.297 33.6634 182 33.4201L181.865 31.2302Z" fill="#E53212"/>
<path d="M22.3579 39.2329C25.8184 42.5853 29.6303 45.2888 33.6586 47.2894C37.6868 49.2629 41.9854 50.3984 46.311 50.3984C48.4738 50.4525 50.6095 50.128 52.7183 49.5873C53.7726 49.3711 54.827 48.9655 55.8543 48.6141L57.3954 47.9652C57.909 47.776 58.4227 47.5327 58.9093 47.2623C62.9375 45.2347 66.6684 42.423 70.264 39.2599C67.2631 43.18 63.6675 46.5324 59.6122 48.9655C58.6119 49.6414 57.5305 50.101 56.4762 50.6147C55.3947 51.0472 54.3134 51.5339 53.1779 51.8042C50.934 52.4801 48.636 52.8045 46.311 52.8045C41.6609 52.7775 37.065 51.4257 33.0097 48.9926C28.9004 46.5864 25.1966 43.3152 22.3579 39.2329Z" fill="#E53212"/>
</svg>
