<svg width="541" height="638" viewBox="0 0 541 638" fill="none" xmlns="http://www.w3.org/2000/svg">
<path d="M119.182 173.046C129.292 160.123 139.18 146.179 150.932 133.526C155.654 128.566 160.644 127.257 166.255 132.443C213.252 177.556 253.974 226.553 275.073 288.382C299.832 360.977 278.398 429.735 217.953 471.906C213.408 475.255 208.064 479.785 202.231 473.579C195.976 466.648 201.83 462.038 206.775 458.099C243.627 429.909 268.281 394.138 267.542 344.677C266.914 301.791 249.39 263.663 225.966 227.514C209.686 202.376 189.968 179.622 169.142 157.834C161.645 150.042 157.454 150.172 150.847 158.591C115.483 202.106 89.4999 249.953 85.7831 308.023C82.6193 356.514 101.608 396.522 141.418 427.994C165.26 446.673 182.379 442.935 190.092 415.356C203.989 366.502 199.458 316.581 185.014 267.158C180.776 252.527 175.008 238.136 169.44 223.45C167.088 217.489 165.446 211.154 172.564 208.72C179.172 206.366 182.633 211.362 184.873 216.812C212.114 278.997 223.411 341.835 211.823 406.149C210.228 414.574 207.812 422.864 204.575 431.018C193.469 457.547 168.744 465.113 143.195 448.284C95.9339 417.716 71.268 374.642 69.5301 320.591C68.0804 265.44 89.983 218.233 119.182 173.046Z" fill="#96C11E" fill-opacity="0.42"/>
<path d="M454.898 456.624C428.233 495.367 395.287 525.86 345.674 533.106C315.765 537.529 287.096 530.676 259.846 517.004C254.277 514.446 247.975 510.948 251.124 503.595C254.274 496.241 260.975 499.149 266.345 502.001C331.674 534.245 386.365 512.746 427.296 464.379C434.617 455.58 440.584 445.41 447.284 436.181C450.279 431.754 449.724 429.202 445.064 425.975C402.279 395.476 357.388 373.486 304.581 385.455C299.278 386.55 293.753 386.624 291.8 380.07C289.313 372.28 295.104 369.79 301.117 368.32C329.251 361.8 357.343 364.786 385.346 374.646C412.529 384.371 437.027 398.738 459.951 416.782C469.804 424.473 471.669 431.832 464.769 441.357C461.575 446.079 458.491 451.311 454.898 456.624Z" fill="#96C11E" fill-opacity="0.42"/>
<path d="M398.747 336.152C395.451 340.352 393.858 342.706 391.956 344.846C388.549 348.537 384.081 349.763 379.633 346.251C375.186 342.738 375.517 338.214 378.503 333.8C407.811 293.165 405.702 247.192 395.297 199.363C393.636 191.73 390.937 188.996 382.486 190.057C345.031 195.663 309.701 206.198 281.984 232.378C277.87 236.443 273.224 239.275 267.825 233.807C262.426 228.339 266.12 223.551 270.036 219.78C291.625 199.297 317.84 186.77 346.998 179.307C361.931 175.389 377.196 172.997 392.793 172.131C399.518 171.603 404.85 173.135 406.909 180.179C423.975 235.647 427.434 289.037 398.747 336.152Z" fill="#96C11E" fill-opacity="0.42"/>
<path d="M284.621 463.368C279.306 457.092 279.195 450.528 286.213 448.902C309.923 444.133 333.966 440.892 358.208 437.356C362.791 436.638 366.621 439.724 367.419 444.601C368.217 449.478 365.826 453.012 361.243 453.73C337.621 457.695 314.199 461.366 290.466 464.822C288.429 465.141 286.569 463.853 284.621 463.368Z" fill="#96C11E" fill-opacity="0.42"/>
<path d="M330.529 296.884C325.436 304.378 320.14 312.172 315.047 319.666C311.788 324.462 307.781 328.302 301.238 324.231C295.012 320.379 296.279 315.09 299.742 309.994C310.334 294.407 320.927 278.82 331.316 263.532C334.779 258.436 338.899 255.114 345.035 259.784C351.171 264.455 349.066 269.607 345.807 274.403C340.918 281.597 335.825 289.091 330.529 296.884Z" fill="#96C11E" fill-opacity="0.42"/>
</svg>
