<svg width="134" height="126" viewBox="0 0 134 126" fill="none" xmlns="http://www.w3.org/2000/svg">
<path d="M101.55 93.488C101.526 94.298 101.486 95.6867 101.443 97.191C101.393 98.9269 100.55 100.061 98.8142 100.011C96.9626 99.9577 96.3016 98.7805 96.2357 97.0414C96.2398 92.8721 96.2405 88.8185 95.5502 84.6292C90.9195 56.3525 68.5821 35.674 39.923 33.4604C30.1 32.7148 20.1346 32.8916 10.4705 30.645C8.40083 30.1222 8.60234 31.1703 8.79386 32.5656C11.6535 53.9582 16.497 74.8288 28.1222 93.4621C35.3215 104.903 44.4321 114.315 58.1165 117.719C64.0975 119.165 70.0093 118.988 75.961 117.422C77.9449 116.899 80.2859 116.04 81.0195 118.725C81.9745 121.764 79.1838 122.147 77.1999 122.669C60.2872 126.815 46.0708 121.774 34.1403 109.734C21.9816 97.5708 15.2359 82.4365 10.2561 66.3105C6.43934 54.04 4.13699 41.4656 2.88278 28.6896C2.33481 23.5779 3.39293 23.0292 8.21333 24.5576C14.872 26.602 21.802 27.2645 28.7453 27.4641C39.8546 27.7834 50.8282 28.7938 61.2391 33.2624C85.6184 43.3444 101.726 67.2025 101.55 93.488Z" fill="#96C11E" fill-opacity="0.42"/>
<path d="M45.1546 8.59449C44.4762 12.0495 43.9268 15.045 43.3774 18.0404C43.0928 19.8853 42.4643 21.6045 40.1565 21.3066C37.8487 21.0086 37.5515 19.2628 37.9518 17.4212C38.7759 12.928 39.5966 8.55056 40.6521 4.06402C41.1915 1.41573 43.0797 0.196017 45.3442 1.99838C53.3841 8.36779 62.9092 11.4212 72.1862 15.0466C89.9368 22.0426 103.501 33.6667 111.215 51.3769C118.063 66.9774 118.298 82.967 112.972 99.0283C112.721 99.716 112.473 100.288 112.225 100.86C111.477 102.691 110.511 104.054 108.336 103.18C106.276 102.31 106.554 100.697 107.189 98.7463C110.322 90.4975 111.841 81.9707 111.049 73.2616C108.636 48.4073 95.5792 31.2385 72.9357 21.2064C64.0125 17.3596 54.246 14.6467 45.1546 8.59449Z" fill="#96C11E" fill-opacity="0.42"/>
<path d="M125.873 121.636C87.9004 117.07 57.9479 99.4153 36.6308 67.4161C34.5219 64.2284 32.7701 60.7035 30.896 57.4068C30.0168 55.7601 29.6038 54.0109 31.7201 52.9136C33.952 51.8196 34.8346 53.3506 35.7138 54.9973C41.8549 66.9872 49.8875 77.6416 59.9373 86.6168C78.9029 103.724 100.968 113.739 126.38 116.091C128.46 116.267 130.189 116.548 130.231 119.097C130.181 120.833 128.65 121.716 125.873 121.636Z" fill="#96C11E" fill-opacity="0.42"/>
</svg>
