<?xml version="1.0" encoding="UTF-8" standalone="no" ?>
<!DOCTYPE svg PUBLIC "-//W3C//DTD SVG 1.1//EN" "http://www.w3.org/Graphics/SVG/1.1/DTD/svg11.dtd">
<svg xmlns="http://www.w3.org/2000/svg" xmlns:xlink="http://www.w3.org/1999/xlink" version="1.1" width="640" height="480" viewBox="0 0 640 480" xml:space="preserve">
<desc>Created with Fabric.js 3.6.3</desc>
<defs>
</defs>
<g transform="matrix(0.99 0 0 0.99 266 234)"  >
<g style=""   >
		<g transform="matrix(0.58 0 0 0.58 -229.74 -19.77)"  >
<path style="stroke: none; stroke-width: 1; stroke-dasharray: none; stroke-linecap: butt; stroke-dashoffset: 0; stroke-linejoin: miter; stroke-miterlimit: 4; fill: rgb(150,193,30); fill-opacity: 0.42; fill-rule: nonzero; opacity: 1;"  transform=" translate(-47.97, -828.68)" d="M 97.6962 1134.89 L 89.9379 1125.75 C 88.0839 1123.37 -109.199 885.775 62.6975 534.383 L 68.5037 522.476 L 71.1943 533.872 C 71.7913 535.792 119.153 735.471 98.1559 1122.23 L 97.6962 1134.89 Z M 65.154 549.35 C -74.9825 848.509 55.663 1061.49 90.0948 1109.38 C 106.486 785.843 74.5725 597.148 65.154 549.35 Z" stroke-linecap="round" />
</g>
		<g transform="matrix(0.58 0 0 0.58 -12.56 -79.03)"  >
<path style="stroke: none; stroke-width: 1; stroke-dasharray: none; stroke-linecap: butt; stroke-dashoffset: 0; stroke-linejoin: miter; stroke-miterlimit: 4; fill: rgb(150,193,30); fill-opacity: 0.42; fill-rule: nonzero; opacity: 1;"  transform=" translate(-422.41, -726.51)" d="M 390.099 878.431 L 385.857 874.223 C 382.351 870.685 300.227 787.62 468.626 580.781 L 473.586 574.592 L 476.281 580.499 C 477.813 583.62 512.16 661.168 393.268 871.993 L 390.099 878.431 Z M 469.907 592.306 C 335.844 760.309 375.352 842.902 389.213 862.775 C 482.121 695.284 475.131 615.02 469.907 592.306 Z" stroke-linecap="round" />
</g>
		<g transform="matrix(0.58 0 0 0.58 107.27 -8.21)"  >
<path style="stroke: none; stroke-width: 1; stroke-dasharray: none; stroke-linecap: butt; stroke-dashoffset: 0; stroke-linejoin: miter; stroke-miterlimit: 4; fill: rgb(150,193,30); fill-opacity: 0.42; fill-rule: nonzero; opacity: 1;"  transform=" translate(-629.01, -848.6)" d="M 880.727 853.868 C 866.347 864.16 730.867 950.572 376.273 885.116 L 370.205 884.058 L 374.287 878.833 C 375.643 876.972 519.742 698.977 881.696 845.806 L 887.813 848.284 L 881.582 852.927 C 881.765 853.094 881.423 853.471 880.727 853.868 Z M 386.316 877.753 C 698.553 934.197 838.489 869.394 869.994 851.313 C 555.98 726.499 413.064 850.176 386.316 877.753 Z" stroke-linecap="round" />
</g>
		<g transform="matrix(0.58 0 0 0.58 135.98 -105.35)"  >
<path style="stroke: none; stroke-width: 1; stroke-dasharray: none; stroke-linecap: butt; stroke-dashoffset: 0; stroke-linejoin: miter; stroke-miterlimit: 4; fill: rgb(150,193,30); fill-opacity: 0.42; fill-rule: nonzero; opacity: 1;"  transform=" translate(-678.51, -681.14)" d="M 749.669 689.095 C 707.51 718.776 641.441 748.109 539.478 760.312 L 534.863 760.946 L 535.246 756.458 C 535.358 754.487 539.759 705.288 589.499 662.471 C 639.756 619.087 716.29 598.59 817.163 601.634 L 822.159 601.69 L 820.535 606.431 C 819.564 609.347 805.41 649.667 749.669 689.095 Z M 545.045 750.869 C 743.778 725.882 799.296 632.354 809.78 610.114 C 714.468 607.987 642.181 627.514 595.216 668.021 C 557.082 700.675 547.471 738.221 545.045 750.869 Z" stroke-linecap="round" />
</g>
		<g transform="matrix(0.58 0 0 0.58 -217.22 -16.18)"  >
<path style="stroke: none; stroke-width: 1; stroke-dasharray: none; stroke-linecap: butt; stroke-dashoffset: 0; stroke-linejoin: miter; stroke-miterlimit: 4; fill: rgb(150,193,30); fill-opacity: 0.42; fill-rule: nonzero; opacity: 1;"  transform=" translate(-69.56, -834.86)" d="M 95.0519 1116.47 L 86.5154 1121.07 C 10.9807 948.685 59.1849 553.327 59.5782 549.213 L 68.7837 548.659 C 68.2074 552.606 20.4684 945.98 95.0519 1116.47 Z" stroke-linecap="round" />
</g>
		<g transform="matrix(0.58 0 0 0.58 105.96 -0.02)"  >
<path style="stroke: none; stroke-width: 1; stroke-dasharray: none; stroke-linecap: butt; stroke-dashoffset: 0; stroke-linejoin: miter; stroke-miterlimit: 4; fill: rgb(150,193,30); fill-opacity: 0.42; fill-rule: nonzero; opacity: 1;"  transform=" translate(-626.75, -862.76)" d="M 873.861 855.909 C 870.479 855.579 534.289 829.572 378.795 884.992 L 377.102 876.913 C 534.698 820.655 862.353 846.109 876.406 847.219 L 873.861 855.909 Z" stroke-linecap="round" />
</g>
		<g transform="matrix(0.58 0 0 0.58 137.41 -106.53)"  >
<path style="stroke: none; stroke-width: 1; stroke-dasharray: none; stroke-linecap: butt; stroke-dashoffset: 0; stroke-linejoin: miter; stroke-miterlimit: 4; fill: rgb(150,193,30); fill-opacity: 0.42; fill-rule: nonzero; opacity: 1;"  transform=" translate(-680.99, -679.11)" d="M 798.708 623.662 C 759.113 651.607 664.753 713.057 545.11 755.646 L 543.407 747.525 C 699.747 691.646 812.672 603.516 813.533 602.57 L 818.568 608.882 C 818.396 609.071 811.435 614.495 798.708 623.662 Z" stroke-linecap="round" />
</g>
		<g transform="matrix(0.58 0 0 0.58 -0.24 97.71)"  >
<path style="stroke: none; stroke-width: 1; stroke-dasharray: none; stroke-linecap: butt; stroke-dashoffset: 0; stroke-linejoin: miter; stroke-miterlimit: 4; fill: rgb(150,193,30); fill-opacity: 0.42; fill-rule: nonzero; opacity: 1;"  transform=" translate(-443.66, -1031.24)" d="M 775.496 1030.2 L 763.325 1032.53 C 347.965 1113.94 124.268 1103.55 122.13 1103.33 L 111.818 1102.88 L 120.815 1095.93 C 453.149 837.66 762.989 1022.59 766.25 1024.53 L 775.496 1030.2 Z M 135.161 1094.89 C 183.486 1095.9 394.91 1095.1 750.157 1026.39 C 695.226 998.016 425.009 877.078 135.161 1094.89 Z" stroke-linecap="round" />
</g>
		<g transform="matrix(0.58 0 0 0.58 -0.01 112.73)"  >
<path style="stroke: none; stroke-width: 1; stroke-dasharray: none; stroke-linecap: butt; stroke-dashoffset: 0; stroke-linejoin: miter; stroke-miterlimit: 4; fill: rgb(150,193,30); fill-opacity: 0.42; fill-rule: nonzero; opacity: 1;"  transform=" translate(-444.06, -1057.12)" d="M 751.689 1032.18 C 554.876 992.593 137.672 1098.49 133.626 1099.62 L 132.984 1091.12 C 137.213 1090.15 556.347 983.607 755.128 1023.61 L 751.689 1032.18 Z" stroke-linecap="round" />
</g>
		<g transform="matrix(0.58 0 0 0.58 -118.64 -61.7)"  >
<path style="stroke: none; stroke-width: 1; stroke-dasharray: none; stroke-linecap: butt; stroke-dashoffset: 0; stroke-linejoin: miter; stroke-miterlimit: 4; fill: rgb(150,193,30); fill-opacity: 0.42; fill-rule: nonzero; opacity: 1;"  transform=" translate(-239.5, -756.39)" d="M 192.881 1041.4 L 188.444 1036.67 C 186.225 1034.3 -25.8518 807.7 345.09 477.318 L 351.84 471.379 L 352.461 479.195 C 352.705 481.144 368.053 687.449 196.221 1034.77 L 192.881 1041.4 Z M 343.537 489.37 C 197.761 621.474 125.859 756.274 135.372 879.575 C 141.406 957.927 178.612 1009.41 191.432 1024.89 C 339.66 722.713 344.382 530.194 343.537 489.37 Z" stroke-linecap="round" />
</g>
		<g transform="matrix(0.58 0 0 0.58 -102.13 -61.25)"  >
<path style="stroke: none; stroke-width: 1; stroke-dasharray: none; stroke-linecap: butt; stroke-dashoffset: 0; stroke-linejoin: miter; stroke-miterlimit: 4; fill: rgb(150,193,30); fill-opacity: 0.42; fill-rule: nonzero; opacity: 1;"  transform=" translate(-267.99, -757.15)" d="M 196.604 1031.75 L 187.45 1035.15 C 156.302 883.508 335.875 495.517 343.7 479.159 L 352.151 481.328 C 350.137 485.019 166.079 882.741 196.604 1031.75 Z" stroke-linecap="round" />
</g>
		<g transform="matrix(0.58 0 0 0.58 -104.6 96.78)"  >
<path style="stroke: none; stroke-width: 1; stroke-dasharray: none; stroke-linecap: butt; stroke-dashoffset: 0; stroke-linejoin: miter; stroke-miterlimit: 4; fill: rgb(150,193,30); fill-opacity: 0.42; fill-rule: nonzero; opacity: 1;"  transform=" translate(-263.73, -1029.63)" d="M 536.054 753.54 C 443.049 822.115 349.686 890.711 260.816 964.779 C 178.238 1033.8 101.748 1107.67 31.9381 1187.95 C 15.6912 1206.51 -0.334193 1226.32 -10.5539 1247.93 C -19.9324 1267.87 -18.0666 1285.88 -13.3222 1304.08 C -11.6709 1310.44 -0.338227 1305.82 -1.98954 1299.45 C -7.14071 1279.84 -7.35174 1262.99 4.51068 1242.18 C 15.0125 1223.6 29.3312 1206.41 44.0323 1189.92 C 76.8845 1152.77 110.478 1116.3 146.096 1081.32 C 222.388 1006.93 306.089 939.27 391.135 874.224 C 441.013 836.234 491.459 799.108 541.719 761.814 C 548.382 757.107 542.717 748.833 536.054 753.54 Z" stroke-linecap="round" />
</g>
</g>
</g>
</svg>