<svg width="563" height="260" viewBox="0 0 563 260" fill="none" xmlns="http://www.w3.org/2000/svg">
<path d="M133.499 147.131L108.346 226H85.0669L121.123 128.602H135.84L133.499 147.131ZM154.37 226L129.15 147.131L126.542 128.602H141.459L177.649 226H154.37ZM153.299 189.743V206.601H102.526V189.743H153.299ZM224.676 183.923H199.657L199.523 169.34H220.194C223.851 169.34 226.816 168.894 229.091 168.002C231.41 167.111 233.104 165.817 234.175 164.123C235.245 162.383 235.78 160.243 235.78 157.701C235.78 154.802 235.245 152.461 234.175 150.677C233.104 148.893 231.41 147.6 229.091 146.797C226.816 145.95 223.873 145.526 220.261 145.526H207.551V226H185.743V128.602H220.261C226.103 128.602 231.321 129.137 235.914 130.207C240.507 131.277 244.41 132.927 247.621 135.157C250.876 137.387 253.351 140.174 255.046 143.519C256.741 146.864 257.588 150.811 257.588 155.359C257.588 159.328 256.696 163.03 254.912 166.464C253.173 169.898 250.363 172.685 246.483 174.826C242.604 176.966 237.408 178.126 230.897 178.304L224.676 183.923ZM223.806 226H194.105L201.999 209.143H223.806C227.151 209.143 229.871 208.607 231.967 207.537C234.063 206.467 235.602 205.017 236.583 203.189C237.564 201.361 238.055 199.309 238.055 197.035C238.055 194.359 237.586 192.04 236.65 190.078C235.758 188.115 234.331 186.599 232.369 185.529C230.451 184.458 227.887 183.923 224.676 183.923H205.143L205.276 169.34H229.158L234.242 175.093C240.441 174.959 245.391 175.963 249.092 178.104C252.838 180.2 255.536 182.965 257.187 186.398C258.837 189.832 259.662 193.467 259.662 197.302C259.662 203.635 258.301 208.942 255.581 213.223C252.861 217.46 248.825 220.648 243.473 222.789C238.166 224.93 231.611 226 223.806 226ZM354.986 175.16V179.508C354.986 186.911 353.961 193.556 351.909 199.443C349.902 205.33 347.026 210.347 343.28 214.494C339.578 218.642 335.163 221.83 330.035 224.06C324.951 226.245 319.309 227.338 313.11 227.338C306.911 227.338 301.248 226.245 296.119 224.06C290.991 221.83 286.531 218.642 282.74 214.494C278.994 210.347 276.095 205.33 274.044 199.443C271.993 193.556 270.967 186.911 270.967 179.508V175.16C270.967 167.757 271.993 161.112 274.044 155.226C276.095 149.294 278.972 144.255 282.673 140.107C286.419 135.96 290.857 132.794 295.985 130.608C301.114 128.379 306.778 127.264 312.977 127.264C319.175 127.264 324.839 128.379 329.968 130.608C335.096 132.794 339.511 135.96 343.213 140.107C346.959 144.255 349.858 149.294 351.909 155.226C353.961 161.112 354.986 167.757 354.986 175.16ZM332.978 179.508V175.026C332.978 170.076 332.532 165.706 331.64 161.915C330.748 158.08 329.455 154.869 327.76 152.282C326.066 149.696 323.97 147.756 321.472 146.462C318.975 145.125 316.143 144.456 312.977 144.456C309.676 144.456 306.8 145.125 304.347 146.462C301.894 147.756 299.821 149.696 298.126 152.282C296.476 154.869 295.205 158.08 294.313 161.915C293.466 165.706 293.042 170.076 293.042 175.026V179.508C293.042 184.414 293.466 188.784 294.313 192.62C295.205 196.41 296.498 199.621 298.193 202.252C299.888 204.884 301.961 206.868 304.414 208.206C306.911 209.544 309.81 210.213 313.11 210.213C316.277 210.213 319.086 209.544 321.539 208.206C324.036 206.868 326.132 204.884 327.827 202.252C329.522 199.621 330.793 196.41 331.64 192.62C332.532 188.784 332.978 184.414 332.978 179.508ZM421.68 128.602H443.488V192.553C443.488 200.134 441.882 206.511 438.671 211.685C435.505 216.858 431.09 220.76 425.426 223.391C419.763 226.022 413.207 227.338 405.759 227.338C398.267 227.338 391.667 226.022 385.958 223.391C380.295 220.76 375.835 216.858 372.58 211.685C369.369 206.511 367.763 200.134 367.763 192.553V128.602H389.638V192.553C389.638 196.745 390.262 200.179 391.511 202.854C392.804 205.486 394.655 207.426 397.063 208.674C399.471 209.878 402.37 210.48 405.759 210.48C409.149 210.48 412.025 209.878 414.389 208.674C416.797 207.426 418.603 205.486 419.807 202.854C421.056 200.179 421.68 196.745 421.68 192.553V128.602ZM504.429 128.602V226H482.688V128.602H504.429ZM534.063 128.602V145.526H453.656V128.602H534.063Z" fill="black" fill-opacity="0.12"/>
<path opacity="0.31" d="M60.437 36.2237C88.3644 49.1022 103.51 75.7755 103.51 75.7755C103.51 75.7755 73.3636 81.6118 45.4845 68.7333C17.6053 55.8549 2.41162 29.1816 2.41162 29.1816C2.41162 29.1816 32.5096 23.3453 60.437 36.2237Z" fill="#96C11E"/>
<path opacity="0.31" d="M62.1733 17.7983C62.1733 17.7983 74.28 18.5701 87.4961 21.9465C87.4961 21.9465 105.584 29.9533 111.902 46.7869C118.173 63.5723 118.173 63.5723 118.173 63.5723C118.173 63.5723 103.462 78.3318 84.5056 54.649C84.5056 54.649 72.1577 40.2753 62.1733 17.7983Z" fill="#96C11E"/>
<path opacity="0.31" d="M48.8611 160.522C32.2686 176.825 36.7544 197.952 36.7544 197.952C36.7544 197.952 47.7999 192.598 64.3924 176.295C80.9848 159.992 92.3198 140.168 92.3198 140.168C92.3198 140.168 65.4535 144.219 48.8611 160.522Z" fill="#96C11E"/>
<path opacity="0.31" d="M72.8815 103.847C62.5112 126.324 83.927 149.766 83.927 149.766C83.927 149.766 94.8279 141.18 105.15 118.752C115.472 96.3229 116.244 70.9519 116.244 70.9519C116.244 70.9519 83.2035 81.3704 72.8815 103.847Z" fill="#96C11E"/>
<path opacity="0.31" d="M131.244 64.4408C125.987 71.29 143.11 89.9083 143.11 89.9083C143.11 89.9083 152.612 79.6345 154.734 75.1487C158.4 67.3348 149.428 61.4503 149.428 61.4503C149.428 61.4503 136.502 57.5916 131.244 64.4408Z" fill="#96C11E"/>
<path d="M160.426 74.4249C159.365 73.7978 158.159 73.4119 157.484 71.6273C152.901 59.6653 149.477 57.5912 139.733 59.81C132.691 61.4499 125.939 64.3922 119.234 67.5756C98.8794 77.3189 78.8624 76.4507 58.99 65.1639C46.0151 57.7842 33.9084 48.2821 22.3323 37.4295C16.9301 32.3649 11.6244 27.011 6.2704 21.7535C22.4287 20.5959 38.153 21.5605 53.6361 26.3839C57.0607 27.4451 60.8229 27.2039 63.524 31.1108C71.1449 42.0599 80.3576 50.0667 89.9562 57.1571C96.4195 61.884 103.076 66.1769 110.841 69.5532C109.828 67.4792 109.346 66.418 108.816 65.3569C98.9276 46.4492 84.8434 36.0789 69.4085 28.6027C61.4499 24.744 56.5783 17.0266 54.8901 4.63045C68.1544 9.45384 81.2258 14.4702 93.5255 22.477C105.439 30.2426 113.157 42.9764 116.822 60.437C117.112 61.7876 116.292 64.6816 118.414 63.9581C120.778 63.1864 119.138 60.9676 118.896 59.3276C116.533 44.2787 110.214 32.7508 101.05 24.6475C86.0492 11.335 68.7333 6.46334 51.4173 0C51.8996 9.5503 55.3725 16.6407 59.0865 24.7922C49.0056 20.7406 39.3106 19.2453 29.6638 18.1842C19.8241 17.123 9.93618 17.4124 0 18.0395C0.192935 19.0041 0.192935 19.5347 0.385871 19.7276C13.6984 33.4743 27.1074 47.028 41.867 57.6877C55.903 67.8168 70.4214 75.9683 86.5798 77.5601C98.59 78.7177 109.925 74.6178 121.26 70.1803C129.701 66.8521 137.852 61.884 146.969 62.8487C150.345 63.1864 153.625 64.5369 154.348 69.0709C155.217 74.2801 157.146 77.0295 160.763 78.3318C153.287 78.2353 148.223 80.6953 143.255 88.0268C140.795 91.5961 138.865 95.7442 136.743 99.7476C130.328 111.999 123.093 123.093 113.205 130.231C108.671 133.511 103.944 136.068 98.2041 136.839C112.047 109.829 117.642 93.3325 119.427 74.9072C95.0207 71.5308 66.7557 121.501 65.9839 146.872C70.325 137.418 70.952 125.167 77.753 116.774C75.4378 127.82 74.3284 138.286 75.3413 149.814C90.0526 132.74 102.738 114.845 108.285 88.9432C100.761 89.8597 94.9725 95.2136 87.6409 98.4935C96.1301 86.5798 105.439 80.4058 116.774 78.2353C112.964 100.905 104.764 119.524 94.7795 136.839C94.056 138.045 93.1878 138.576 92.1267 139.106C81.9976 144.219 73.5566 152.901 66.6592 164.188C60.7264 173.883 55.9995 184.687 52.2855 198C67.9615 181.6 81.5635 164.381 93.3808 144.702C94.9725 142 96.6124 140.698 99.1688 140.168C106.259 138.624 112.819 135.055 118.848 129.556C128.302 121.019 135.007 109.105 141.373 96.516C148.03 83.2999 156.905 76.5471 168.674 87.448C168.867 87.5927 169.204 87.3515 169.735 87.2068C167.564 81.4188 164.719 76.9812 160.426 74.4249ZM102.883 61.4017C90.342 54.1184 78.38 45.4363 68.3956 32.3167C81.7082 37.9118 93.6702 46.4974 102.883 61.4017ZM104.667 93.7666C98.9759 113.446 89.1844 128.447 77.8495 142.483C77.0777 112.144 83.3481 101.532 104.667 93.7666ZM60.2441 183.867C68.5886 163.272 80.5023 147.789 89.4256 145.714C80.3094 160.04 70.9038 172.87 60.2441 183.867Z" fill="#163F22"/>
<path d="M148.705 76.6438C149.904 76.6438 150.876 75.672 150.876 74.4733C150.876 73.2745 149.904 72.3027 148.705 72.3027C147.506 72.3027 146.535 73.2745 146.535 74.4733C146.535 75.672 147.506 76.6438 148.705 76.6438Z" fill="#163F22"/>
<path d="M84.5541 180.154C96.7573 163.079 109.057 145.859 123.816 130.859C138.045 116.437 154.541 104.426 172.388 94.8279C183.192 89.0398 194.431 84.1682 206.007 80.1166C207.743 79.4895 207.02 76.692 205.235 77.319C185.122 84.3611 165.828 93.9114 148.367 106.259C131.148 118.414 116.437 133.27 103.414 149.766C95.9855 159.172 88.9916 168.915 82.0459 178.658C80.9848 180.202 83.493 181.649 84.5541 180.154Z" fill="#163F22"/>
<path d="M112.144 134.669C112.289 134.669 112.433 134.669 112.578 134.717C112.433 134.717 112.337 134.669 112.192 134.669C112.482 134.717 112.771 134.766 113.012 134.91C112.916 134.862 112.771 134.814 112.674 134.766C112.964 134.862 113.205 135.055 113.446 135.248C113.35 135.151 113.253 135.103 113.157 135.007C113.398 135.2 113.591 135.393 113.736 135.585C113.639 135.489 113.591 135.393 113.494 135.296C113.591 135.441 113.687 135.585 113.784 135.73C113.977 136.02 114.314 136.309 114.652 136.405C114.99 136.502 115.472 136.454 115.761 136.261C116.437 135.827 116.678 135.007 116.292 134.283C115.472 132.788 113.832 131.823 112.096 131.823C111.71 131.823 111.324 131.968 111.083 132.257C110.842 132.499 110.649 132.933 110.649 133.27C110.649 133.656 110.793 134.042 111.083 134.283C111.372 134.524 111.71 134.717 112.144 134.669Z" fill="#163F22"/>
<path d="M120.826 127.578C121.164 128.013 121.502 128.447 121.791 128.929C121.887 129.074 121.984 129.218 122.177 129.315C122.321 129.46 122.466 129.508 122.659 129.556C122.852 129.604 123.045 129.604 123.238 129.604C123.431 129.604 123.624 129.556 123.769 129.411C123.865 129.315 123.961 129.267 124.058 129.17C124.251 128.977 124.347 128.784 124.444 128.543C124.444 128.398 124.492 128.302 124.492 128.157C124.492 127.916 124.444 127.675 124.299 127.434C123.961 127 123.624 126.566 123.334 126.083C123.238 125.939 123.141 125.794 122.949 125.697C122.804 125.553 122.659 125.504 122.466 125.456C122.273 125.408 122.08 125.408 121.887 125.408C121.694 125.408 121.502 125.456 121.357 125.601C121.26 125.697 121.164 125.746 121.067 125.842C120.874 126.035 120.778 126.228 120.682 126.469C120.682 126.614 120.633 126.71 120.633 126.855C120.633 127.096 120.682 127.337 120.826 127.578Z" fill="#163F22"/>
<path d="M419.1 206.329C419.4 200.129 424.4 195.429 430.4 194.529C437.9 193.529 445.4 196.429 452.5 198.029C459.1 199.529 466.3 200.429 472.9 198.229C475.9 197.229 478.7 195.629 480.9 193.429C483 191.329 484.6 188.829 486.4 186.529C487.8 184.629 489.5 182.629 491.7 181.729C493.2 181.029 494.9 181.029 496.5 180.929C498.5 180.829 500.5 180.629 502.5 180.229C509 179.029 516.6 175.929 520.1 169.929C521.8 167.129 522.6 163.129 520.8 160.129C518.9 156.929 514.8 156.429 511.5 157.529C508.1 158.629 505.4 161.229 505 164.829C504.6 168.429 506.8 171.829 509.7 173.829C513 176.129 517.3 177.129 521.1 177.829C525.4 178.629 529.8 179.029 534.2 179.129C543 179.229 551.8 178.029 560.5 176.829C561.8 176.629 562.6 174.929 562.2 173.729C561.8 172.329 560.5 171.829 559.1 172.029C545.3 173.929 530.7 175.929 517.1 171.729C514.6 170.929 511.5 169.829 510.4 167.229C509.4 164.929 510.7 163.029 512.9 162.329C513.8 162.029 515.4 161.629 516.2 162.329C517 162.929 516.9 164.229 516.7 165.029C516.2 167.529 514.3 169.629 512.3 171.029C509.7 172.829 506.8 174.029 503.8 174.829C500.5 175.729 497.2 175.729 493.9 176.129C490.8 176.529 488.2 177.629 485.8 179.729C483.8 181.529 482.3 183.729 480.7 185.929C479.3 187.929 477.7 189.929 475.7 191.429C473.4 193.029 470.7 194.029 467.9 194.429C461.6 195.429 455.4 193.729 449.3 192.229C441.8 190.329 433.2 187.929 425.6 190.629C418.9 193.029 414.4 199.229 414 206.329C414 209.529 419 209.529 419.1 206.329Z" fill="#58852F"/>
</svg>
