<svg width="531" height="623" viewBox="0 0 531 623" fill="none" xmlns="http://www.w3.org/2000/svg">
<path d="M232.64 483.307L226.918 481.444C225.5 480.914 78.6055 431.209 60.0964 230.857L59.4611 224.073L63.6041 228.31C64.3637 228.984 137.05 303.156 229.518 477.661L232.64 483.307ZM65.0757 236.716C83.4948 405.588 195.368 462.78 222.691 474.259C144.836 328.601 81.6527 254.996 65.0757 236.716Z" fill="#96C11E" fill-opacity="0.42"/>
<path d="M291.226 293.287L288.317 292.613C285.897 292.03 229.159 278.283 246.935 142.536L247.433 138.496L250.126 140.33C251.595 141.269 286.512 165.625 290.895 289.626L291.226 293.287ZM250.493 147.197C237.214 256.716 275.651 281.859 286.757 286.724C282.614 188.631 258.657 155.647 250.493 147.197Z" fill="#96C11E" fill-opacity="0.42"/>
<path d="M496.667 149.097C493.205 157.519 457.818 232.265 288.713 300.685L285.835 301.884L286.213 298.488C286.307 297.305 301.366 180.251 494.968 145.315L498.239 144.723L496.787 148.453C496.909 148.476 496.861 148.733 496.667 149.097ZM291.085 294.727C439.678 233.959 482.641 167.421 491.398 150.918C324.112 182.347 295.313 275.382 291.085 294.727Z" fill="#96C11E" fill-opacity="0.42"/>
<path d="M396.085 114.135C385.867 138.499 365.365 169.218 325.088 202.259L323.286 203.791L322.277 201.737C321.81 200.85 310.835 178.279 320.854 146.145C330.945 113.625 358.216 83.898 402.01 57.7763L404.155 56.4418L404.701 58.9431C405.049 60.4742 409.547 81.8415 396.085 114.135ZM324.994 196.642C403.183 131.719 402.419 75.9835 401.079 63.4691C359.893 88.4761 334.18 116.626 324.741 147.001C317.014 171.562 322.725 190.488 324.994 196.642Z" fill="#96C11E" fill-opacity="0.42"/>
<path d="M226.679 475.933L224.228 480.277C146.63 425.723 63.5735 240.036 62.6629 238.133L66.463 235.374C67.2514 237.253 149.987 421.948 226.679 475.933Z" fill="#96C11E" fill-opacity="0.42"/>
<path d="M494.259 151.849C492.723 152.63 341.833 233.236 289.736 299.943L286.891 296.881C339.67 229.234 486.757 150.721 493.071 147.362L494.259 151.849Z" fill="#96C11E" fill-opacity="0.42"/>
<path d="M399.915 72.4516C390.35 95.3376 366.215 147.645 326.394 198.636L323.55 195.574C375.525 128.844 400.602 59.9141 400.722 59.2698L404.512 60.641C404.488 60.7699 402.941 65.015 399.915 72.4516Z" fill="#96C11E" fill-opacity="0.42"/>
<path d="M498.316 253.126L493.715 257.47C337.188 406.486 238.673 463.098 237.698 463.583L233.164 466.207L235.196 460.718C309.804 257.278 490.964 253.226 492.869 253.18L498.316 253.126ZM241.066 456.343C262.024 443.575 352.352 385.441 486.465 258.388C455.505 261.032 308.087 282.156 241.066 456.343Z" fill="#96C11E" fill-opacity="0.42"/>
<path d="M488.597 260.518C393.942 297.049 243.048 457.245 241.613 458.845L239.109 455.313C240.666 453.736 392.216 292.729 487.823 255.841L488.597 260.518Z" fill="#96C11E" fill-opacity="0.42"/>
<path d="M248.984 417.153L245.854 416.305C244.29 415.881 94.5945 375.121 166.488 130.515L167.815 126.095L170.123 129.324C170.736 130.104 231.203 215.603 248.677 413.363L248.984 417.153ZM168.975 136.176C141.314 233.29 145.873 311.462 182.157 362.468C205.208 394.884 234.537 407.135 244.05 410.37C228.307 238.662 180.005 153.692 168.975 136.176Z" fill="#96C11E" fill-opacity="0.42"/>
<path d="M248.061 411.916L245.047 415.888C192.131 358.457 167.332 140.937 166.395 131.697L170.566 130.34C170.672 132.492 196.102 355.462 248.061 411.916Z" fill="#96C11E" fill-opacity="0.42"/>
<path d="M321.388 199.039C299.826 253.824 278.118 308.715 259.735 364.758C242.706 416.919 229.513 469.527 220.817 523.105C218.762 535.521 217.124 548.415 218.413 560.52C219.626 571.678 225.099 578.961 231.84 585.547C234.193 587.851 237.789 582.787 235.436 580.483C228.157 573.397 223.685 566.167 223.299 553.963C222.917 543.093 224.513 531.791 226.451 520.686C230.707 495.747 235.453 470.898 241.444 446.148C254.417 393.366 272.277 341.492 291.386 290.384C302.635 260.478 314.348 230.793 325.939 201.084C327.537 197.248 322.986 195.203 321.388 199.039Z" fill="#96C11E" fill-opacity="0.42"/>
</svg>
