<svg width="360" height="361" viewBox="0 0 360 361" fill="none" xmlns="http://www.w3.org/2000/svg">
<path d="M173.712 259.93C174.056 248.242 173.369 236.898 168.9 225.898C164.775 215.586 158.931 213.523 149.306 219.367C140.712 224.523 134.181 232.086 127.649 239.648C123.524 244.461 119.055 249.617 112.868 244.117C106.68 238.617 111.493 233.461 115.618 228.648C123.181 220.054 131.087 211.461 141.056 205.617C159.618 194.273 175.775 199.773 184.025 220.398C189.525 233.805 190.556 248.242 189.869 262.336C188.494 288.805 184.369 314.587 170.619 337.618C155.15 364.087 132.118 366.837 109.43 346.212C99.4615 336.931 91.8989 325.587 86.7426 313.212C78.4925 292.93 63.7111 279.524 44.4608 270.586C34.492 265.774 24.8669 260.274 15.9292 253.399C-2.28972 238.617 -4.35224 215.242 10.7729 197.71C13.8667 193.929 17.648 191.867 22.1168 194.96C26.2419 198.054 26.2419 201.835 24.1793 206.304C13.1792 230.367 14.898 235.523 37.5858 248.586C43.4296 252.024 49.2734 255.461 55.461 258.211C75.7425 268.18 90.8676 282.961 100.149 303.93C105.305 315.962 111.837 327.306 122.149 335.9C136.243 347.587 146.9 346.212 156.181 330.4C169.244 308.743 173.025 284.68 173.712 259.93Z" fill="#96C11E" fill-opacity="0.42"/>
<path d="M100.493 173.648C110.118 173.991 119.743 172.96 128.681 170.554C145.181 166.429 147.587 158.522 137.618 145.116C132.462 137.897 125.931 132.397 119.055 126.553C114.587 122.772 110.118 118.647 115.274 112.803C120.43 106.616 125.243 111.084 129.712 114.522C137.962 121.397 145.868 128.616 152.056 137.553C166.494 158.522 160.65 176.741 136.243 184.648C118.024 190.492 99.4614 190.148 80.8987 188.085C60.2735 185.679 40.3358 180.866 22.1168 170.21C-3.66477 154.741 -7.10231 132.741 12.8354 110.053C22.1168 99.3967 33.8044 91.8341 46.5233 86.3341C66.461 77.7402 80.2112 63.3025 89.1488 43.7086C94.3052 33.0522 100.149 22.3958 108.055 13.4582C125.587 -6.47955 145.181 -1.32324 162.025 10.0206C166.15 12.7707 167.525 17.2395 164.431 21.3645C161.337 25.8333 157.556 25.4896 153.087 23.0833C130.056 12.4269 124.556 14.1457 111.493 35.8022C109.087 39.9273 106.68 44.0523 104.618 48.1774C93.9614 72.2402 77.1175 90.1153 52.3672 100.428C41.7108 104.897 32.0856 111.084 24.5231 120.022C12.1479 134.46 13.5229 145.116 29.6794 155.085C51.6796 169.179 75.7424 172.616 100.493 173.648Z" fill="#96C11E" fill-opacity="0.42"/>
<path d="M261.713 187.054C251.4 187.398 241.088 187.054 231.119 190.148C213.931 194.96 211.525 202.523 222.869 216.273C227.681 222.461 233.869 227.617 239.713 233.117C244.182 237.242 250.025 241.367 244.182 247.555C238.682 253.742 233.525 248.586 229.056 244.805C220.463 237.242 211.869 229.679 205.681 219.711C194.337 201.148 199.837 184.648 220.119 176.741C230.775 172.616 242.119 171.241 253.807 170.897C280.276 170.554 306.057 174.679 330.12 186.023C365.527 202.867 369.308 231.054 340.089 256.836C330.808 265.086 320.151 270.93 308.807 276.086C293.338 282.961 281.995 293.961 274.432 309.087C267.901 321.462 262.057 333.837 253.119 344.837C238.682 362.712 216.681 365.119 198.462 350.681C194.337 347.587 191.243 343.806 194.681 338.65C198.119 333.493 202.587 334.868 207.056 337.275C228.025 347.587 234.213 345.868 246.588 325.931C248.65 322.493 250.713 319.055 252.432 315.618C264.463 288.461 283.026 268.18 311.214 256.836C321.526 252.711 330.464 245.836 337.339 236.554C346.964 223.492 345.589 214.554 332.183 205.617C316.37 194.96 298.151 190.835 279.588 188.085C273.401 187.398 267.557 187.398 261.713 187.054Z" fill="#96C11E" fill-opacity="0.42"/>
<path d="M170.275 100.772C170.275 77.3964 174.744 55.0523 183.681 33.7396C184.713 31.3333 186.088 28.5833 187.463 26.177C204.307 -4.41711 229.401 -7.5109 253.807 17.5832C262.745 26.8645 269.276 37.8646 274.432 49.2085C282.339 67.4275 295.058 79.8027 312.589 88.3965C323.245 93.5528 333.902 99.0529 343.183 106.615C362.09 121.397 364.496 141.335 350.746 160.929C347.308 165.741 343.871 169.179 338.027 165.741C332.871 162.647 334.246 157.835 336.652 153.366C346.965 132.053 345.246 126.209 325.308 113.834C321.87 111.772 318.777 109.366 314.995 107.99C287.495 96.3028 267.557 77.3964 256.213 49.2085C251.401 37.1771 242.807 26.8645 231.119 19.9894C222.526 14.8331 215.307 16.5519 208.775 23.7707C203.275 29.9583 199.494 37.5209 196.4 45.4273C187.119 70.5213 184.025 95.9591 187.463 122.428C187.806 125.866 188.838 129.303 189.869 132.741C194.338 145.46 200.869 147.866 212.213 139.96C220.463 134.46 226.994 126.897 233.526 119.334C236.963 114.866 241.432 111.772 246.588 116.241C251.745 120.709 249.338 125.178 245.901 129.647C236.963 140.303 227.682 150.616 214.963 157.147C199.494 164.71 186.088 160.241 178.181 145.116C170.619 131.022 170.275 115.897 170.275 100.772Z" fill="#96C11E" fill-opacity="0.42"/>
</svg>
