<svg width="1007" height="350" viewBox="0 0 1007 350" fill="none" xmlns="http://www.w3.org/2000/svg">
<g opacity="0.88">
<path opacity="0.31" d="M652.802 11.7803C652.802 11.7803 643.562 30.9799 663.722 40.4597C663.722 40.4597 686.521 54.2595 713.761 38.1798C741 22.1001 741 22.1001 741 22.1001" fill="#96C11E"/>
<path opacity="0.31" d="M549.844 52.9399C549.844 52.9399 559.564 67.0997 544.684 76.9395C544.684 76.9395 528.244 90.6192 504.605 81.1394C480.965 71.6596 480.965 71.6596 480.965 71.6596" fill="#96C11E"/>
<path d="M480.245 225.977C494.525 213.977 507.605 200.657 519.364 186.138C525.604 178.458 531.364 170.418 536.884 162.258C539.164 158.778 541.444 155.298 543.844 151.938C545.044 150.258 546.244 148.578 547.444 146.898C547.684 146.538 548.044 146.058 548.284 145.698C549.604 144.018 546.964 147.498 547.804 146.298C548.524 145.338 549.244 144.498 549.964 143.538C552.964 139.938 556.204 136.579 559.804 133.699C560.404 133.219 561.724 132.499 559.204 134.179C559.804 133.819 560.284 133.339 560.884 132.979C561.844 132.259 562.804 131.659 563.764 131.059C565.923 129.739 568.203 128.659 570.483 127.579C569.643 127.939 568.683 128.299 567.843 128.659C573.363 126.379 579.243 124.939 585.123 124.099C584.163 124.219 583.203 124.339 582.243 124.459C599.043 122.179 615.843 124.459 632.642 124.339C648.962 124.219 665.402 122.059 681.241 118.099C712.921 110.299 742.44 95.1793 767.64 74.6597C781.799 63.1399 794.279 49.7001 804.959 34.9404C806.519 32.7804 806.759 28.9405 806.039 26.4206C805.319 23.9006 803.399 21.1407 800.999 19.8207C798.479 18.5007 795.359 17.7807 792.479 18.7407C789.599 19.7007 787.679 21.3807 785.879 23.7806C784.919 25.2206 783.839 26.5406 782.759 27.8605C784.919 24.8606 782.879 27.7405 782.399 28.3405C781.799 29.0605 781.2 29.7805 780.6 30.5005C778.32 33.2604 775.92 36.0204 773.52 38.6603C768.72 43.8202 763.8 48.7402 758.52 53.4201C755.76 55.82 753 58.1 750.24 60.3799C749.64 60.8599 746.76 63.0199 749.76 60.7399C749.16 61.2199 748.56 61.6999 747.96 62.0599C746.4 63.1399 744.96 64.3399 743.4 65.4198C737.52 69.4998 731.52 73.3397 725.281 76.8196C718.201 80.7796 711.001 84.3795 703.561 87.4994C704.401 87.1394 705.361 86.7795 706.201 86.4195C689.521 93.3793 672.002 98.2992 654.122 100.699C655.082 100.579 656.042 100.459 657.002 100.339C642.602 102.259 628.202 102.139 613.683 101.659C597.963 101.059 581.523 100.579 566.403 105.619C557.884 108.499 550.324 112.699 543.484 118.579C537.364 123.739 532.444 129.979 527.764 136.339C523.444 142.218 519.604 148.458 515.404 154.458C513.244 157.698 510.964 160.818 508.685 163.938C508.085 164.778 507.365 165.738 506.765 166.578C506.525 166.938 506.285 167.298 505.925 167.658C504.845 169.098 506.405 167.058 506.405 166.938C505.085 168.618 503.765 170.298 502.325 171.978C490.925 185.898 478.325 198.737 464.525 210.377C462.485 212.057 461.285 215.657 461.285 218.177C461.285 220.937 462.485 224.057 464.525 225.977C466.685 227.897 469.445 229.337 472.325 229.217C475.565 229.097 477.965 228.017 480.245 225.977Z" fill="#433015"/>
<path d="M913.197 134.179C924.477 133.459 935.757 130.219 945.357 124.099C954.956 117.979 961.436 109.1 966.596 99.1398C967.676 96.9798 964.556 95.1798 963.476 97.3398C958.676 106.7 952.676 115.219 943.557 120.979C934.557 126.739 923.877 129.859 913.197 130.579C910.917 130.699 910.917 134.419 913.197 134.179Z" fill="#433015"/>
<path d="M768.72 316.335C770.76 304.815 770.28 292.695 766.32 281.655C762.6 271.336 755.64 263.176 747.48 256.096C745.68 254.536 743.04 257.176 744.84 258.736C752.52 265.456 759.24 273.016 762.72 282.735C766.44 293.175 767.04 304.575 765.12 315.495C764.76 317.655 768.24 318.615 768.72 316.335Z" fill="#433015"/>
<path d="M583.083 124.459C586.443 125.059 589.803 125.779 593.043 126.739C594.603 127.219 596.043 127.699 597.603 128.179C598.203 128.419 598.923 128.659 599.523 128.899C600.003 129.019 600.363 129.259 600.843 129.379C602.643 130.099 599.163 128.659 600.363 129.259C606.483 132.019 612.123 135.379 617.403 139.219C618.603 140.059 615.723 137.779 616.803 138.739C617.043 138.979 617.283 139.219 617.643 139.339C618.243 139.819 618.843 140.299 619.443 140.899C620.883 142.099 622.202 143.419 623.522 144.619C626.162 147.259 628.802 149.899 631.322 152.659C636.002 157.579 640.682 162.379 645.842 166.698C666.602 184.338 691.321 196.338 717.481 203.778C745.44 211.818 774.72 214.458 803.759 214.938C834.959 215.418 866.038 213.378 897.237 213.138C911.517 213.018 925.797 213.378 939.957 214.938C940.797 215.058 941.637 215.178 942.477 215.178C942.837 215.178 943.197 215.298 943.557 215.298C945.477 215.538 943.077 215.178 942.837 215.178C944.637 215.418 946.437 215.658 948.236 216.018C951.716 216.618 955.196 217.218 958.556 217.938C965.516 219.498 972.356 221.417 979.076 223.817C980.636 224.417 982.196 225.017 983.756 225.617C984.116 225.737 984.476 225.857 984.716 225.977C982.196 225.017 983.516 225.497 984.116 225.737C984.956 226.097 985.916 226.577 986.756 226.937C989.516 228.257 992.276 228.857 995.276 228.017C997.796 227.297 1000.56 225.377 1001.88 222.977C1004.4 218.178 1003.56 210.498 997.916 207.858C970.436 195.138 940.437 191.418 910.437 190.818C879.598 190.218 848.758 192.378 817.799 192.618C802.079 192.738 786.239 192.378 770.64 190.938C767.04 190.578 763.44 190.218 759.84 189.738C759.12 189.618 758.28 189.498 757.56 189.498C757.68 189.498 760.44 189.858 758.52 189.618C758.16 189.618 757.92 189.498 757.56 189.498C755.88 189.258 754.32 189.018 752.64 188.778C746.16 187.698 739.8 186.498 733.44 184.938C727.081 183.378 720.841 181.698 714.601 179.658C711.601 178.698 708.601 177.618 705.601 176.418C704.161 175.818 702.721 175.338 701.281 174.738C700.921 174.618 700.441 174.378 700.081 174.258C699.001 173.778 701.281 174.738 701.161 174.738C700.441 174.378 699.601 174.018 698.761 173.658C687.001 168.378 675.842 161.899 665.522 154.219C663.962 153.019 667.562 155.779 665.402 154.099C664.802 153.619 664.202 153.139 663.602 152.659C662.282 151.579 661.082 150.619 659.882 149.539C657.362 147.379 654.962 144.979 652.562 142.579C647.522 137.419 642.722 132.019 637.442 127.099C626.402 116.899 613.203 109.34 598.803 105.14C595.683 104.18 592.443 103.46 589.083 102.98C586.083 102.5 583.323 102.5 580.563 104.06C578.283 105.38 576.123 108.02 575.523 110.66C574.083 116.299 576.963 123.499 583.083 124.459Z" fill="#433015"/>
<path d="M788.159 208.937C804.719 205.098 821.639 200.778 835.199 190.098C840.958 185.538 846.118 179.778 849.358 173.058C853.318 165.018 854.158 156.258 854.158 147.379C854.158 128.299 853.798 109.219 853.678 90.1396C853.678 85.4597 853.558 80.6598 853.558 75.9799C853.558 71.9 853.558 67.8201 854.638 63.9801C856.918 56.4203 864.358 51.2604 870.358 46.7005C885.718 34.9407 902.637 25.2208 920.517 17.541C922.317 16.701 922.797 14.0611 921.837 12.5011C920.757 10.5811 918.597 10.3411 916.797 11.1811C900.957 17.901 885.958 26.4208 871.918 36.3806C868.318 38.9006 864.958 41.5405 861.478 44.3005C858.358 46.8204 855.238 49.3404 852.718 52.4604C849.958 55.8203 848.038 59.5402 847.078 63.7401C846.118 68.0601 846.118 72.5 846.118 76.8199C846.238 95.8996 846.478 114.859 846.598 133.939C846.718 142.819 847.558 152.299 845.638 161.058C844.078 168.258 840.479 174.618 835.319 179.898C822.359 193.218 803.519 197.658 786.12 201.738C781.68 202.938 783.6 210.017 788.159 208.937Z" fill="#433015"/>
<path d="M851.278 99.6192C858.238 115.579 874.918 123.859 890.758 128.659C899.997 131.539 909.477 133.579 918.717 136.699C927.717 139.699 936.477 143.178 944.997 147.378C954.596 152.058 963.836 157.458 972.716 163.578C974.636 164.898 976.556 161.778 974.516 160.458C959.276 150.018 942.717 141.498 925.317 135.139C916.437 131.899 907.437 129.619 898.318 127.099C889.558 124.699 880.678 121.939 872.758 117.259C864.838 112.699 858.118 106.219 854.398 97.8193C853.558 95.6593 850.318 97.4593 851.278 99.6192Z" fill="#433015"/>
<path d="M693.121 180.737C702.841 185.897 708.841 195.377 713.881 204.737C719.281 214.817 723.601 225.376 728.761 235.576C733.92 245.536 740.16 255.016 748.32 262.816C756.12 270.256 765.36 276.136 774.96 281.055C786 286.695 797.639 291.015 809.159 295.095C811.079 295.695 813.239 294.375 813.719 292.575C814.319 290.535 812.999 288.735 811.199 288.015C791.519 281.055 771 273.376 755.28 259.216C747 251.776 740.88 242.776 735.72 233.056C730.441 223.097 726.241 212.537 720.961 202.577C715.201 191.657 708.001 180.497 696.841 174.497C692.641 172.217 688.921 178.577 693.121 180.737Z" fill="#433015"/>
<path d="M945.957 78.8594C946.077 77.4194 946.077 75.7395 946.317 74.2995C946.437 73.6995 946.677 73.3395 947.397 73.4595C952.917 74.4195 958.196 75.9795 962.636 79.4594C967.916 83.6593 969.716 89.8992 967.436 96.1391C967.316 96.6191 967.076 97.2191 966.356 97.0991C965.636 96.8591 965.756 96.2591 965.996 95.6591C967.316 91.5792 967.316 87.7393 964.916 84.0193C962.876 80.8994 959.756 78.8594 956.276 77.4194C953.877 76.3395 951.357 75.7395 948.837 75.1395C947.877 74.8995 947.637 75.1395 947.517 76.0995C947.157 81.1394 947.517 86.1793 950.037 90.7392C952.197 94.5791 955.436 96.4991 959.756 96.8591C962.396 96.9791 963.356 95.8991 962.636 93.3791C961.316 89.0592 958.556 85.4593 955.197 82.5793C954.237 81.7394 953.037 80.8994 951.957 80.1794C951.477 79.8194 951.117 79.4594 951.477 78.8594C951.837 78.3794 952.317 78.4994 952.797 78.8594C957.596 82.0994 961.436 86.2993 963.716 91.6992C964.076 92.4192 964.196 93.1391 964.436 93.9791C964.916 96.4991 963.476 98.4191 960.956 98.4191C956.156 98.5391 952.317 96.6191 949.557 92.6592C946.797 88.3392 946.077 83.6593 945.957 78.8594Z" fill="#433015"/>
<path d="M984.116 82.7003C984.116 87.0202 983.156 90.9801 980.036 94.1001C978.116 96.02 975.716 96.98 973.196 97.34C972.716 97.46 972.116 97.46 971.996 96.74C971.876 96.02 972.476 95.9 972.956 95.78C979.196 94.8201 982.076 90.3802 982.556 84.6203C982.676 83.5403 982.556 82.5803 982.676 81.5003C982.676 81.0203 982.556 80.9003 982.076 80.9003C977.516 80.7803 973.316 81.5003 970.076 85.1002C969.716 85.4602 969.356 85.7002 968.876 85.3402C968.396 84.8602 968.636 84.3803 968.996 84.0203C970.676 82.1003 972.836 80.7803 975.356 80.0603C977.756 79.3404 980.156 79.2203 982.676 79.3403C983.756 79.4603 984.236 79.8203 984.236 80.9003C984.116 81.5003 984.116 82.1003 984.116 82.7003Z" fill="#433015"/>
<path d="M973.916 77.0595C973.916 77.5395 973.916 77.7795 973.916 78.0195C973.796 78.4995 973.556 78.8594 973.076 78.7394C972.596 78.7394 972.356 78.3794 972.356 77.8995C972.476 73.3395 970.076 69.9796 967.076 66.9796C966.596 66.4997 966.236 66.3797 965.756 66.9796C963.356 69.3796 961.316 72.0196 960.596 75.3795C960.476 75.8595 960.236 76.3395 959.636 76.2195C959.036 76.0995 959.036 75.4995 959.156 75.0195C959.636 72.3796 960.956 70.0996 962.756 67.9396C963.596 66.8597 964.556 65.8997 965.636 65.0597C966.116 64.6997 966.596 64.4597 967.076 64.9397C970.916 68.1796 973.676 72.0196 973.916 77.0595Z" fill="#433015"/>
<path d="M972.236 91.9394C971.516 91.6994 971.276 91.2194 971.636 90.7394C973.076 89.1795 974.636 87.6195 976.196 86.1795C976.436 85.9395 976.916 85.9395 977.156 86.1795C977.396 86.5395 977.396 86.8995 977.156 87.1395C975.716 88.6995 974.156 90.1394 972.596 91.6994C972.596 91.9394 972.356 91.9394 972.236 91.9394Z" fill="#433015"/>
<path d="M967.196 77.4195C967.196 78.2595 967.196 79.0995 967.196 79.9395C967.196 80.4194 967.076 81.0194 966.476 81.0194C965.876 81.0194 965.636 80.5395 965.636 80.0595C965.636 78.3795 965.636 76.6995 965.636 75.0196C965.636 74.5396 965.756 74.0596 966.476 74.0596C967.076 74.0596 967.196 74.5396 967.196 75.1395C967.196 75.7395 967.196 76.5795 967.196 77.4195Z" fill="#433015"/>
<path d="M751.8 227.177C753 226.337 754.32 225.377 755.64 224.657C756.24 224.417 756.6 224.417 756.96 224.897C759.6 229.817 761.52 234.977 761.52 240.617C761.4 247.337 757.56 252.497 751.2 254.657C750.72 254.777 750.12 255.137 749.88 254.417C749.52 253.697 750.24 253.457 750.72 253.217C754.68 251.777 757.8 249.377 759.24 245.177C760.44 241.577 760.08 237.977 759.24 234.377C758.64 231.857 757.68 229.457 756.48 227.177C756.12 226.337 755.76 226.217 754.92 226.817C750.6 229.577 747 232.937 744.96 237.737C743.28 241.697 743.64 245.537 746.04 249.137C747.48 251.297 749.04 251.417 750.48 249.257C753.12 245.537 754.2 241.217 754.44 236.657C754.56 235.337 754.44 234.017 754.44 232.577C754.44 231.977 754.44 231.497 755.16 231.377C755.76 231.377 755.88 231.857 756 232.337C756.36 238.097 755.4 243.617 752.52 248.777C752.16 249.497 751.68 250.097 751.2 250.697C749.52 252.617 747.12 252.617 745.44 250.697C742.32 246.977 741.6 242.777 743.04 238.217C744.72 233.657 747.96 230.177 751.8 227.177Z" fill="#433015"/>
<path d="M772.08 259.696C768.72 262.216 765 264.016 760.56 263.416C757.92 263.056 755.64 261.736 753.72 259.936C753.36 259.576 752.88 259.096 753.36 258.616C753.84 258.136 754.32 258.496 754.68 258.856C759.24 263.176 764.52 262.696 769.44 259.696C770.28 259.096 771.12 258.496 771.96 257.776C772.32 257.536 772.32 257.296 772.08 256.816C769.44 253.217 766.2 250.217 761.4 249.977C760.92 249.977 760.44 249.857 760.44 249.257C760.44 248.537 761.04 248.417 761.64 248.537C764.28 248.657 766.56 249.617 768.6 251.177C770.64 252.617 772.2 254.537 773.64 256.576C774.24 257.416 774.24 258.136 773.28 258.736C772.92 258.976 772.56 259.336 772.08 259.696Z" fill="#433015"/>
<path d="M770.4 248.177C770.04 248.417 769.8 248.657 769.56 248.777C769.2 249.017 768.72 249.017 768.48 248.537C768.24 248.177 768.36 247.817 768.72 247.457C772.44 244.817 773.64 240.857 774.12 236.537C774.24 235.817 774.12 235.577 773.28 235.457C769.92 234.977 766.68 234.977 763.56 236.537C763.08 236.777 762.6 236.897 762.36 236.297C762.12 235.697 762.48 235.337 762.96 235.217C765.36 234.017 768 233.657 770.64 233.777C772.08 233.777 773.4 234.017 774.72 234.257C775.32 234.377 775.68 234.617 775.68 235.337C775.44 240.377 774.24 244.937 770.4 248.177Z" fill="#433015"/>
<path d="M757.44 255.976C757.2 255.376 757.32 254.776 758.04 254.776C760.2 255.016 762.36 255.256 764.52 255.616C764.88 255.616 765.12 255.976 765.12 256.456C765 256.936 764.76 257.176 764.28 257.056C762.12 256.816 760.08 256.576 757.92 256.216C757.68 256.216 757.56 256.096 757.44 255.976Z" fill="#433015"/>
<path d="M765.96 243.137C765.36 243.617 764.64 244.097 764.04 244.697C763.68 245.057 763.2 245.297 762.72 244.697C762.36 244.217 762.6 243.857 762.96 243.497C764.28 242.417 765.6 241.457 766.92 240.377C767.4 240.017 767.76 239.897 768.12 240.377C768.48 240.857 768.12 241.337 767.76 241.577C767.16 242.057 766.56 242.657 765.96 243.137Z" fill="#433015"/>
<path d="M892.318 115.819C892.078 114.139 891.598 112.459 891.478 110.779C891.478 110.059 891.598 109.579 892.318 109.579C898.078 109.219 903.837 109.699 909.357 112.459C915.717 115.699 919.197 122.059 918.477 129.379C918.477 129.979 918.477 130.699 917.637 130.579C916.797 130.579 916.797 129.859 916.917 129.139C917.157 124.459 916.197 120.139 912.717 116.779C909.717 113.899 906.117 112.459 902.277 111.739C899.638 111.139 896.878 111.019 894.238 111.139C893.278 111.139 893.038 111.499 893.158 112.579C894.118 118.219 895.798 123.379 899.518 127.699C902.637 131.299 906.477 132.619 910.917 131.899C913.557 131.419 914.277 129.979 912.837 127.459C910.317 123.019 906.717 119.899 902.397 117.499C901.197 116.779 899.877 116.179 898.558 115.579C897.958 115.339 897.478 114.979 897.718 114.259C897.958 113.659 898.438 113.659 899.038 113.899C904.797 116.299 909.717 119.779 913.437 125.059C913.917 125.779 914.397 126.499 914.757 127.339C915.837 129.979 914.997 132.379 912.357 133.099C907.557 134.419 903.117 133.339 899.398 129.619C895.558 126.019 893.638 121.219 892.318 115.819Z" fill="#433015"/>
<path d="M931.917 110.779C932.997 115.459 933.117 119.899 930.717 124.099C929.277 126.619 927.117 128.179 924.597 129.259C924.117 129.499 923.517 129.739 923.157 128.899C922.797 128.179 923.397 127.819 923.997 127.699C929.997 125.179 931.797 119.659 930.837 113.299C930.717 112.099 930.357 111.019 930.117 109.939C929.997 109.459 929.757 109.339 929.277 109.339C924.717 110.299 920.637 112.099 918.237 116.779C917.997 117.259 917.637 117.619 917.157 117.379C916.437 117.019 916.677 116.419 916.917 115.819C918.117 113.299 919.917 111.379 922.317 110.059C924.597 108.739 926.997 107.899 929.517 107.539C930.597 107.299 931.197 107.659 931.437 108.859C931.557 109.579 931.797 110.179 931.917 110.779Z" fill="#433015"/>
<path d="M920.157 107.179C920.277 107.659 920.277 108.019 920.397 108.259C920.397 108.739 920.277 109.219 919.797 109.219C919.317 109.339 918.957 108.979 918.837 108.499C917.757 103.58 914.517 100.46 910.677 97.9396C910.077 97.5796 909.717 97.5796 909.357 98.2996C907.557 101.42 906.237 104.78 906.357 108.619C906.357 109.219 906.357 109.699 905.637 109.819C904.918 109.819 904.798 109.219 904.798 108.739C904.678 105.739 905.398 102.98 906.598 100.22C907.197 98.8996 907.917 97.5796 908.757 96.3796C909.117 95.8997 909.477 95.5397 910.197 95.8997C914.757 98.2996 918.597 101.78 920.157 107.179Z" fill="#433015"/>
<path d="M922.317 123.739C921.597 123.739 921.117 123.259 921.477 122.659C922.557 120.619 923.757 118.579 924.957 116.539C925.197 116.179 925.557 116.059 926.037 116.299C926.397 116.539 926.517 117.019 926.277 117.379C925.197 119.419 923.997 121.339 922.917 123.379C922.677 123.619 922.437 123.619 922.317 123.739Z" fill="#433015"/>
<path d="M913.437 109.219C913.677 110.059 913.917 111.019 914.037 111.859C914.157 112.459 914.157 112.939 913.557 113.179C912.957 113.299 912.597 112.939 912.477 112.339C911.997 110.539 911.637 108.739 911.157 106.939C911.037 106.339 911.037 105.859 911.637 105.739C912.237 105.619 912.477 106.099 912.717 106.699C912.957 107.419 913.197 108.379 913.437 109.219Z" fill="#433015"/>
<path d="M1001.4 153.018C1002.72 153.978 1004.28 154.818 1005.6 155.898C1006.2 156.378 1006.32 156.858 1005.84 157.338C1002.12 161.778 997.796 165.618 992.036 167.658C985.316 170.058 978.356 168.138 973.436 162.618C973.076 162.138 972.476 161.658 973.076 161.178C973.676 160.578 974.156 161.058 974.636 161.538C977.876 164.898 981.596 167.178 986.396 167.058C990.596 166.938 994.076 165.258 997.316 162.978C999.596 161.418 1001.52 159.618 1003.32 157.578C1004.04 156.858 1003.92 156.498 1003.08 155.898C998.396 152.658 993.356 150.258 987.716 150.018C982.916 149.778 979.316 151.578 976.796 155.298C975.236 157.578 975.836 159.138 978.596 159.858C983.516 161.058 988.316 160.578 992.996 159.138C994.316 158.778 995.756 158.178 997.076 157.578C997.676 157.338 998.156 157.218 998.516 157.818C998.876 158.418 998.396 158.778 997.916 159.018C992.276 161.538 986.276 162.618 979.916 161.658C979.076 161.538 978.236 161.298 977.396 161.058C974.636 160.098 973.676 157.818 974.876 155.418C977.276 150.978 981.116 148.578 986.396 148.458C991.676 148.458 996.596 150.378 1001.4 153.018Z" fill="#433015"/>
<path d="M977.756 185.177C973.676 182.777 970.316 179.777 968.876 175.098C968.036 172.338 968.396 169.698 969.356 167.058C969.596 166.578 969.836 165.978 970.556 166.218C971.276 166.458 971.156 167.058 970.916 167.658C968.636 173.778 971.396 178.818 976.556 182.537C977.516 183.257 978.596 183.737 979.556 184.337C980.036 184.577 980.276 184.577 980.516 184.097C982.916 180.137 984.476 175.938 982.676 171.018C982.436 170.538 982.436 170.058 983.036 169.818C983.756 169.578 984.116 170.058 984.236 170.658C985.196 173.298 985.316 175.938 984.716 178.457C984.116 180.977 983.036 183.257 981.596 185.417C980.996 186.377 980.276 186.497 979.316 185.897C978.836 185.777 978.236 185.537 977.756 185.177Z" fill="#433015"/>
<path d="M988.436 179.178C987.956 178.938 987.716 178.698 987.476 178.578C987.116 178.218 986.876 177.858 987.236 177.378C987.476 177.018 987.956 177.018 988.436 177.258C992.756 179.898 997.196 179.658 1001.76 178.578C1002.48 178.458 1002.72 178.098 1002.48 177.378C1001.4 173.898 999.956 170.658 997.076 168.138C996.596 167.778 996.236 167.298 996.716 166.818C997.196 166.338 997.676 166.578 998.156 167.058C1000.44 168.978 1002 171.498 1003.08 174.138C1003.68 175.578 1004.04 176.898 1004.4 178.458C1004.52 179.058 1004.4 179.538 1003.8 179.778C998.516 181.458 993.356 181.818 988.436 179.178Z" fill="#433015"/>
<path d="M974.876 169.337C975.356 168.857 976.076 168.857 976.316 169.457C977.036 171.617 977.756 173.897 978.356 176.177C978.476 176.657 978.236 177.017 977.756 177.017C977.276 177.137 976.916 176.897 976.796 176.417C976.076 174.257 975.476 171.977 974.756 169.817C974.756 169.697 974.876 169.457 974.876 169.337Z" fill="#433015"/>
<path d="M991.556 172.938C990.716 172.458 989.996 171.978 989.156 171.618C988.676 171.378 988.196 170.898 988.556 170.418C988.916 169.818 989.396 169.938 989.876 170.298C991.436 171.258 993.116 172.218 994.676 173.058C995.156 173.418 995.516 173.778 995.156 174.258C994.796 174.858 994.316 174.618 993.716 174.378C993.116 173.778 992.396 173.418 991.556 172.938Z" fill="#433015"/>
<path d="M839.879 282.375C841.199 283.335 842.759 284.175 844.079 285.255C844.679 285.735 844.799 286.215 844.319 286.695C840.599 291.135 836.279 294.975 830.519 297.015C823.799 299.415 816.839 297.495 811.919 291.975C811.559 291.495 810.959 291.015 811.559 290.535C812.159 289.935 812.639 290.415 813.119 290.895C816.359 294.255 820.079 296.535 824.879 296.415C829.079 296.295 832.559 294.615 835.799 292.335C838.079 290.775 839.999 288.975 841.799 286.935C842.519 286.215 842.399 285.855 841.559 285.255C836.879 282.015 831.839 279.616 826.199 279.376C821.399 279.136 817.799 280.936 815.279 284.655C813.719 286.935 814.319 288.495 817.079 289.215C821.999 290.415 826.799 289.935 831.479 288.495C832.799 288.135 834.239 287.535 835.559 286.935C836.159 286.695 836.639 286.575 836.999 287.175C837.359 287.775 836.879 288.135 836.399 288.375C830.759 290.895 824.759 291.975 818.399 291.015C817.559 290.895 816.719 290.655 815.879 290.415C813.119 289.455 812.159 287.175 813.359 284.775C815.759 280.336 819.599 277.936 824.879 277.816C830.279 277.696 835.199 279.736 839.879 282.375Z" fill="#433015"/>
<path d="M816.239 314.535C812.159 312.135 808.799 309.135 807.359 304.455C806.519 301.696 806.879 299.056 807.839 296.416C808.079 295.936 808.319 295.336 809.039 295.576C809.759 295.816 809.639 296.416 809.399 297.016C807.119 303.136 809.879 308.175 815.039 311.895C815.999 312.615 817.079 313.095 818.039 313.695C818.519 313.935 818.759 313.935 818.999 313.455C821.399 309.495 822.959 305.295 821.159 300.376C820.919 299.896 820.919 299.416 821.519 299.176C822.239 298.936 822.599 299.416 822.719 300.016C823.679 302.656 823.799 305.295 823.199 307.815C822.599 310.335 821.519 312.615 820.079 314.775C819.479 315.735 818.759 315.855 817.799 315.255C817.439 315.135 816.839 314.775 816.239 314.535Z" fill="#433015"/>
<path d="M827.039 308.535C826.559 308.295 826.319 308.055 826.079 307.935C825.719 307.575 825.479 307.215 825.839 306.735C826.079 306.375 826.559 306.375 827.039 306.615C831.359 309.255 835.799 309.015 840.359 307.935C841.079 307.815 841.319 307.455 841.079 306.735C839.999 303.255 838.559 300.015 835.679 297.495C835.199 297.135 834.839 296.655 835.319 296.175C835.799 295.695 836.279 295.935 836.759 296.415C839.039 298.335 840.599 300.855 841.679 303.495C842.279 304.935 842.639 306.255 842.999 307.815C843.119 308.415 842.999 308.895 842.399 309.135C837.119 310.695 831.959 311.175 827.039 308.535Z" fill="#433015"/>
<path d="M813.479 298.695C813.959 298.215 814.679 298.215 814.919 298.815C815.639 300.975 816.359 303.255 816.959 305.535C817.079 306.015 816.839 306.375 816.359 306.375C815.879 306.495 815.519 306.255 815.399 305.775C814.679 303.615 814.079 301.335 813.359 299.175C813.359 299.055 813.479 298.815 813.479 298.695Z" fill="#433015"/>
<path d="M830.159 302.295C829.319 301.815 828.599 301.335 827.759 300.975C827.279 300.735 826.799 300.255 827.159 299.775C827.519 299.175 827.999 299.295 828.479 299.655C830.039 300.615 831.719 301.575 833.279 302.415C833.759 302.775 834.119 303.135 833.759 303.615C833.399 304.215 832.919 303.975 832.319 303.735C831.719 303.135 830.999 302.655 830.159 302.295Z" fill="#433015"/>
<path d="M773.4 345.735C772.32 346.934 771.24 348.374 769.92 349.574C769.44 350.054 768.96 350.174 768.48 349.694C764.52 345.375 761.28 340.695 759.96 334.695C758.4 327.735 761.28 321.015 767.4 316.935C767.88 316.575 768.48 316.215 768.84 316.815C769.32 317.535 768.72 317.895 768.24 318.255C764.4 321.015 761.76 324.495 761.28 329.175C760.8 333.255 762.12 336.975 763.92 340.455C765.12 342.855 766.8 345.015 768.48 347.174C769.08 347.894 769.44 347.894 770.16 347.054C774 342.855 777 338.175 777.96 332.535C778.8 327.855 777.48 324.015 774.12 321.015C772.08 319.215 770.4 319.575 769.44 322.335C767.64 327.015 767.52 331.815 768.24 336.615C768.48 338.055 768.84 339.375 769.2 340.815C769.32 341.415 769.44 342.015 768.72 342.255C768.12 342.495 767.76 342.015 767.64 341.415C765.84 335.535 765.48 329.415 767.28 323.175C767.52 322.335 767.88 321.495 768.24 320.775C769.56 318.255 771.96 317.535 774.24 319.095C778.32 321.975 780.12 326.175 779.76 331.335C779.16 336.855 776.64 341.415 773.4 345.735Z" fill="#433015"/>
<path d="M744.6 318.135C747.48 314.415 750.96 311.415 755.76 310.695C758.64 310.215 761.16 310.935 763.68 312.135C764.16 312.375 764.76 312.735 764.28 313.455C763.92 314.175 763.32 313.935 762.84 313.575C757.08 310.455 751.68 312.615 747.36 317.295C746.52 318.135 745.92 319.095 745.2 320.055C744.84 320.415 744.96 320.775 745.32 321.015C749.04 323.895 753 326.055 758.04 324.855C758.52 324.735 759 324.735 759.12 325.335C759.24 326.055 758.64 326.295 758.16 326.415C755.4 327.015 752.88 326.775 750.36 325.815C747.96 324.855 745.8 323.535 743.88 321.735C743.04 321.015 742.92 320.295 743.76 319.335C743.88 319.095 744.24 318.615 744.6 318.135Z" fill="#433015"/>
<path d="M749.04 329.535C749.4 329.175 749.52 328.935 749.76 328.695C750.12 328.335 750.6 328.215 750.96 328.575C751.32 328.935 751.32 329.295 750.96 329.775C747.72 333.735 747.36 338.175 747.84 342.855C747.96 343.574 748.08 343.815 748.92 343.695C752.52 343.095 755.88 342.135 758.88 339.495C759.36 339.135 759.84 338.775 760.2 339.375C760.68 339.855 760.2 340.335 759.84 340.695C757.56 342.735 754.92 343.934 752.16 344.654C750.72 345.014 749.28 345.254 747.72 345.374C747.12 345.374 746.64 345.254 746.52 344.535C745.56 339.375 745.92 334.215 749.04 329.535Z" fill="#433015"/>
<path d="M760.68 317.415C761.16 318.015 761.04 318.615 760.32 318.735C758.04 319.215 755.76 319.575 753.48 319.935C753 320.055 752.76 319.695 752.64 319.215C752.64 318.735 752.88 318.375 753.36 318.375C755.64 318.015 757.92 317.655 760.2 317.295C760.32 317.295 760.44 317.415 760.68 317.415Z" fill="#433015"/>
<path d="M754.92 333.494C755.52 332.774 756 332.054 756.6 331.334C756.96 330.854 757.32 330.494 757.92 330.854C758.4 331.214 758.28 331.694 757.92 332.174C756.72 333.614 755.64 335.174 754.44 336.614C754.08 337.094 753.6 337.454 753.12 336.974C752.64 336.494 752.88 336.014 753.24 335.534C753.84 334.934 754.32 334.214 754.92 333.494Z" fill="#433015"/>
<path d="M541.084 107.179C539.764 106.699 538.444 106.339 537.604 107.899C537.604 108.979 538.444 109.579 539.164 110.179C541.444 112.099 543.364 114.379 545.644 116.299C546.244 116.779 546.604 117.139 546.844 117.499C548.044 116.659 549.244 116.059 550.684 115.579C550.324 115.339 549.844 114.979 549.484 114.619C546.844 111.979 543.964 109.579 541.084 107.179Z" fill="#433015"/>
<path d="M535.204 129.259C536.044 128.059 537.004 126.979 538.084 126.019C537.724 125.779 537.364 125.419 536.884 124.819C535.204 122.299 533.644 119.539 532.204 116.899C530.524 114.019 528.364 111.379 526.804 108.379C525.844 106.579 526.684 105.259 527.644 103.939C528.484 102.499 529.684 102.499 531.124 102.859C532.444 103.219 533.884 103.939 535.324 103.219C536.044 102.499 536.404 101.659 536.524 100.699C536.644 100.339 535.084 99.7393 536.524 99.4994C539.644 98.7794 542.764 98.6594 545.644 97.2194C546.484 96.0194 546.844 95.0594 545.044 94.4594C544.084 94.6994 543.004 95.0594 542.044 95.2994C531.724 97.8194 521.644 96.8594 513.244 90.3795C516.004 90.6195 518.884 91.0995 521.644 91.2195C536.764 91.9395 549.964 87.6196 559.564 75.2598C561.124 73.3398 562.444 71.1799 563.404 68.8999C563.764 68.0599 563.884 67.0999 562.804 66.74C561.844 66.38 561.124 66.6199 560.644 67.5799C560.404 68.0599 560.164 68.4199 559.924 68.7799C554.764 78.2597 546.844 84.2596 536.404 86.7796C524.524 89.7795 512.884 87.7396 501.605 84.0196C499.085 83.1797 496.565 82.0997 494.045 81.1397C492.965 80.6597 491.645 80.1797 491.045 81.6197C490.325 83.2997 491.765 83.7796 492.845 84.2596C493.325 84.4996 493.925 84.6196 494.525 84.8596C497.285 85.9396 500.405 86.4196 502.805 88.0996C509.885 92.8995 517.324 96.9794 525.364 100.459C524.644 101.659 524.044 102.979 523.204 103.939C521.404 105.979 521.644 107.779 523.204 110.059C527.404 116.299 531.124 122.779 535.204 129.139C535.084 129.019 535.084 129.139 535.204 129.259Z" fill="#433015"/>
<path d="M577.924 46.2199C573.604 42.98 567.844 41.54 562.684 43.22C558.604 44.6599 555.484 47.7799 552.244 50.5398C542.284 58.8197 529.924 63.7396 517.685 68.0595C510.605 70.5795 503.525 72.9794 496.325 75.4994C492.845 76.6993 489.485 77.7793 486.005 78.9793C485.285 79.2193 484.565 79.4593 483.845 79.2193C481.805 78.4993 483.725 76.9393 484.685 76.5793C486.125 75.8594 487.565 75.2594 489.005 74.6594C491.885 73.4594 494.885 72.2594 497.885 71.2994C503.885 69.1395 510.005 67.3395 516.125 65.2996C527.284 61.5796 538.444 57.1397 547.804 49.9398C552.004 46.6999 555.964 42.74 560.884 40.82C566.284 38.78 572.644 39.38 577.444 42.38C582.243 45.3799 585.603 50.5398 590.763 53.0598C593.163 54.2598 595.923 54.8597 598.323 56.2997C599.043 56.6597 599.643 57.3797 599.403 58.0997C599.163 58.4597 598.683 58.6997 598.323 58.8197C592.443 60.4996 585.243 57.6197 580.323 61.3396C576.844 64.0996 576.244 68.8995 575.404 73.2194C574.684 76.9393 574.804 80.1793 572.644 83.4192C572.404 83.7792 570.844 86.7792 570.484 87.0192C568.804 88.2191 567.244 87.6191 567.484 86.1792C568.084 83.4192 569.884 77.7793 570.844 75.1394C571.804 72.1394 572.764 69.1395 573.844 66.1395C574.564 63.8596 575.404 61.3396 577.084 59.6597C579.843 56.7797 584.163 56.1797 588.123 55.8197C584.403 54.1398 582.243 50.4198 579.243 47.6599C578.884 47.0599 578.404 46.5799 577.924 46.2199Z" fill="#433015"/>
<path d="M483.725 81.2593C484.445 81.4993 484.805 82.0992 484.805 82.8192C484.805 83.8992 484.085 84.2592 483.125 84.4992C478.805 85.8192 474.485 87.1391 470.165 88.4591C460.806 91.3391 451.566 94.339 442.206 97.219C441.966 97.339 441.606 97.459 441.366 97.459C440.166 97.819 438.846 98.4189 438.126 96.739C437.526 94.939 439.206 94.699 440.286 94.459C444.606 93.019 449.046 91.6991 453.486 90.3791C462.726 87.4991 471.965 84.6192 481.205 81.7392C482.045 81.4992 482.885 81.0193 483.725 81.2593Z" fill="#433015"/>
<path d="M463.445 104.059C461.405 103.339 459.366 101.539 457.686 99.2588C457.086 98.2988 456.966 97.4588 457.806 96.7388C458.766 96.0189 459.606 96.3788 460.206 97.3388C460.806 98.0588 461.405 98.8988 462.125 99.4988C465.005 102.139 467.765 102.139 470.525 99.4988C473.525 96.4988 476.525 93.4989 479.765 90.859C482.525 88.699 485.405 86.779 488.765 85.699C490.205 85.2191 491.765 85.0991 493.325 85.2191C494.165 85.3391 494.765 85.939 494.885 86.779C495.005 87.739 494.405 88.339 493.565 88.339C485.525 88.339 480.965 94.0989 475.685 98.7788C474.365 99.9788 473.165 101.419 471.725 102.619C469.565 104.419 466.925 105.019 463.445 104.059Z" fill="#433015"/>
<path d="M545.524 97.0991C545.764 96.1391 545.884 95.0591 544.924 94.3391C553.204 90.7392 559.684 85.0993 563.883 77.0594C564.483 75.9794 565.203 75.3795 566.403 76.0994C567.603 76.8194 567.123 77.8994 566.523 78.8594C561.724 87.3792 554.884 93.7391 545.524 97.0991Z" fill="#433015"/>
<path d="M543.004 101.539C552.724 101.779 560.164 97.9391 565.444 89.7793C567.004 90.1393 567.484 91.0993 567.004 92.6593C561.484 100.819 554.044 105.019 544.084 104.419C541.324 103.579 541.324 103.579 543.004 101.539Z" fill="#433015"/>
<path d="M567.124 92.6591C566.884 91.5792 566.404 90.6192 565.564 89.7792C566.644 87.8592 567.724 85.8193 568.684 83.8993C568.564 85.2193 569.524 85.3393 569.884 85.5793C572.043 85.8192 568.324 82.0993 571.803 83.6593C570.843 87.0192 569.164 89.8992 567.124 92.6591Z" fill="#433015"/>
<path d="M569.763 51.9798C570.363 50.0598 571.803 49.0998 573.723 49.4598C575.763 49.9398 576.723 51.4998 576.243 53.5397C575.763 55.4597 574.203 56.4197 572.283 56.0597C570.363 55.5797 569.523 54.1397 569.763 51.9798Z" fill="#433015"/>
<path d="M543.604 101.299C540.844 100.579 537.844 100.459 535.204 99.3787C534.364 99.0187 533.284 99.7387 533.164 100.579C532.924 101.539 533.524 102.379 534.364 102.619C537.124 103.579 540.004 103.699 542.764 104.539C543.604 104.779 544.684 104.179 544.804 103.339C545.044 102.379 544.564 101.539 543.604 101.299Z" fill="#433015"/>
<path d="M533.884 103.099C534.124 103.219 534.364 103.339 534.604 103.339C537.604 104.299 540.724 104.899 543.844 104.779C543.844 104.059 543.964 103.339 543.964 102.619C543.964 102.379 543.964 102.139 543.844 102.019C543.724 101.899 543.484 101.779 543.244 101.779C540.964 101.299 538.804 100.819 536.524 100.459C535.564 100.339 528.844 99.859 531.124 102.379C531.484 102.739 531.964 102.979 532.444 103.219C537.364 105.259 543.004 105.619 548.164 104.419C548.764 104.299 549.364 104.059 549.604 103.579C549.964 102.979 549.724 102.019 549.124 101.539C548.524 101.059 547.804 100.939 546.964 100.939C545.404 100.939 543.964 101.179 542.404 101.299C539.404 101.539 536.404 101.179 533.524 100.099C533.404 101.179 533.404 102.379 534.244 102.979C534.484 103.099 534.724 103.219 534.964 103.339C537.724 104.299 540.604 104.659 543.484 104.539C543.964 104.539 544.444 104.419 544.924 104.299C545.404 104.059 545.644 103.579 545.644 103.099C545.524 102.499 544.804 102.139 544.204 101.899C540.964 100.819 537.604 100.219 534.244 99.979C533.644 99.979 533.044 99.979 532.684 100.339C532.204 100.819 532.324 101.659 532.804 102.139C533.284 102.739 533.524 102.859 533.884 103.099Z" fill="#433015"/>
<path d="M548.164 104.419C550.324 105.019 551.164 101.659 549.004 101.179C546.964 100.579 546.124 103.819 548.164 104.419Z" fill="#433015"/>
<path d="M536.884 103.219C536.404 103.339 536.044 103.579 535.804 104.059C535.684 104.299 535.564 104.539 535.564 104.779C535.444 105.259 535.564 105.739 535.804 106.099C536.044 106.459 536.284 106.699 536.524 107.059C537.124 107.779 537.604 108.499 538.324 109.219C538.564 109.579 539.164 109.699 539.524 109.699C539.884 109.699 540.364 109.459 540.724 109.219C541.084 108.859 541.204 108.499 541.204 108.019C541.204 107.539 540.964 107.179 540.724 106.819C540.244 106.339 539.884 105.859 539.404 105.259C539.524 105.379 539.524 105.499 539.644 105.619C539.524 105.379 539.284 105.139 539.164 105.019C539.044 104.779 538.804 104.659 538.684 104.419C538.684 104.539 538.804 104.659 538.804 104.779V104.659C538.804 104.779 538.804 104.899 538.924 105.139V105.019C538.924 105.139 538.924 105.379 538.924 105.499C538.924 105.619 538.804 105.739 538.804 105.979C538.684 106.099 538.684 106.219 538.564 106.339C538.444 106.459 538.324 106.459 538.204 106.579C538.084 106.579 537.964 106.699 537.844 106.699C538.204 106.579 538.684 106.339 538.804 105.859C539.044 105.499 539.164 104.899 538.924 104.539C538.804 104.179 538.564 103.699 538.084 103.579C537.844 103.219 537.364 103.099 536.884 103.219Z" fill="#433015"/>
<path d="M536.164 104.059C536.284 104.539 536.284 105.139 536.524 105.619C536.764 106.099 537.004 106.579 537.244 107.059C537.724 107.899 538.444 108.619 539.044 109.339C539.284 109.699 539.884 109.819 540.244 109.819C540.604 109.819 541.084 109.579 541.444 109.339C541.804 108.979 541.924 108.619 541.924 108.139C541.924 107.659 541.684 107.299 541.444 106.939C541.084 106.579 540.844 106.219 540.604 105.859C540.724 105.979 540.724 106.099 540.844 106.219C540.364 105.619 540.004 105.019 539.764 104.419C539.764 104.539 539.884 104.659 539.884 104.779C539.764 104.419 539.644 104.059 539.524 103.579C539.524 103.699 539.524 103.819 539.644 104.059V103.939C539.644 103.699 539.644 103.459 539.524 103.339C539.404 103.099 539.284 102.979 539.164 102.739C538.924 102.499 538.324 102.259 537.964 102.259C537.484 102.259 537.124 102.379 536.764 102.739C536.404 103.099 536.044 103.579 536.164 104.059Z" fill="#433015"/>
<path d="M720.961 38.0605C720.121 36.5005 718.801 37.3405 717.721 37.9405C715.081 39.2604 712.561 40.7004 709.801 41.7804C697.801 46.9403 685.561 50.3002 672.362 48.2603C660.842 46.4603 651.602 40.8204 645.122 31.1006C644.882 30.6206 644.522 30.2606 644.162 29.7806C643.562 28.8206 642.722 28.5806 641.762 29.1806C640.682 29.7806 640.922 30.7406 641.282 31.5806C642.482 34.1005 644.162 36.1405 646.082 38.1805C657.722 50.5402 672.362 54.0202 688.681 51.7402C691.681 51.3802 694.681 50.5402 697.681 50.0602C689.161 57.8601 678.482 59.7801 666.962 58.2201C665.882 58.1001 664.682 57.8601 663.602 57.6201C661.682 58.3401 662.162 59.4201 663.242 60.6201C666.482 61.94 669.962 61.82 673.322 62.3C674.882 62.54 673.442 63.26 673.562 63.62C673.802 64.7 674.282 65.54 675.122 66.2599C675.242 66.3799 675.482 66.3799 675.602 66.3799C676.682 66.0199 677.642 65.66 678.602 65.18C681.122 64.1 683.161 62.66 685.561 61.94C693.841 57.3801 701.521 52.2202 708.721 46.3403C711.121 44.3003 714.481 43.4604 717.361 42.0204C717.961 41.7804 718.561 41.5404 719.041 41.3004C720.481 40.4604 722.041 39.8604 720.961 38.0605Z" fill="#433015"/>
<path d="M623.283 8.54091C627.602 4.58098 633.722 2.42103 639.362 3.861C643.922 4.94098 647.642 8.06092 651.482 10.7009C663.122 18.6207 676.922 22.7006 690.601 26.3006C698.521 28.3405 706.441 30.2605 714.361 32.1805C718.201 33.1404 722.041 33.9804 725.761 34.9404C726.601 35.1804 727.441 35.3004 728.161 34.9404C730.321 33.8604 728.041 32.5405 726.961 32.0605C725.281 31.4605 723.721 30.9805 722.041 30.3805C718.681 29.3005 715.441 28.4606 712.081 27.6206C705.361 25.9406 698.521 24.5006 691.801 22.8206C679.322 19.8207 666.842 16.2208 656.042 9.2609C651.122 6.14096 646.562 2.30102 640.922 0.741052C634.922 -0.938917 628.082 0.261064 623.163 4.10099C618.243 7.82092 615.123 13.7008 609.843 16.9408C607.323 18.5007 604.443 19.3407 601.923 21.1407C601.203 21.6207 600.603 22.4607 600.963 23.1806C601.203 23.6606 601.683 23.7806 602.283 23.9006C608.883 25.1006 616.323 21.2607 621.963 24.8606C626.042 27.5006 627.122 32.6605 628.442 37.2204C629.642 41.1803 629.762 44.7803 632.402 48.0202C632.762 48.3802 634.682 51.5001 635.042 51.7401C636.962 52.9401 638.642 52.1001 638.162 50.5401C637.322 47.5402 634.682 41.7803 633.482 38.9004C632.162 35.7804 630.722 32.6605 629.402 29.4205C628.322 27.0206 627.242 24.3806 625.203 22.7006C621.963 19.8207 617.163 19.7007 612.843 19.7007C616.683 17.5407 618.723 13.2208 621.603 9.98089C622.203 9.5009 622.683 9.0209 623.283 8.54091Z" fill="#433015"/>
<path d="M728.641 37.2199C727.801 37.5799 727.561 38.1799 727.681 39.0199C727.801 40.2199 728.641 40.4599 729.601 40.6998C734.4 41.6598 739.2 42.7398 744 43.6998C754.44 45.9797 764.76 48.1397 775.2 50.4197C775.56 50.5397 775.8 50.5397 776.16 50.6597C777.48 50.8997 779.04 51.4996 779.52 49.5797C780 47.5397 778.2 47.5397 777 47.2997C772.08 46.2197 767.28 45.2598 762.36 44.1798C752.04 42.0198 741.84 39.7399 731.521 37.5799C730.441 37.2199 729.601 36.8599 728.641 37.2199Z" fill="#433015"/>
<path d="M752.88 59.7796C755.04 58.8197 756.96 56.6597 758.52 54.0198C759.12 52.9398 759.12 51.9798 758.16 51.2598C757.08 50.5398 756.24 51.1398 755.64 52.2198C755.16 53.0598 754.56 54.0198 753.84 54.7397C751.08 57.8597 747.96 58.2197 744.72 55.5797C741.12 52.6998 737.64 49.6998 733.801 47.1799C730.681 45.1399 727.321 43.34 723.601 42.5C721.921 42.14 720.241 42.14 718.681 42.5C717.841 42.62 717.241 43.34 717.241 44.2999C717.241 45.3799 717.961 45.9799 718.801 45.8599C727.441 45.1399 732.961 50.8998 739.2 55.4597C740.76 56.6597 742.2 58.0997 743.88 59.1797C746.28 60.8596 749.04 61.2196 752.88 59.7796Z" fill="#433015"/>
<path d="M663.362 60.3797C663.002 59.2997 662.762 58.2197 663.722 57.3797C654.362 54.2598 646.922 48.8599 641.522 40.5801C640.802 39.3801 639.842 38.9001 638.762 39.7401C637.442 40.7001 638.162 41.78 638.882 42.74C644.882 51.4999 652.802 57.7397 663.362 60.3797Z" fill="#433015"/>
<path d="M666.482 64.9397C656.042 66.1397 647.522 62.7797 641.042 54.3799C639.362 54.9799 639.002 56.0599 639.602 57.6198C646.322 65.8997 654.842 69.7396 665.522 68.0596C668.522 66.9797 668.522 66.9797 666.482 64.9397Z" fill="#433015"/>
<path d="M639.602 57.74C639.722 56.54 640.202 55.4601 641.042 54.5001C639.722 52.4601 638.402 50.5402 637.082 48.5002C637.442 49.9402 636.362 50.1802 635.882 50.4202C633.602 50.9002 637.202 46.5802 633.602 48.5002C634.922 51.9801 636.962 54.9801 639.602 57.74Z" fill="#433015"/>
<path d="M632.642 13.9409C631.802 11.9009 630.122 11.0609 628.082 11.6609C625.922 12.3809 624.962 14.1809 625.682 16.3408C626.402 18.3808 628.202 19.2208 630.242 18.6208C632.402 18.0208 633.122 16.2208 632.642 13.9409Z" fill="#433015"/>
<path d="M665.762 64.6999C668.762 63.6199 671.882 63.1399 674.761 61.82C675.601 61.46 676.801 62.0599 677.161 62.8999C677.521 63.9799 677.041 64.8199 676.081 65.2999C673.202 66.6199 670.082 67.0998 667.082 68.1798C666.122 68.5398 665.042 68.0598 664.682 67.0999C664.322 66.1399 664.802 65.0599 665.762 64.6999Z" fill="#433015"/>
<path d="M668.642 68.5393C672.002 67.2193 675.482 66.3793 678.721 64.9394C678.961 64.8194 679.081 64.8194 679.201 64.6994C680.521 63.0194 678.601 62.6594 676.682 62.7794C676.322 62.6594 675.962 62.7794 675.602 62.7794C672.722 63.1394 669.962 63.8594 667.322 64.8194C667.202 64.8194 666.962 64.8194 666.842 64.8194C665.162 64.8194 663.602 64.6994 661.922 64.8194C661.082 64.9394 660.242 65.0594 659.642 65.6594C659.042 66.2594 658.802 67.2193 659.282 67.8193C659.642 68.2993 660.362 68.4193 660.962 68.5393C663.602 68.8993 666.122 68.8993 668.642 68.5393Z" fill="#433015"/>
<path d="M661.082 68.5399C658.802 69.3799 657.602 65.9 659.762 65.06C662.162 64.22 663.362 67.6999 661.082 68.5399Z" fill="#433015"/>
<path d="M679.921 66.26C681.241 67.22 682.681 68.18 683.881 69.2599C684.481 69.7399 685.201 70.3399 685.801 70.9399C686.161 71.1799 686.401 71.5399 686.761 71.7799C687.241 72.3799 687.361 72.3799 687.121 71.8999C687.121 71.4199 687.121 70.9399 687.121 70.4599C686.881 71.5399 685.681 72.7399 685.081 73.6999C684.361 74.7798 683.521 75.9798 682.801 77.0598C681.241 79.4598 679.561 81.7397 678.002 84.1397C674.762 88.6996 671.522 93.2595 668.282 97.8194C667.442 99.0194 668.042 100.939 669.242 101.539C670.682 102.379 672.122 101.779 672.962 100.579C678.002 93.6195 682.921 86.6596 687.721 79.5797C688.921 77.8998 690.001 76.2198 691.201 74.4199C692.281 72.7399 693.121 70.9399 691.801 69.1399C690.841 67.7 689.161 66.5 687.721 65.42C686.041 64.1 684.361 62.7801 682.561 61.5801C679.801 59.5401 677.042 64.34 679.921 66.26Z" fill="#433015"/>
<path d="M688.801 61.2196C690.601 62.5395 692.281 63.8595 693.841 65.1795C695.281 66.3795 697.561 67.8194 698.281 69.4994C698.161 69.0194 698.041 68.5394 697.921 68.0594C698.161 69.9794 696.961 72.4994 696.361 74.2993C695.761 76.4593 695.161 78.6192 694.561 80.8992C693.361 85.2191 692.161 89.659 690.841 93.979C689.881 97.4589 695.161 98.8989 696.121 95.4189C698.281 87.8591 700.321 80.2992 702.481 72.6194C702.961 70.9394 703.681 69.0194 703.201 67.2195C702.721 65.5395 701.281 64.3395 700.081 63.2595C697.321 60.7396 694.441 58.4596 691.441 56.1796C690.241 55.3397 688.321 55.9397 687.721 57.1396C687.001 58.8196 687.601 60.2596 688.801 61.2196Z" fill="#433015"/>
<path d="M693.121 99.139C696.721 99.139 696.721 93.6191 693.121 93.6191C689.641 93.7391 689.641 99.139 693.121 99.139Z" fill="#433015"/>
</g>
<path d="M53.3818 186.602V284H31.6411V186.602H53.3818ZM83.0161 186.602V203.526H2.60889V186.602H83.0161ZM113.119 181.25V284H92.2476V181.25H113.119ZM110.376 245.268L105.158 245.402C105.158 240.318 105.783 235.658 107.031 231.421C108.325 227.14 110.153 223.416 112.517 220.25C114.88 217.083 117.712 214.63 121.012 212.891C124.357 211.152 128.036 210.282 132.05 210.282C135.618 210.282 138.873 210.795 141.816 211.821C144.76 212.847 147.302 214.474 149.442 216.704C151.583 218.934 153.233 221.855 154.393 225.467C155.552 229.08 156.132 233.472 156.132 238.646V284H135.127V238.512C135.127 235.435 134.681 233.026 133.789 231.287C132.942 229.548 131.693 228.321 130.043 227.608C128.438 226.894 126.475 226.538 124.156 226.538C121.436 226.538 119.184 227.028 117.4 228.009C115.616 228.946 114.211 230.261 113.186 231.956C112.16 233.651 111.424 235.635 110.978 237.91C110.577 240.184 110.376 242.637 110.376 245.268ZM208.109 266.741V235.702C208.109 233.517 207.774 231.644 207.105 230.083C206.437 228.522 205.389 227.296 203.961 226.404C202.534 225.512 200.684 225.066 198.409 225.066C196.492 225.066 194.819 225.4 193.392 226.069C192.01 226.738 190.939 227.697 190.181 228.946C189.468 230.194 189.111 231.733 189.111 233.562H168.24C168.24 230.306 168.976 227.273 170.447 224.464C171.919 221.654 174.015 219.179 176.735 217.039C179.5 214.898 182.8 213.248 186.636 212.088C190.471 210.884 194.775 210.282 199.546 210.282C205.21 210.282 210.25 211.241 214.665 213.159C219.124 215.032 222.647 217.864 225.234 221.654C227.82 225.4 229.114 230.128 229.114 235.836V266.139C229.114 270.51 229.359 273.944 229.85 276.441C230.385 278.894 231.143 281.034 232.124 282.863V284H211.052C210.071 281.904 209.335 279.317 208.845 276.24C208.354 273.118 208.109 269.952 208.109 266.741ZM210.718 239.85L210.852 251.355H200.483C198.164 251.355 196.157 251.645 194.462 252.225C192.812 252.805 191.474 253.608 190.449 254.633C189.423 255.614 188.665 256.774 188.174 258.112C187.728 259.405 187.505 260.832 187.505 262.393C187.505 263.865 187.862 265.203 188.576 266.407C189.289 267.566 190.27 268.48 191.519 269.149C192.768 269.818 194.217 270.153 195.867 270.153C198.588 270.153 200.907 269.618 202.824 268.547C204.786 267.477 206.303 266.184 207.373 264.667C208.443 263.107 208.979 261.657 208.979 260.319L213.996 269.016C213.193 270.799 212.212 272.65 211.052 274.568C209.893 276.441 208.421 278.202 206.637 279.853C204.853 281.458 202.69 282.774 200.148 283.799C197.651 284.825 194.641 285.338 191.118 285.338C186.569 285.338 182.444 284.424 178.742 282.595C175.041 280.722 172.075 278.158 169.845 274.902C167.66 271.647 166.567 267.901 166.567 263.664C166.567 259.873 167.259 256.506 168.641 253.563C170.024 250.62 172.097 248.122 174.862 246.071C177.672 244.019 181.195 242.481 185.432 241.455C189.668 240.385 194.618 239.85 200.282 239.85H210.718ZM263.297 227.073V284H242.359V211.62H262.026L263.297 227.073ZM260.554 245.268L255.336 245.402C255.336 239.961 256.005 235.078 257.343 230.752C258.681 226.426 260.576 222.747 263.029 219.714C265.527 216.637 268.492 214.296 271.926 212.69C275.405 211.085 279.24 210.282 283.432 210.282C286.821 210.282 289.921 210.773 292.73 211.754C295.54 212.735 297.948 214.318 299.955 216.503C302.007 218.644 303.567 221.498 304.638 225.066C305.708 228.589 306.243 232.937 306.243 238.11V284H285.238V238.043C285.238 235.011 284.815 232.67 283.967 231.02C283.12 229.369 281.871 228.21 280.221 227.541C278.616 226.872 276.653 226.538 274.334 226.538C271.882 226.538 269.786 227.028 268.046 228.009C266.307 228.946 264.88 230.261 263.765 231.956C262.65 233.651 261.825 235.635 261.29 237.91C260.799 240.184 260.554 242.637 260.554 245.268ZM340.895 181.183V284H319.957V181.183H340.895ZM386.851 211.62L355.344 248.011L338.687 264.734L330.325 250.62L343.838 233.16L361.699 211.62H386.851ZM364.776 284L344.373 250.753L359.357 239.047L388.724 284H364.776ZM444.782 186.602L463.847 229.949L483.045 186.602H506.592L474.951 248.813V284H452.809V248.813L421.101 186.602H444.782ZM506.191 248.546V247.141C506.191 241.834 506.949 236.951 508.465 232.491C509.982 227.987 512.211 224.085 515.155 220.785C518.098 217.485 521.71 214.92 525.992 213.092C530.273 211.219 535.179 210.282 540.708 210.282C546.328 210.282 551.278 211.219 555.559 213.092C559.885 214.92 563.52 217.485 566.463 220.785C569.406 224.085 571.636 227.987 573.152 232.491C574.669 236.951 575.427 241.834 575.427 247.141V248.546C575.427 253.808 574.669 258.692 573.152 263.196C571.636 267.655 569.406 271.558 566.463 274.902C563.52 278.202 559.907 280.767 555.626 282.595C551.345 284.424 546.417 285.338 540.842 285.338C535.312 285.338 530.384 284.424 526.059 282.595C521.733 280.767 518.098 278.202 515.155 274.902C512.211 271.558 509.982 267.655 508.465 263.196C506.949 258.692 506.191 253.808 506.191 248.546ZM527.129 247.141V248.546C527.129 251.4 527.352 254.076 527.798 256.573C528.288 259.071 529.069 261.256 530.139 263.129C531.209 265.002 532.614 266.474 534.354 267.544C536.137 268.57 538.3 269.083 540.842 269.083C543.384 269.083 545.525 268.57 547.264 267.544C549.003 266.474 550.408 265.002 551.479 263.129C552.549 261.256 553.307 259.071 553.753 256.573C554.243 254.076 554.489 251.4 554.489 248.546V247.141C554.489 244.332 554.243 241.7 553.753 239.248C553.307 236.75 552.549 234.543 551.479 232.625C550.408 230.707 548.981 229.213 547.197 228.143C545.458 227.073 543.295 226.538 540.708 226.538C538.211 226.538 536.093 227.073 534.354 228.143C532.614 229.213 531.209 230.707 530.139 232.625C529.069 234.543 528.288 236.75 527.798 239.248C527.352 241.7 527.129 244.332 527.129 247.141ZM628.875 266.541V211.62H649.88V284H630.213L628.875 266.541ZM631.083 251.757L636.836 251.623C636.836 256.484 636.256 260.966 635.097 265.069C633.982 269.172 632.287 272.739 630.013 275.772C627.783 278.805 624.996 281.168 621.651 282.863C618.351 284.513 614.493 285.338 610.078 285.338C606.51 285.338 603.233 284.847 600.245 283.866C597.301 282.84 594.759 281.257 592.619 279.117C590.478 276.931 588.828 274.144 587.668 270.755C586.509 267.321 585.929 263.218 585.929 258.446V211.62H606.8V258.58C606.8 260.453 607.023 262.059 607.469 263.396C607.96 264.69 608.606 265.76 609.409 266.607C610.257 267.455 611.282 268.079 612.486 268.48C613.735 268.882 615.095 269.083 616.567 269.083C620.268 269.083 623.167 268.324 625.263 266.808C627.404 265.247 628.898 263.174 629.745 260.587C630.637 257.956 631.083 255.012 631.083 251.757Z" fill="#D3D3D3"/>
</svg>
