<svg width="347" height="179" viewBox="0 0 347 179" fill="none" xmlns="http://www.w3.org/2000/svg">
<path d="M35.8477 90.5938V156H21.248V90.5938H35.8477ZM55.748 90.5938V101.959H1.75195V90.5938H55.748ZM116.258 121.859V124.779C116.258 129.751 115.569 134.213 114.191 138.166C112.844 142.119 110.912 145.488 108.396 148.273C105.911 151.059 102.946 153.2 99.502 154.697C96.0879 156.165 92.2995 156.898 88.1367 156.898C83.974 156.898 80.1706 156.165 76.7266 154.697C73.2826 153.2 70.2878 151.059 67.7422 148.273C65.2266 145.488 63.2799 142.119 61.9023 138.166C60.5247 134.213 59.8359 129.751 59.8359 124.779V121.859C59.8359 116.888 60.5247 112.426 61.9023 108.473C63.2799 104.49 65.2116 101.105 67.6973 98.3203C70.2129 95.5352 73.1927 93.4089 76.6367 91.9414C80.0807 90.444 83.8841 89.6953 88.0469 89.6953C92.2096 89.6953 96.013 90.444 99.457 91.9414C102.901 93.4089 105.866 95.5352 108.352 98.3203C110.867 101.105 112.814 104.49 114.191 108.473C115.569 112.426 116.258 116.888 116.258 121.859ZM101.479 124.779V121.77C101.479 118.445 101.179 115.51 100.58 112.965C99.9811 110.389 99.1126 108.233 97.9746 106.496C96.8366 104.759 95.429 103.456 93.752 102.588C92.0749 101.689 90.1732 101.24 88.0469 101.24C85.8307 101.24 83.8991 101.689 82.252 102.588C80.6048 103.456 79.2122 104.759 78.0742 106.496C76.9661 108.233 76.1126 110.389 75.5137 112.965C74.9447 115.51 74.6602 118.445 74.6602 121.77V124.779C74.6602 128.074 74.9447 131.008 75.5137 133.584C76.1126 136.13 76.9811 138.286 78.1191 140.053C79.2572 141.82 80.6497 143.152 82.2969 144.051C83.974 144.949 85.9206 145.398 88.1367 145.398C90.263 145.398 92.1497 144.949 93.7969 144.051C95.474 143.152 96.8815 141.82 98.0195 140.053C99.1576 138.286 100.011 136.13 100.58 133.584C101.179 131.008 101.479 128.074 101.479 124.779ZM179.777 121.859V124.779C179.777 129.751 179.089 134.213 177.711 138.166C176.363 142.119 174.432 145.488 171.916 148.273C169.43 151.059 166.465 153.2 163.021 154.697C159.607 156.165 155.819 156.898 151.656 156.898C147.493 156.898 143.69 156.165 140.246 154.697C136.802 153.2 133.807 151.059 131.262 148.273C128.746 145.488 126.799 142.119 125.422 138.166C124.044 134.213 123.355 129.751 123.355 124.779V121.859C123.355 116.888 124.044 112.426 125.422 108.473C126.799 104.49 128.731 101.105 131.217 98.3203C133.732 95.5352 136.712 93.4089 140.156 91.9414C143.6 90.444 147.404 89.6953 151.566 89.6953C155.729 89.6953 159.533 90.444 162.977 91.9414C166.421 93.4089 169.385 95.5352 171.871 98.3203C174.387 101.105 176.333 104.49 177.711 108.473C179.089 112.426 179.777 116.888 179.777 121.859ZM164.998 124.779V121.77C164.998 118.445 164.699 115.51 164.1 112.965C163.501 110.389 162.632 108.233 161.494 106.496C160.356 104.759 158.949 103.456 157.271 102.588C155.594 101.689 153.693 101.24 151.566 101.24C149.35 101.24 147.419 101.689 145.771 102.588C144.124 103.456 142.732 104.759 141.594 106.496C140.486 108.233 139.632 110.389 139.033 112.965C138.464 115.51 138.18 118.445 138.18 121.77V124.779C138.18 128.074 138.464 131.008 139.033 133.584C139.632 136.13 140.501 138.286 141.639 140.053C142.777 141.82 144.169 143.152 145.816 144.051C147.493 144.949 149.44 145.398 151.656 145.398C153.783 145.398 155.669 144.949 157.316 144.051C158.993 143.152 160.401 141.82 161.539 140.053C162.677 138.286 163.531 136.13 164.1 133.584C164.699 131.008 164.998 128.074 164.998 124.779ZM231.438 144.68V156H198.42V144.68H231.438ZM203.406 90.5938V156H188.762V90.5938H203.406ZM272.541 138.75C272.541 137.642 272.376 136.654 272.047 135.785C271.717 134.887 271.118 134.063 270.25 133.314C269.382 132.566 268.154 131.817 266.566 131.068C264.979 130.29 262.898 129.496 260.322 128.688C257.387 127.729 254.587 126.651 251.922 125.453C249.286 124.225 246.936 122.803 244.869 121.186C242.803 119.568 241.171 117.682 239.973 115.525C238.805 113.369 238.221 110.854 238.221 107.979C238.221 105.193 238.835 102.678 240.062 100.432C241.29 98.1855 243.012 96.2689 245.229 94.6816C247.445 93.0645 250.05 91.8366 253.045 90.998C256.04 90.1296 259.334 89.6953 262.928 89.6953C267.719 89.6953 271.927 90.5488 275.551 92.2559C279.204 93.9329 282.049 96.2988 284.086 99.3535C286.122 102.378 287.141 105.897 287.141 109.91H272.586C272.586 108.143 272.212 106.586 271.463 105.238C270.744 103.861 269.636 102.783 268.139 102.004C266.671 101.225 264.829 100.836 262.613 100.836C260.457 100.836 258.645 101.165 257.178 101.824C255.74 102.453 254.647 103.322 253.898 104.43C253.18 105.538 252.82 106.751 252.82 108.068C252.82 109.117 253.09 110.075 253.629 110.943C254.198 111.782 255.007 112.576 256.055 113.324C257.133 114.043 258.451 114.732 260.008 115.391C261.565 116.049 263.347 116.678 265.354 117.277C268.857 118.385 271.957 119.613 274.652 120.961C277.378 122.309 279.669 123.836 281.525 125.543C283.382 127.25 284.775 129.182 285.703 131.338C286.661 133.494 287.141 135.935 287.141 138.66C287.141 141.565 286.572 144.141 285.434 146.387C284.326 148.633 282.708 150.549 280.582 152.137C278.486 153.694 275.97 154.877 273.035 155.686C270.1 156.494 266.821 156.898 263.197 156.898C259.903 156.898 256.654 156.479 253.449 155.641C250.245 154.772 247.34 153.454 244.734 151.688C242.159 149.921 240.092 147.674 238.535 144.949C237.008 142.194 236.244 138.93 236.244 135.156H250.889C250.889 137.133 251.173 138.81 251.742 140.188C252.311 141.535 253.12 142.628 254.168 143.467C255.246 144.305 256.549 144.904 258.076 145.264C259.604 145.623 261.311 145.803 263.197 145.803C265.383 145.803 267.15 145.503 268.498 144.904C269.876 144.275 270.894 143.422 271.553 142.344C272.212 141.266 272.541 140.068 272.541 138.75ZM295.766 149.352C295.766 147.315 296.484 145.608 297.922 144.23C299.389 142.853 301.291 142.164 303.627 142.164C305.993 142.164 307.88 142.853 309.287 144.23C310.725 145.608 311.443 147.315 311.443 149.352C311.443 151.358 310.725 153.05 309.287 154.428C307.88 155.805 305.993 156.494 303.627 156.494C301.291 156.494 299.389 155.805 297.922 154.428C296.484 153.05 295.766 151.358 295.766 149.352ZM295.766 112.875C295.766 110.839 296.484 109.132 297.922 107.754C299.389 106.376 301.291 105.688 303.627 105.688C305.993 105.688 307.88 106.376 309.287 107.754C310.725 109.132 311.443 110.839 311.443 112.875C311.443 114.882 310.725 116.574 309.287 117.951C307.88 119.329 305.993 120.018 303.627 120.018C301.291 120.018 299.389 119.329 297.922 117.951C296.484 116.574 295.766 114.882 295.766 112.875Z" fill="#628D3C"/>
<path d="M190.769 135.397C191.245 134.364 192.906 134.334 194.216 134.292C196.394 134.105 198.48 133.827 200.358 132.843C204.289 130.88 206.809 126.858 208.278 122.8C209.755 118.916 210.674 114.314 213.411 111.174C215.982 108.203 219.478 106.313 223.367 105.31C232.005 102.986 241.744 103.585 250.798 104.51C253.085 104.764 255.546 105.024 257.841 105.453C260.22 105.798 262.523 106.402 264.868 106.046C267.388 105.696 269.141 103.92 270.084 101.68C270.869 99.7832 271.294 97.6996 272.346 95.8998C274.624 92.3065 279.264 90.5434 283.445 90.1633C288.411 89.723 293.535 90.7744 298.567 91.7353C297.807 90.485 296.956 89.1441 296.197 87.8938C296.13 88.3286 295.98 88.848 295.646 89.1862C295.563 89.2708 295.054 89.6029 295.137 89.5183C295.212 89.2586 295.963 90.3338 295.788 90.3277C295.696 90.2371 295.771 89.9774 295.855 89.8929C296.547 87.9059 298.651 86.1425 300.145 84.4455C303.967 80.2061 308.34 76.5103 312.338 72.2769C316.085 68.2971 318.222 63.5623 317.596 57.7702C317.296 55.1368 316.645 52.4914 316.345 49.858C316.036 47.0496 316.078 44.2532 316.12 41.4568C316.237 38.4008 316.529 35.3508 316.913 32.3914C317.231 29.8668 317.406 26.2007 319.785 24.7092C321.053 23.7913 321.671 22.064 320.811 20.548C319.96 19.2071 317.908 18.3492 316.547 19.1765C310.697 23.0835 310.822 31.219 310.345 37.7599C310.07 41.1602 309.969 44.5666 310.22 47.9851C310.453 51.0533 311.212 54.1396 311.538 57.2984C311.863 60.4572 311.462 63.0663 309.743 65.5424C308.107 67.9339 305.829 69.6912 303.734 71.6297C301.138 74.0755 298.718 76.5274 296.306 79.1544C294.311 81.3586 291.708 83.6293 290.531 86.4739C289.112 89.7472 289.929 94.0596 294.01 95.2499C298.45 96.6274 301.437 93.2334 302.481 89.4225C302.848 87.9488 301.697 85.8107 300.111 85.581C290.84 83.7742 280.517 81.931 272.538 87.0759C270.502 88.4044 268.825 89.9202 267.431 91.8829C266.121 93.7611 265.695 95.8448 264.835 98.0008C264.685 98.5202 264.376 99.3839 263.859 99.5409C263.091 99.9515 261.847 99.5588 261.055 99.4439C258.409 99.0027 255.856 98.6522 253.302 98.3016C243.714 97.1832 233.532 96.4815 224.261 98.3468C219.671 99.3247 215.29 101.009 211.668 103.944C208.046 106.879 205.876 110.913 204.34 115.407C202.871 119.465 201.719 124.671 197.629 126.978C195.752 127.962 193.382 127.793 191.212 128.155C188.692 128.505 186.472 129.652 185.27 131.972C183.609 135.674 189.192 139.014 190.769 135.397Z" fill="#163F22"/>
</svg>
