<svg width="754" height="243" viewBox="0 0 754 243" fill="none" xmlns="http://www.w3.org/2000/svg">
<path d="M208.039 146.825L227.438 61.6016H238.61L243.025 72.1709L222.354 159H210.113L208.039 146.825ZM200.48 61.6016L216.735 147.227L213.926 159H200.012L178.873 61.6016H200.48ZM256.872 146.758L272.927 61.6016H294.467L273.328 159H259.548L256.872 146.758ZM245.901 61.6016L265.568 147.293L263.294 159H251.119L230.114 72.104L234.73 61.6016H245.901ZM385.711 108.16V112.508C385.711 119.911 384.685 126.556 382.634 132.443C380.627 138.33 377.75 143.347 374.004 147.494C370.303 151.642 365.888 154.83 360.759 157.06C355.675 159.245 350.034 160.338 343.835 160.338C337.636 160.338 331.972 159.245 326.844 157.06C321.715 154.83 317.256 151.642 313.465 147.494C309.719 143.347 306.82 138.33 304.769 132.443C302.717 126.556 301.691 119.911 301.691 112.508V108.16C301.691 100.757 302.717 94.1123 304.769 88.2256C306.82 82.2943 309.696 77.2549 313.398 73.1074C317.144 68.96 321.581 65.7936 326.71 63.6084C331.839 61.3786 337.502 60.2637 343.701 60.2637C349.9 60.2637 355.564 61.3786 360.692 63.6084C365.821 65.7936 370.236 68.96 373.938 73.1074C377.684 77.2549 380.582 82.2943 382.634 88.2256C384.685 94.1123 385.711 100.757 385.711 108.16ZM363.703 112.508V108.026C363.703 103.076 363.257 98.7057 362.365 94.915C361.473 91.0798 360.18 87.8688 358.485 85.2822C356.79 82.6956 354.694 80.7557 352.197 79.4624C349.699 78.1245 346.868 77.4556 343.701 77.4556C340.401 77.4556 337.525 78.1245 335.072 79.4624C332.619 80.7557 330.545 82.6956 328.851 85.2822C327.201 87.8688 325.93 91.0798 325.038 94.915C324.19 98.7057 323.767 103.076 323.767 108.026V112.508C323.767 117.414 324.19 121.784 325.038 125.62C325.93 129.41 327.223 132.621 328.917 135.252C330.612 137.884 332.686 139.868 335.139 141.206C337.636 142.544 340.535 143.213 343.835 143.213C347.001 143.213 349.811 142.544 352.264 141.206C354.761 139.868 356.857 137.884 358.552 135.252C360.246 132.621 361.517 129.41 362.365 125.62C363.257 121.784 363.703 117.414 363.703 112.508ZM399.09 61.6016H436.484C443.931 61.6016 450.376 62.7165 455.816 64.9463C461.302 67.1761 465.516 70.4762 468.459 74.8467C471.403 79.2171 472.875 84.6133 472.875 91.0352C472.875 96.3867 472.005 100.936 470.266 104.682C468.526 108.428 466.074 111.527 462.907 113.98C459.785 116.433 456.129 118.417 451.937 119.934L444.846 123.813H413.004L412.87 106.889H436.551C439.806 106.889 442.504 106.309 444.645 105.15C446.786 103.99 448.391 102.363 449.461 100.267C450.576 98.126 451.134 95.6286 451.134 92.7744C451.134 89.8311 450.576 87.2891 449.461 85.1484C448.347 83.0078 446.696 81.38 444.511 80.2651C442.371 79.1056 439.695 78.5259 436.484 78.5259H420.897V159H399.09V61.6016ZM453.007 159L431.132 115.719L454.144 115.652L476.353 157.997V159H453.007ZM509.466 61.6016V159H487.658V61.6016H509.466ZM567.664 61.6016L529.534 110.301L507.325 134.383L503.378 114.114L518.028 93.1089L540.906 61.6016H567.664ZM542.378 159L515.486 114.515L532.076 101.604L568.199 159H542.378Z" fill="black" fill-opacity="0.12"/>
<path d="M598.558 48.3682C589.223 63.9234 566.789 71.4787 545.258 74.5897C519.813 78.3674 493.313 77.4785 468.621 84.0339C457.479 87.0338 446.939 91.3671 438.658 97.8114C430.679 104.033 424.957 111.922 422.247 120.255C421.042 123.922 419.988 128.144 421.645 131.81C423.451 135.81 428.872 138.144 434.443 136.477C445.584 133.255 446.638 121.7 443.175 114.589C434.292 96.3669 403.426 92.9226 380.541 92.367C366.839 92.0337 353.138 92.7004 339.587 92.5893C327.241 92.4781 314.895 91.9226 302.548 90.4782C290.503 89.0338 278.458 86.7005 267.166 83.1451C261.444 81.3673 256.024 79.2562 250.754 76.8119C245.786 74.4786 240.968 71.9231 235.848 69.7009C226.062 65.3677 214.619 62.1456 203.176 64.7011C192.938 66.9232 184.807 73.0342 180.29 80.034C178.032 83.4784 175.623 88.0338 176.526 91.9226C177.731 96.8113 184.807 97.478 190.378 97.7002C201.52 98.1447 212.36 94.1448 214.769 85.5894C216.877 77.8119 212.36 70.0343 204.079 65.1455C194.443 59.479 182.398 57.8124 170.503 56.368C163.728 55.5902 157.103 54.8125 150.629 53.3681C145.961 52.257 144.004 57.7013 148.672 58.7012C160.265 61.3678 172.611 61.59 184.205 64.0344C192.938 65.8122 202.875 69.3676 206.488 76.0341C209.349 81.4784 208.144 88.8115 199.863 91.2559C195.497 92.5892 189.776 92.4781 185.259 91.5893C183.452 91.2559 183.753 90.1448 184.054 89.0338C184.506 87.256 185.259 85.4783 186.162 83.8117C189.474 77.923 196.099 72.3675 204.531 70.3676C214.468 67.9232 224.255 71.1454 232.686 74.923C242.172 79.2563 251.055 84.0339 261.294 87.3671C271.683 90.8115 282.523 93.367 293.665 95.0336C316.701 98.478 339.888 98.3669 363.226 98.0335C375.723 97.9224 388.52 97.9224 400.867 99.5891C411.256 101.033 421.946 103.478 429.474 109.033C435.798 113.7 439.562 121.366 435.798 127.811C434.894 129.366 430.528 133.81 428.571 130.477C426.914 127.588 428.571 123.7 429.474 120.811C432.034 113.478 437.153 106.7 444.38 101.256C451.757 95.7003 461.092 91.8115 470.879 89.256C493.313 83.3673 517.554 83.5895 540.892 80.7007C561.519 78.1452 583.05 72.5898 596.751 60.2568C599.913 57.4791 602.472 54.3681 604.58 51.0348C605.333 49.7015 605.182 48.0349 603.225 47.2571C602.021 46.7016 599.31 47.0349 598.558 48.3682Z" fill="#58852F"/>
<path d="M12.0689 153.2C12.0689 153.2 21.8689 127.9 46.4689 121.6C71.0689 115.3 15.1689 153.9 15.1689 153.9L12.0689 153.2Z" fill="#96C11E" fill-opacity="0.42"/>
<path d="M146.369 60.9C135.969 66.6 128.669 75.2 123.369 85.7C121.769 88.8 120.069 91.8 118.369 94.8C113.769 102.7 107.569 108.1 98.0689 109C93.8689 109.4 89.7689 110.4 84.6689 111.3C87.0689 107.8 89.1689 104.8 91.1689 101.9C95.4689 96.7 97.4689 90.4 99.3689 84C101.069 78.3 102.769 72.5 105.669 67.3C110.069 59.4 116.069 53.6 125.269 51.8C128.069 51.3 130.869 51.2 133.569 52.3C138.469 54.2 143.069 56.6 146.369 60.9Z" fill="#96C11E" fill-opacity="0.42"/>
<path d="M160.769 57.1C153.569 56 146.069 57 139.469 52.1C125.769 42 110.069 44.5 99.3689 57.7C97.0689 60.6 95.1689 63.8 92.7689 67.4C90.8689 57.8 85.7689 50.4 78.8689 44.2C64.2689 31.1 49.5689 18.1 40.2689 0C34.3689 10.5 31.5689 21.1 29.7689 32.4C19.4689 26.7 10.5689 20.2 1.46892 12.3C-2.03108 36 -0.231075 57.8 17.4689 75.5C33.9689 91.8 54.9689 95 77.4689 91.8C26.3689 70.7 27.7689 32.9 40.7689 7.60001C49.7689 22.6 62.5689 34.1 75.4689 45.5C78.9689 48.6 82.1689 52.1 84.6689 56.1C88.3689 62 90.5689 68.3 89.3689 75.1C87.5689 85.2 83.5689 94.5 77.3689 103C73.6689 108 69.6689 111.9 62.8689 112.5C60.2689 112.8 57.7689 113.8 55.1689 114.5C30.3689 121.3 16.5689 138.7 6.56892 159.9C7.76892 160.4 8.46892 159.9 9.16892 159.5C31.9689 148.3 52.7689 134.6 70.0689 116.3C72.2689 114 74.5689 112.8 77.6689 112.4C82.0689 111.8 86.4689 110.8 90.9689 110.3C101.969 109.1 109.669 103.6 114.969 94.5C118.469 88.6 121.769 82.5 125.869 76.9C133.569 66.4 144.869 58.8 158.269 58.7C161.969 58.7 165.869 58.8 169.269 57.4C166.069 57.4 163.369 57.5 160.769 57.1ZM65.3689 89.1C53.3689 90.5 40.9689 87.8 30.6689 81.6C20.3689 75.4 12.1689 65.7 7.76892 54.5C3.96892 44.9 3.06892 34.4 3.66892 24.2C3.76892 23.1 3.66892 21.7 3.96892 20.6C4.46892 18.9 4.86892 19.6 6.06892 20.5C12.3689 25.3 18.9689 29.6 25.8689 33.4C27.3689 34.2 28.9689 35.1 29.6689 36.7C30.0689 37.7 30.0689 38.9 30.0689 40C30.1689 50.6 34.4689 60.9 40.8689 69.3C47.2689 77.7 55.9689 84.2 65.3689 89.1ZM13.9689 153.2C24.2689 131.9 42.3689 120.4 66.9689 114.9C51.0689 131.3 33.4689 143.3 13.9689 153.2ZM141.769 59.3C130.769 65 123.069 73.6 117.369 84.1C115.669 87.2 113.869 90.2 112.069 93.2C107.169 101.1 100.569 106.5 90.4689 107.4C86.0689 107.8 81.6689 108.8 76.2689 109.7C78.8689 106.2 80.9689 103.2 83.1689 100.3C87.9689 92.3 90.7689 83.5 93.6689 74.8C96.1689 67.5 99.7689 60.8 105.869 55.6C113.169 49.4 125.569 45.1 136.569 53.9C138.469 55.4 140.869 56.4 142.669 57.9C144.369 59.1 142.569 59.1 141.769 59.3Z" fill="#23232E"/>
<path d="M584 57.9001C587.4 59.3001 590.4 59.2001 593.3 59.2001C608.4 59.1001 619.2 66.3001 627.4 77.5001C631.5 83.1001 634.8 89.1001 638.3 95.1001C643.6 104.1 651.4 109.6 662.3 110.9C666.7 111.4 671.1 112.3 675.6 113C678.7 113.4 681 114.6 683.2 116.9C700.4 135.2 721.3 148.9 744.1 160.1C744.8 160.4 745.4 161 746.7 160.5C736.7 139.2 722.8 121.9 698.1 115.1C695.5 114.4 693 113.3 690.4 113.1C683.6 112.4 679.6 108.6 675.9 103.6C669.7 95.1001 665.7 85.8001 663.9 75.7001C662.7 68.9001 664.9 62.5001 668.6 56.7001C671.1 52.7001 674.2 49.2001 677.8 46.1001C690.7 34.7001 703.6 23.2001 712.5 8.20009C725.4 33.6001 726.9 71.3001 675.8 92.4001C698.4 95.7001 719.3 92.5001 735.7 76.1001C753.5 58.4001 755.2 36.5001 751.7 12.9001C742.7 20.8001 733.7 27.3001 723.4 33.0001C721.7 21.7001 718.8 11.1001 712.9 0.600098C703.7 18.7001 689 31.7001 674.3 44.8001C667.4 51.0001 662.3 58.3001 660.4 68.0001C658 64.4001 656.1 61.2001 653.8 58.3001C643.1 45.1001 627.4 42.7001 613.7 52.7001C607 57.6001 599.6 56.6001 592.4 57.7001C589.9 57.8001 587.3 57.7001 584 57.9001ZM723.7 37.7001C724 37.0001 724.5 36.5001 725 36.0001C728.4 32.6001 732.9 30.4001 737.1 28.1001C739.3 26.9001 741.4 25.6001 743.4 24.1001C745.4 22.6001 747 20.5001 749.4 19.6001C750.8 31.6001 750 44.2001 745.5 55.4001C741 66.5001 732.8 76.0001 722.5 82.1001C715.8 86.1001 708.3 88.6001 700.6 89.5001C698.7 89.7001 696.7 89.9001 694.7 89.9001C693.8 89.9001 692.8 89.9001 691.9 89.9001C691.3 89.9001 689.4 90.1001 688.9 89.7001C687.9 88.9001 691.4 87.5001 692.2 87.1001C693.8 86.2001 695.4 85.2001 697 84.1001C702.9 80.2001 708.2 75.4001 712.6 69.8001C719.1 61.5001 723.2 51.2001 723.4 40.6001C723.3 39.6001 723.3 38.6001 723.7 37.7001ZM686.3 115.2C710.9 120.7 729 132.2 739.3 153.5C719.9 143.6 702.3 131.5 686.3 115.2ZM610.5 58.1001C612.3 56.6001 614.7 55.6001 616.6 54.1001C627.6 45.3001 640 49.6001 647.3 55.8001C653.4 61.0001 657.1 67.7001 659.5 75.0001C662.4 83.7001 665.1 92.5001 670 100.5C672.2 103.4 674.3 106.4 676.9 109.9C671.5 109 667.2 107.9 662.7 107.6C652.6 106.7 646 101.3 641.1 93.4001C639.3 90.4001 637.4 87.4001 635.8 84.3001C630.1 73.8001 622.4 65.2001 611.4 59.5001C610.7 59.3001 609 59.4001 610.5 58.1001Z" fill="#23232E"/>
<path d="M127.969 61.2C131.169 61.2 131.169 56.2 127.969 56.2C124.769 56.2 124.769 61.2 127.969 61.2Z" fill="#23232E"/>
<path d="M625.3 61.2C628.5 61.2 628.5 56.2 625.3 56.2C622.1 56.2 622.1 61.2 625.3 61.2Z" fill="#23232E"/>
<path d="M109.82 205.926H96.1445V200.406H109.82C112.469 200.406 114.613 199.984 116.254 199.141C117.895 198.297 119.09 197.125 119.84 195.625C120.613 194.125 121 192.414 121 190.492C121 188.734 120.613 187.082 119.84 185.535C119.09 183.988 117.895 182.746 116.254 181.809C114.613 180.848 112.469 180.367 109.82 180.367H97.7266V226H90.9414V174.812H109.82C113.688 174.812 116.957 175.48 119.629 176.816C122.301 178.152 124.328 180.004 125.711 182.371C127.094 184.715 127.785 187.398 127.785 190.422C127.785 193.703 127.094 196.504 125.711 198.824C124.328 201.145 122.301 202.914 119.629 204.133C116.957 205.328 113.688 205.926 109.82 205.926ZM141.883 193.938V226H135.379V187.961H141.707L141.883 193.938ZM153.766 187.75L153.73 193.797C153.191 193.68 152.676 193.609 152.184 193.586C151.715 193.539 151.176 193.516 150.566 193.516C149.066 193.516 147.742 193.75 146.594 194.219C145.445 194.688 144.473 195.344 143.676 196.188C142.879 197.031 142.246 198.039 141.777 199.211C141.332 200.359 141.039 201.625 140.898 203.008L139.07 204.062C139.07 201.766 139.293 199.609 139.738 197.594C140.207 195.578 140.922 193.797 141.883 192.25C142.844 190.68 144.062 189.461 145.539 188.594C147.039 187.703 148.82 187.258 150.883 187.258C151.352 187.258 151.891 187.316 152.5 187.434C153.109 187.527 153.531 187.633 153.766 187.75ZM157.352 207.402V206.594C157.352 203.852 157.75 201.309 158.547 198.965C159.344 196.598 160.492 194.547 161.992 192.812C163.492 191.055 165.309 189.695 167.441 188.734C169.574 187.75 171.965 187.258 174.613 187.258C177.285 187.258 179.688 187.75 181.82 188.734C183.977 189.695 185.805 191.055 187.305 192.812C188.828 194.547 189.988 196.598 190.785 198.965C191.582 201.309 191.98 203.852 191.98 206.594V207.402C191.98 210.145 191.582 212.688 190.785 215.031C189.988 217.375 188.828 219.426 187.305 221.184C185.805 222.918 183.988 224.277 181.855 225.262C179.746 226.223 177.355 226.703 174.684 226.703C172.012 226.703 169.609 226.223 167.477 225.262C165.344 224.277 163.516 222.918 161.992 221.184C160.492 219.426 159.344 217.375 158.547 215.031C157.75 212.688 157.352 210.145 157.352 207.402ZM163.855 206.594V207.402C163.855 209.301 164.078 211.094 164.523 212.781C164.969 214.445 165.637 215.922 166.527 217.211C167.441 218.5 168.578 219.52 169.938 220.27C171.297 220.996 172.879 221.359 174.684 221.359C176.465 221.359 178.023 220.996 179.359 220.27C180.719 219.52 181.844 218.5 182.734 217.211C183.625 215.922 184.293 214.445 184.738 212.781C185.207 211.094 185.441 209.301 185.441 207.402V206.594C185.441 204.719 185.207 202.949 184.738 201.285C184.293 199.598 183.613 198.109 182.699 196.82C181.809 195.508 180.684 194.477 179.324 193.727C177.988 192.977 176.418 192.602 174.613 192.602C172.832 192.602 171.262 192.977 169.902 193.727C168.566 194.477 167.441 195.508 166.527 196.82C165.637 198.109 164.969 199.598 164.523 201.285C164.078 202.949 163.855 204.719 163.855 206.594ZM200.312 187.961H206.852V230.535C206.852 232.855 206.477 234.824 205.727 236.441C205 238.059 203.898 239.277 202.422 240.098C200.969 240.941 199.129 241.363 196.902 241.363C196.316 241.363 195.637 241.305 194.863 241.188C194.066 241.07 193.398 240.93 192.859 240.766L192.895 235.527C193.34 235.621 193.844 235.691 194.406 235.738C194.969 235.809 195.461 235.844 195.883 235.844C196.844 235.844 197.652 235.668 198.309 235.316C198.965 234.965 199.457 234.402 199.785 233.629C200.137 232.855 200.312 231.824 200.312 230.535V187.961ZM199.645 177.871C199.645 176.816 199.973 175.926 200.629 175.199C201.285 174.473 202.234 174.109 203.477 174.109C204.742 174.109 205.703 174.473 206.359 175.199C207.016 175.926 207.344 176.816 207.344 177.871C207.344 178.879 207.016 179.746 206.359 180.473C205.703 181.176 204.742 181.527 203.477 181.527C202.234 181.527 201.285 181.176 200.629 180.473C199.973 179.746 199.645 178.879 199.645 177.871ZM233.148 226.703C230.5 226.703 228.098 226.258 225.941 225.367C223.809 224.453 221.969 223.176 220.422 221.535C218.898 219.895 217.727 217.949 216.906 215.699C216.086 213.449 215.676 210.988 215.676 208.316V206.84C215.676 203.746 216.133 200.992 217.047 198.578C217.961 196.141 219.203 194.078 220.773 192.391C222.344 190.703 224.125 189.426 226.117 188.559C228.109 187.691 230.172 187.258 232.305 187.258C235.023 187.258 237.367 187.727 239.336 188.664C241.328 189.602 242.957 190.914 244.223 192.602C245.488 194.266 246.426 196.234 247.035 198.508C247.645 200.758 247.949 203.219 247.949 205.891V208.809H219.543V203.5H241.445V203.008C241.352 201.32 241 199.68 240.391 198.086C239.805 196.492 238.867 195.18 237.578 194.148C236.289 193.117 234.531 192.602 232.305 192.602C230.828 192.602 229.469 192.918 228.227 193.551C226.984 194.16 225.918 195.074 225.027 196.293C224.137 197.512 223.445 199 222.953 200.758C222.461 202.516 222.215 204.543 222.215 206.84V208.316C222.215 210.121 222.461 211.82 222.953 213.414C223.469 214.984 224.207 216.367 225.168 217.562C226.152 218.758 227.336 219.695 228.719 220.375C230.125 221.055 231.719 221.395 233.5 221.395C235.797 221.395 237.742 220.926 239.336 219.988C240.93 219.051 242.324 217.797 243.52 216.227L247.457 219.355C246.637 220.598 245.594 221.781 244.328 222.906C243.062 224.031 241.504 224.945 239.652 225.648C237.824 226.352 235.656 226.703 233.148 226.703ZM270.766 221.359C272.312 221.359 273.742 221.043 275.055 220.41C276.367 219.777 277.445 218.91 278.289 217.809C279.133 216.684 279.613 215.406 279.73 213.977H285.918C285.801 216.227 285.039 218.324 283.633 220.27C282.25 222.191 280.434 223.75 278.184 224.945C275.934 226.117 273.461 226.703 270.766 226.703C267.906 226.703 265.41 226.199 263.277 225.191C261.168 224.184 259.41 222.801 258.004 221.043C256.621 219.285 255.578 217.27 254.875 214.996C254.195 212.699 253.855 210.273 253.855 207.719V206.242C253.855 203.688 254.195 201.273 254.875 199C255.578 196.703 256.621 194.676 258.004 192.918C259.41 191.16 261.168 189.777 263.277 188.77C265.41 187.762 267.906 187.258 270.766 187.258C273.742 187.258 276.344 187.867 278.57 189.086C280.797 190.281 282.543 191.922 283.809 194.008C285.098 196.07 285.801 198.414 285.918 201.039H279.73C279.613 199.469 279.168 198.051 278.395 196.785C277.645 195.52 276.613 194.512 275.301 193.762C274.012 192.988 272.5 192.602 270.766 192.602C268.773 192.602 267.098 193 265.738 193.797C264.402 194.57 263.336 195.625 262.539 196.961C261.766 198.273 261.203 199.738 260.852 201.355C260.523 202.949 260.359 204.578 260.359 206.242V207.719C260.359 209.383 260.523 211.023 260.852 212.641C261.18 214.258 261.73 215.723 262.504 217.035C263.301 218.348 264.367 219.402 265.703 220.199C267.062 220.973 268.75 221.359 270.766 221.359ZM309.156 187.961V192.953H288.59V187.961H309.156ZM295.551 178.715H302.055V216.578C302.055 217.867 302.254 218.84 302.652 219.496C303.051 220.152 303.566 220.586 304.199 220.797C304.832 221.008 305.512 221.113 306.238 221.113C306.777 221.113 307.34 221.066 307.926 220.973C308.535 220.855 308.992 220.762 309.297 220.691L309.332 226C308.816 226.164 308.137 226.316 307.293 226.457C306.473 226.621 305.477 226.703 304.305 226.703C302.711 226.703 301.246 226.387 299.91 225.754C298.574 225.121 297.508 224.066 296.711 222.59C295.938 221.09 295.551 219.074 295.551 216.543V178.715ZM338.934 215.91C338.934 214.973 338.723 214.105 338.301 213.309C337.902 212.488 337.07 211.75 335.805 211.094C334.562 210.414 332.688 209.828 330.18 209.336C328.07 208.891 326.16 208.363 324.449 207.754C322.762 207.145 321.32 206.406 320.125 205.539C318.953 204.672 318.051 203.652 317.418 202.48C316.785 201.309 316.469 199.938 316.469 198.367C316.469 196.867 316.797 195.449 317.453 194.113C318.133 192.777 319.082 191.594 320.301 190.562C321.543 189.531 323.031 188.723 324.766 188.137C326.5 187.551 328.434 187.258 330.566 187.258C333.613 187.258 336.215 187.797 338.371 188.875C340.527 189.953 342.18 191.395 343.328 193.199C344.477 194.98 345.051 196.961 345.051 199.141H338.547C338.547 198.086 338.23 197.066 337.598 196.082C336.988 195.074 336.086 194.242 334.891 193.586C333.719 192.93 332.277 192.602 330.566 192.602C328.762 192.602 327.297 192.883 326.172 193.445C325.07 193.984 324.262 194.676 323.746 195.52C323.254 196.363 323.008 197.254 323.008 198.191C323.008 198.895 323.125 199.527 323.359 200.09C323.617 200.629 324.062 201.133 324.695 201.602C325.328 202.047 326.219 202.469 327.367 202.867C328.516 203.266 329.98 203.664 331.762 204.062C334.879 204.766 337.445 205.609 339.461 206.594C341.477 207.578 342.977 208.785 343.961 210.215C344.945 211.645 345.438 213.379 345.438 215.418C345.438 217.082 345.086 218.605 344.383 219.988C343.703 221.371 342.707 222.566 341.395 223.574C340.105 224.559 338.559 225.332 336.754 225.895C334.973 226.434 332.969 226.703 330.742 226.703C327.391 226.703 324.555 226.105 322.234 224.91C319.914 223.715 318.156 222.168 316.961 220.27C315.766 218.371 315.168 216.367 315.168 214.258H321.707C321.801 216.039 322.316 217.457 323.254 218.512C324.191 219.543 325.34 220.281 326.699 220.727C328.059 221.148 329.406 221.359 330.742 221.359C332.523 221.359 334.012 221.125 335.207 220.656C336.426 220.188 337.352 219.543 337.984 218.723C338.617 217.902 338.934 216.965 338.934 215.91ZM380.102 174.812V226H373.316V174.812H380.102ZM398.031 172V176.5C398.031 177.906 397.785 179.395 397.293 180.965C396.824 182.512 396.133 184.012 395.219 185.465C394.305 186.895 393.203 188.148 391.914 189.227L388.188 186.66C389.289 185.113 390.121 183.531 390.684 181.914C391.27 180.273 391.562 178.504 391.562 176.605V172H398.031ZM417.438 220.129L427.844 187.961H434.488L420.812 226H416.453L417.438 220.129ZM408.754 187.961L419.477 220.305L420.215 226H415.855L402.074 187.961H408.754ZM456.039 226.703C453.391 226.703 450.988 226.258 448.832 225.367C446.699 224.453 444.859 223.176 443.312 221.535C441.789 219.895 440.617 217.949 439.797 215.699C438.977 213.449 438.566 210.988 438.566 208.316V206.84C438.566 203.746 439.023 200.992 439.938 198.578C440.852 196.141 442.094 194.078 443.664 192.391C445.234 190.703 447.016 189.426 449.008 188.559C451 187.691 453.062 187.258 455.195 187.258C457.914 187.258 460.258 187.727 462.227 188.664C464.219 189.602 465.848 190.914 467.113 192.602C468.379 194.266 469.316 196.234 469.926 198.508C470.535 200.758 470.84 203.219 470.84 205.891V208.809H442.434V203.5H464.336V203.008C464.242 201.32 463.891 199.68 463.281 198.086C462.695 196.492 461.758 195.18 460.469 194.148C459.18 193.117 457.422 192.602 455.195 192.602C453.719 192.602 452.359 192.918 451.117 193.551C449.875 194.16 448.809 195.074 447.918 196.293C447.027 197.512 446.336 199 445.844 200.758C445.352 202.516 445.105 204.543 445.105 206.84V208.316C445.105 210.121 445.352 211.82 445.844 213.414C446.359 214.984 447.098 216.367 448.059 217.562C449.043 218.758 450.227 219.695 451.609 220.375C453.016 221.055 454.609 221.395 456.391 221.395C458.688 221.395 460.633 220.926 462.227 219.988C463.82 219.051 465.215 217.797 466.41 216.227L470.348 219.355C469.527 220.598 468.484 221.781 467.219 222.906C465.953 224.031 464.395 224.945 462.543 225.648C460.715 226.352 458.547 226.703 456.039 226.703ZM511.129 226H500.441L500.512 220.48H511.129C514.785 220.48 517.832 219.719 520.27 218.195C522.707 216.648 524.535 214.492 525.754 211.727C526.996 208.938 527.617 205.68 527.617 201.953V198.824C527.617 195.895 527.266 193.293 526.562 191.02C525.859 188.723 524.828 186.789 523.469 185.219C522.109 183.625 520.445 182.418 518.477 181.598C516.531 180.777 514.293 180.367 511.762 180.367H500.23V174.812H511.762C515.113 174.812 518.172 175.375 520.938 176.5C523.703 177.602 526.082 179.207 528.074 181.316C530.09 183.402 531.637 185.934 532.715 188.91C533.793 191.863 534.332 195.191 534.332 198.895V201.953C534.332 205.656 533.793 208.996 532.715 211.973C531.637 214.926 530.078 217.445 528.039 219.531C526.023 221.617 523.586 223.223 520.727 224.348C517.891 225.449 514.691 226 511.129 226ZM504.062 174.812V226H497.277V174.812H504.062ZM541.82 207.402V206.594C541.82 203.852 542.219 201.309 543.016 198.965C543.812 196.598 544.961 194.547 546.461 192.812C547.961 191.055 549.777 189.695 551.91 188.734C554.043 187.75 556.434 187.258 559.082 187.258C561.754 187.258 564.156 187.75 566.289 188.734C568.445 189.695 570.273 191.055 571.773 192.812C573.297 194.547 574.457 196.598 575.254 198.965C576.051 201.309 576.449 203.852 576.449 206.594V207.402C576.449 210.145 576.051 212.688 575.254 215.031C574.457 217.375 573.297 219.426 571.773 221.184C570.273 222.918 568.457 224.277 566.324 225.262C564.215 226.223 561.824 226.703 559.152 226.703C556.48 226.703 554.078 226.223 551.945 225.262C549.812 224.277 547.984 222.918 546.461 221.184C544.961 219.426 543.812 217.375 543.016 215.031C542.219 212.688 541.82 210.145 541.82 207.402ZM548.324 206.594V207.402C548.324 209.301 548.547 211.094 548.992 212.781C549.438 214.445 550.105 215.922 550.996 217.211C551.91 218.5 553.047 219.52 554.406 220.27C555.766 220.996 557.348 221.359 559.152 221.359C560.934 221.359 562.492 220.996 563.828 220.27C565.188 219.52 566.312 218.5 567.203 217.211C568.094 215.922 568.762 214.445 569.207 212.781C569.676 211.094 569.91 209.301 569.91 207.402V206.594C569.91 204.719 569.676 202.949 569.207 201.285C568.762 199.598 568.082 198.109 567.168 196.82C566.277 195.508 565.152 194.477 563.793 193.727C562.457 192.977 560.887 192.602 559.082 192.602C557.301 192.602 555.73 192.977 554.371 193.727C553.035 194.477 551.91 195.508 550.996 196.82C550.105 198.109 549.438 199.598 548.992 201.285C548.547 202.949 548.324 204.719 548.324 206.594ZM591.109 196.082V226H584.605V187.961H590.758L591.109 196.082ZM589.562 205.539L586.855 205.434C586.879 202.832 587.266 200.43 588.016 198.227C588.766 196 589.82 194.066 591.18 192.426C592.539 190.785 594.156 189.52 596.031 188.629C597.93 187.715 600.027 187.258 602.324 187.258C604.199 187.258 605.887 187.516 607.387 188.031C608.887 188.523 610.164 189.32 611.219 190.422C612.297 191.523 613.117 192.953 613.68 194.711C614.242 196.445 614.523 198.566 614.523 201.074V226H607.984V201.004C607.984 199.012 607.691 197.418 607.105 196.223C606.52 195.004 605.664 194.125 604.539 193.586C603.414 193.023 602.031 192.742 600.391 192.742C598.773 192.742 597.297 193.082 595.961 193.762C594.648 194.441 593.512 195.379 592.551 196.574C591.613 197.77 590.875 199.141 590.336 200.688C589.82 202.211 589.562 203.828 589.562 205.539ZM640.188 226.703C637.539 226.703 635.137 226.258 632.98 225.367C630.848 224.453 629.008 223.176 627.461 221.535C625.938 219.895 624.766 217.949 623.945 215.699C623.125 213.449 622.715 210.988 622.715 208.316V206.84C622.715 203.746 623.172 200.992 624.086 198.578C625 196.141 626.242 194.078 627.812 192.391C629.383 190.703 631.164 189.426 633.156 188.559C635.148 187.691 637.211 187.258 639.344 187.258C642.062 187.258 644.406 187.727 646.375 188.664C648.367 189.602 649.996 190.914 651.262 192.602C652.527 194.266 653.465 196.234 654.074 198.508C654.684 200.758 654.988 203.219 654.988 205.891V208.809H626.582V203.5H648.484V203.008C648.391 201.32 648.039 199.68 647.43 198.086C646.844 196.492 645.906 195.18 644.617 194.148C643.328 193.117 641.57 192.602 639.344 192.602C637.867 192.602 636.508 192.918 635.266 193.551C634.023 194.16 632.957 195.074 632.066 196.293C631.176 197.512 630.484 199 629.992 200.758C629.5 202.516 629.254 204.543 629.254 206.84V208.316C629.254 210.121 629.5 211.82 629.992 213.414C630.508 214.984 631.246 216.367 632.207 217.562C633.191 218.758 634.375 219.695 635.758 220.375C637.164 221.055 638.758 221.395 640.539 221.395C642.836 221.395 644.781 220.926 646.375 219.988C647.969 219.051 649.363 217.797 650.559 216.227L654.496 219.355C653.676 220.598 652.633 221.781 651.367 222.906C650.102 224.031 648.543 224.945 646.691 225.648C644.863 226.352 642.695 226.703 640.188 226.703Z" fill="black"/>
</svg>
